<svg width="105" height="25" viewBox="0 0 105 25" fill="none" xmlns="http://www.w3.org/2000/svg">
<path d="M77.0256 10.4523V12.784H75.5911V14.3131H77.0256V19.5087C77.0256 21.2828 77.8134 21.9925 79.7953 21.9925C80.1436 21.9925 80.4753 21.9502 80.7655 21.8995V20.3873C80.5167 20.4127 80.3592 20.4295 80.0855 20.4295C79.1982 20.4295 78.8085 20.0071 78.8085 19.044V14.3131H80.7655V12.784H78.8085V10.4523H77.0256Z" fill="#292D32"/>
<path d="M85.8142 22.1192C88.4512 22.1192 90.0682 20.3197 90.0682 17.3375C90.0682 14.3722 88.4429 12.5643 85.8142 12.5643C83.1772 12.5643 81.5519 14.3722 81.5519 17.3375C81.5519 20.3197 83.1689 22.1192 85.8142 22.1192ZM85.8142 20.5056C84.2635 20.5056 83.3928 19.3482 83.3928 17.3375C83.3928 15.3438 84.2635 14.1779 85.8142 14.1779C87.3566 14.1779 88.2356 15.3438 88.2356 17.3375C88.2356 19.3397 87.3566 20.5056 85.8142 20.5056Z" fill="#292D32"/>
<path d="M91.4516 21.9418H93.2345V16.5096C93.2345 15.217 94.1881 14.3469 95.5398 14.3469C95.8549 14.3469 96.3856 14.406 96.5349 14.4567V12.6657C96.3441 12.615 96.0041 12.5897 95.7388 12.5897C94.5613 12.5897 93.5579 13.2486 93.3008 14.1526H93.1682V12.7417H91.4516V21.9418Z" fill="#292D32"/>
<path d="M100.962 14.1103C102.28 14.1103 103.143 15.0481 103.184 16.4927H98.6232C98.7227 15.0565 99.6432 14.1103 100.962 14.1103ZM103.176 19.458C102.844 20.1761 102.106 20.5732 101.028 20.5732C99.6017 20.5732 98.6812 19.5509 98.6232 17.9373V17.836H105V17.2023C105 14.3131 103.482 12.5643 100.97 12.5643C98.4242 12.5643 96.8072 14.4314 96.8072 17.3713C96.8072 20.3113 98.391 22.1192 100.978 22.1192C103.043 22.1192 104.486 21.1054 104.892 19.458H103.176Z" fill="#292D32"/>
<path d="M65.334 18.5443C65.4715 20.8035 67.3194 22.2482 70.0697 22.2482C73.0091 22.2482 74.8484 20.7334 74.8484 18.3167C74.8484 16.4166 73.7998 15.3658 71.2558 14.7616L69.8892 14.4201C68.2734 14.0349 67.6202 13.5182 67.6202 12.6163C67.6202 11.478 68.6344 10.7337 70.1556 10.7337C71.5995 10.7337 72.5965 11.4605 72.777 12.6251H74.6507C74.539 10.4973 72.6997 9 70.1814 9C67.4741 9 65.6692 10.4973 65.6692 12.7477C65.6692 14.604 66.6919 15.7073 68.9352 16.2414L70.5338 16.6355C72.1754 17.0295 72.8974 17.6074 72.8974 18.5706C72.8974 19.6914 71.7628 20.5057 70.2158 20.5057C68.557 20.5057 67.4053 19.7439 67.242 18.5443H65.334Z" fill="#292D32"/>
<path d="M46.8654 12.5897C45.6382 12.5897 44.5768 13.2148 44.0295 14.2624H43.8968V12.7417H42.1803V25H43.9631V20.5478H44.1041C44.5768 21.5194 45.5967 22.0938 46.882 22.0938C49.1624 22.0938 50.6136 20.2606 50.6136 17.3375C50.6136 14.4145 49.1624 12.5897 46.8654 12.5897ZM46.3596 20.4633C44.867 20.4633 43.93 19.2637 43.93 17.346C43.93 15.4198 44.867 14.2201 46.3679 14.2201C47.8771 14.2201 48.781 15.3944 48.781 17.3375C48.781 19.289 47.8771 20.4633 46.3596 20.4633Z" fill="#292D32"/>
<path d="M56.8521 12.5897C55.6248 12.5897 54.5634 13.2148 54.0161 14.2624H53.8834V12.7417H52.1669V25H53.9497V20.5478H54.0907C54.5634 21.5194 55.5833 22.0938 56.8687 22.0938C59.149 22.0938 60.6002 20.2606 60.6002 17.3375C60.6002 14.4145 59.149 12.5897 56.8521 12.5897ZM56.3462 20.4633C54.8536 20.4633 53.9166 19.2637 53.9166 17.346C53.9166 15.4198 54.8536 14.2201 56.3545 14.2201C57.8637 14.2201 58.7676 15.3944 58.7676 17.3375C58.7676 19.289 57.8637 20.4633 56.3462 20.4633Z" fill="#292D32"/>
<path d="M38.9815 21.9418H41.0271L36.5492 9.30647H34.4779L30 21.9418H31.9768L33.1199 18.5881H37.847L38.9815 21.9418ZM35.4147 11.6006H35.5608L37.3571 16.9419H33.6098L35.4147 11.6006Z" fill="#292D32"/>
<path d="M31 0.277524V5.91792H33.1576C34.9384 5.91792 35.9696 4.88208 35.9696 3.08013C35.9696 1.30554 34.9301 0.277524 33.1576 0.277524H31ZM31.9277 1.07492H33.0541C34.2923 1.07492 35.0254 1.81759 35.0254 3.09186C35.0254 4.38567 34.3048 5.12052 33.0541 5.12052H31.9277V1.07492Z" fill="#292D32"/>
<path d="M39.1277 6C40.4447 6 41.2522 5.16743 41.2522 3.78762C41.2522 2.41564 40.4405 1.57915 39.1277 1.57915C37.8108 1.57915 36.9991 2.41564 36.9991 3.78762C36.9991 5.16743 37.8067 6 39.1277 6ZM39.1277 5.25342C38.3533 5.25342 37.9185 4.71792 37.9185 3.78762C37.9185 2.86515 38.3533 2.32573 39.1277 2.32573C39.898 2.32573 40.337 2.86515 40.337 3.78762C40.337 4.71401 39.898 5.25342 39.1277 5.25342Z" fill="#292D32"/>
<path d="M48.1293 1.66124H47.2389L46.4355 4.90945H46.3651L45.4374 1.66124H44.5843L43.6567 4.90945H43.5904L42.7829 1.66124H41.88L43.1224 5.91792H44.0377L44.9653 2.78306H45.0357L45.9675 5.91792H46.891L48.1293 1.66124Z" fill="#292D32"/>
<path d="M49.1547 5.91792H50.045V3.42801C50.045 2.76352 50.4633 2.34919 51.1218 2.34919C51.7803 2.34919 52.095 2.68925 52.095 3.37329V5.91792H52.9854V3.16221C52.9854 2.14984 52.4304 1.57915 51.4241 1.57915C50.7449 1.57915 50.2977 1.8645 50.0782 2.33746H50.0119V1.66124H49.1547V5.91792Z" fill="#292D32"/>
<path d="M54.3876 5.91792H55.278V0H54.3876V5.91792Z" fill="#292D32"/>
<path d="M58.6267 6C59.9436 6 60.7512 5.16743 60.7512 3.78762C60.7512 2.41564 59.9395 1.57915 58.6267 1.57915C57.3097 1.57915 56.498 2.41564 56.498 3.78762C56.498 5.16743 57.3056 6 58.6267 6ZM58.6267 5.25342C57.8522 5.25342 57.4174 4.71792 57.4174 3.78762C57.4174 2.86515 57.8522 2.32573 58.6267 2.32573C59.397 2.32573 59.8359 2.86515 59.8359 3.78762C59.8359 4.71401 59.397 5.25342 58.6267 5.25342Z" fill="#292D32"/>
<path d="M63.4041 5.28078C62.9195 5.28078 62.5675 5.05798 62.5675 4.67492C62.5675 4.29967 62.8491 4.10033 63.4703 4.06124L64.5719 3.99479V4.35049C64.5719 4.87818 64.075 5.28078 63.4041 5.28078ZM63.1763 5.98827C63.7685 5.98827 64.2613 5.74593 64.5305 5.31987H64.6009V5.91792H65.4582V3.00977C65.4582 2.11075 64.8204 1.57915 63.6898 1.57915C62.6669 1.57915 61.9381 2.04821 61.847 2.77915H62.7083C62.8077 2.47818 63.1515 2.30619 63.6484 2.30619C64.2572 2.30619 64.5719 2.56026 64.5719 3.00977V3.3772L63.3502 3.44365C62.2776 3.50619 61.673 3.94788 61.673 4.71401C61.673 5.49186 62.3066 5.98827 63.1763 5.98827Z" fill="#292D32"/>
<path d="M68.4797 5.98827C69.1009 5.98827 69.6268 5.71075 69.896 5.2456H69.9664V5.91792H70.8195V0H69.9291V2.33746H69.8629C69.6185 1.8684 69.0967 1.59088 68.4797 1.59088C67.3408 1.59088 66.6078 2.443 66.6078 3.78762C66.6078 5.13616 67.3325 5.98827 68.4797 5.98827ZM68.7323 2.34528C69.4777 2.34528 69.9457 2.90423 69.9457 3.79153C69.9457 4.68274 69.4819 5.23388 68.7323 5.23388C67.9786 5.23388 67.5272 4.69055 67.5272 3.78762C67.5272 2.89251 67.9827 2.34528 68.7323 2.34528Z" fill="#292D32"/>
<path d="M76.5933 6C77.9103 6 78.7178 5.16743 78.7178 3.78762C78.7178 2.41564 77.9061 1.57915 76.5933 1.57915C75.2764 1.57915 74.4647 2.41564 74.4647 3.78762C74.4647 5.16743 75.2722 6 76.5933 6ZM76.5933 5.25342C75.8189 5.25342 75.3841 4.71792 75.3841 3.78762C75.3841 2.86515 75.8189 2.32573 76.5933 2.32573C77.3636 2.32573 77.8026 2.86515 77.8026 3.78762C77.8026 4.71401 77.3636 5.25342 76.5933 5.25342Z" fill="#292D32"/>
<path d="M79.8964 5.91792H80.7868V3.42801C80.7868 2.76352 81.2051 2.34919 81.8636 2.34919C82.522 2.34919 82.8368 2.68925 82.8368 3.37329V5.91792H83.7271V3.16221C83.7271 2.14984 83.1722 1.57915 82.1659 1.57915C81.4867 1.57915 81.0394 1.8645 80.8199 2.33746H80.7537V1.66124H79.8964V5.91792Z" fill="#292D32"/>
<path d="M87.8279 0.601954V1.68078H87.1114V2.38827H87.8279V4.79218C87.8279 5.61303 88.2213 5.94137 89.2111 5.94137C89.385 5.94137 89.5507 5.92182 89.6956 5.89837V5.1987C89.5714 5.21042 89.4927 5.21824 89.356 5.21824C88.9129 5.21824 88.7183 5.0228 88.7183 4.5772V2.38827H89.6956V1.68078H88.7183V0.601954H87.8279Z" fill="#292D32"/>
<path d="M90.8908 5.91792H91.7812V3.43192C91.7812 2.78697 92.187 2.35309 92.9159 2.35309C93.5454 2.35309 93.8808 2.69707 93.8808 3.3772V5.91792H94.7712V3.17003C94.7712 2.15765 94.179 1.58306 93.2182 1.58306C92.539 1.58306 92.0628 1.8684 91.8433 2.34528H91.7729V0H90.8908V5.91792Z" fill="#292D32"/>
<path d="M97.9832 2.29446C98.6417 2.29446 99.0723 2.72834 99.0931 3.39674H96.8153C96.865 2.73225 97.3247 2.29446 97.9832 2.29446ZM99.0889 4.76873C98.9233 5.10098 98.5547 5.28469 98.0163 5.28469C97.304 5.28469 96.8443 4.81173 96.8153 4.06515V4.01824H100V3.72508C100 2.38827 99.2421 1.57915 97.9873 1.57915C96.7159 1.57915 95.9084 2.443 95.9084 3.80326C95.9084 5.16352 96.6994 6 97.9915 6C99.0227 6 99.7432 5.53094 99.9462 4.76873H99.0889Z" fill="#292D32"/>
<path d="M15.0341 11.6995C15.0561 10.0012 15.9733 8.39426 17.4283 7.50474C16.5104 6.20114 14.9729 5.37462 13.3733 5.32486C11.6672 5.14678 10.0132 6.34003 9.1438 6.34003C8.25758 6.34003 6.919 5.34254 5.47757 5.37203C3.59873 5.43239 1.84718 6.49459 0.933086 8.12797C-1.03186 11.5108 0.433813 16.4825 2.31606 19.217C3.25779 20.556 4.3584 22.0517 5.79853 21.9986C7.20778 21.9405 7.73411 21.105 9.4352 21.105C11.1205 21.105 11.6143 21.9986 13.0837 21.9649C14.5958 21.9405 15.5486 20.62 16.4573 19.2683C17.1339 18.3142 17.6546 17.2598 18 16.144C16.2229 15.3966 15.0361 13.6182 15.0341 11.6995Z" fill="#292D32"/>
<path d="M12.2587 3.52654C13.0832 2.54231 13.4894 1.27724 13.391 0C12.1314 0.131561 10.9678 0.730217 10.1321 1.67669C9.31499 2.60144 8.88974 3.84424 8.97013 5.07267C10.2303 5.08557 11.4691 4.50314 12.2587 3.52654Z" fill="#292D32"/>
</svg>
