<svg width="145" height="40" viewBox="0 0 145 40" fill="none" xmlns="http://www.w3.org/2000/svg">
<rect width="145" height="40" rx="10" fill="#1F1F1F"/>
<path fill-rule="evenodd" clip-rule="evenodd" d="M24.9634 12.757C25.6935 11.8944 26.0598 10.9625 26.0598 9.96444V9.96443C26.0598 9.83205 26.0536 9.69861 26.0388 9.56519C25.5302 9.59145 24.9894 9.74484 24.4177 10.0222C23.8448 10.3038 23.3723 10.6568 23.0008 11.0813C22.2568 11.9197 21.8378 12.9451 21.8378 13.9033C21.8378 14.0357 21.8463 14.1617 21.861 14.2815C23.0167 14.375 24.0824 13.7824 24.9634 12.757ZM28.8503 27.047C29.266 26.4569 29.6249 25.8151 29.9281 25.1178C30.0531 24.8222 30.1706 24.5142 30.282 24.1927C29.7684 23.9784 29.3069 23.6765 28.8936 23.286C27.9816 22.4447 27.5175 21.385 27.5039 20.1116C27.4891 18.4768 28.2353 17.2024 29.7437 16.2925C28.901 15.1 27.6338 14.4381 25.9472 14.3026C25.3248 14.25 24.565 14.3836 23.6647 14.7061C22.7128 15.0538 22.1512 15.2283 21.9855 15.2283C21.7639 15.2283 21.2584 15.0791 20.4711 14.7849C19.6816 14.4917 19.0463 14.3426 18.5619 14.3426C17.6765 14.3572 16.8543 14.5863 16.0934 15.036C15.3325 15.4856 14.7245 16.0981 14.2675 16.8746C13.6861 17.8412 13.3958 18.9948 13.3958 20.3322C13.3958 21.4998 13.6111 22.7058 14.0406 23.9513C14.4416 25.1043 14.9536 26.1157 15.5763 26.9878C16.1566 27.8046 16.6411 28.3811 17.0284 28.7174C17.6353 29.2792 18.2432 29.5465 18.8532 29.5206C19.2542 29.507 19.7788 29.3703 20.4299 29.1079C21.0801 28.8468 21.6879 28.7174 22.2547 28.7174C22.795 28.7174 23.3861 28.8468 24.0292 29.1079C24.6702 29.3703 25.2208 29.4997 25.6774 29.4997C26.3135 29.4849 26.9075 29.2249 27.4618 28.7174C27.8195 28.4082 28.2835 27.8514 28.8503 27.047Z" fill="white"/>
<path d="M44.7583 30.6431C44.6623 30.6431 44.5783 30.6071 44.5063 30.5351C44.4343 30.4631 44.3983 30.3791 44.3983 30.2831C44.3983 30.2231 44.4043 30.1571 44.4163 30.0851L48.8803 18.4391C48.9283 18.3191 48.9943 18.2231 49.0783 18.1511C49.1623 18.0791 49.2883 18.0431 49.4563 18.0431H50.6803C50.8363 18.0431 50.9563 18.0791 51.0403 18.1511C51.1363 18.2231 51.2083 18.3191 51.2563 18.4391L55.7023 30.0851C55.7263 30.1571 55.7383 30.2231 55.7383 30.2831C55.7383 30.3791 55.7023 30.4631 55.6303 30.5351C55.5583 30.6071 55.4743 30.6431 55.3783 30.6431H54.4603C54.3163 30.6431 54.2083 30.6071 54.1363 30.5351C54.0763 30.4631 54.0343 30.3971 54.0103 30.3371L53.0203 27.7811H47.1163L46.1263 30.3371C46.1143 30.3971 46.0723 30.4631 46.0003 30.5351C45.9283 30.6071 45.8203 30.6431 45.6763 30.6431H44.7583ZM47.6383 26.2331H52.4983L50.0683 19.8431L47.6383 26.2331ZM57.8609 34.0631C57.7409 34.0631 57.6389 34.0211 57.5549 33.9371C57.4829 33.8651 57.4469 33.7691 57.4469 33.6491V21.6971C57.4469 21.5771 57.4829 21.4811 57.5549 21.4091C57.6389 21.3251 57.7409 21.2831 57.8609 21.2831H58.6889C58.8089 21.2831 58.9049 21.3251 58.9769 21.4091C59.0609 21.4811 59.1029 21.5771 59.1029 21.6971V22.4891C59.3909 22.0931 59.7749 21.7631 60.2549 21.4991C60.7349 21.2351 61.3349 21.1031 62.0549 21.1031C62.7269 21.1031 63.2969 21.2171 63.7649 21.4451C64.2449 21.6731 64.6349 21.9851 64.9349 22.3811C65.2469 22.7771 65.4809 23.2271 65.6369 23.7311C65.7929 24.2351 65.8769 24.7751 65.8889 25.3511C65.9009 25.5431 65.9069 25.7471 65.9069 25.9631C65.9069 26.1791 65.9009 26.3831 65.8889 26.5751C65.8769 27.1391 65.7929 27.6791 65.6369 28.1951C65.4809 28.6991 65.2469 29.1491 64.9349 29.5451C64.6349 29.9291 64.2449 30.2411 63.7649 30.4811C63.2969 30.7091 62.7269 30.8231 62.0549 30.8231C61.3589 30.8231 60.7709 30.6971 60.2909 30.4451C59.8229 30.1811 59.4389 29.8571 59.1389 29.4731V33.6491C59.1389 33.7691 59.1029 33.8651 59.0309 33.9371C58.9589 34.0211 58.8569 34.0631 58.7249 34.0631H57.8609ZM61.6769 29.3651C62.3009 29.3651 62.7869 29.2331 63.1349 28.9691C63.4949 28.6931 63.7529 28.3391 63.9089 27.9071C64.0649 27.4631 64.1549 26.9891 64.1789 26.4851C64.1909 26.1371 64.1909 25.7891 64.1789 25.4411C64.1549 24.9371 64.0649 24.4691 63.9089 24.0371C63.7529 23.5931 63.4949 23.2391 63.1349 22.9751C62.7869 22.6991 62.3009 22.5611 61.6769 22.5611C61.0889 22.5611 60.6089 22.6991 60.2369 22.9751C59.8769 23.2511 59.6069 23.6051 59.4269 24.0371C59.2589 24.4571 59.1629 24.8891 59.1389 25.3331C59.1269 25.5251 59.1209 25.7531 59.1209 26.0171C59.1209 26.2811 59.1269 26.5151 59.1389 26.7191C59.1509 27.1391 59.2469 27.5531 59.4269 27.9611C59.6189 28.3691 59.9009 28.7051 60.2729 28.9691C60.6449 29.2331 61.1129 29.3651 61.6769 29.3651ZM68.5836 34.0631C68.4636 34.0631 68.3616 34.0211 68.2776 33.9371C68.2056 33.8651 68.1696 33.7691 68.1696 33.6491V21.6971C68.1696 21.5771 68.2056 21.4811 68.2776 21.4091C68.3616 21.3251 68.4636 21.2831 68.5836 21.2831H69.4116C69.5316 21.2831 69.6276 21.3251 69.6996 21.4091C69.7836 21.4811 69.8256 21.5771 69.8256 21.6971V22.4891C70.1136 22.0931 70.4976 21.7631 70.9776 21.4991C71.4576 21.2351 72.0576 21.1031 72.7776 21.1031C73.4496 21.1031 74.0196 21.2171 74.4876 21.4451C74.9676 21.6731 75.3576 21.9851 75.6576 22.3811C75.9696 22.7771 76.2036 23.2271 76.3596 23.7311C76.5156 24.2351 76.5996 24.7751 76.6116 25.3511C76.6236 25.5431 76.6296 25.7471 76.6296 25.9631C76.6296 26.1791 76.6236 26.3831 76.6116 26.5751C76.5996 27.1391 76.5156 27.6791 76.3596 28.1951C76.2036 28.6991 75.9696 29.1491 75.6576 29.5451C75.3576 29.9291 74.9676 30.2411 74.4876 30.4811C74.0196 30.7091 73.4496 30.8231 72.7776 30.8231C72.0816 30.8231 71.4936 30.6971 71.0136 30.4451C70.5456 30.1811 70.1616 29.8571 69.8616 29.4731V33.6491C69.8616 33.7691 69.8256 33.8651 69.7536 33.9371C69.6816 34.0211 69.5796 34.0631 69.4476 34.0631H68.5836ZM72.3996 29.3651C73.0236 29.3651 73.5096 29.2331 73.8576 28.9691C74.2176 28.6931 74.4756 28.3391 74.6316 27.9071C74.7876 27.4631 74.8776 26.9891 74.9016 26.4851C74.9136 26.1371 74.9136 25.7891 74.9016 25.4411C74.8776 24.9371 74.7876 24.4691 74.6316 24.0371C74.4756 23.5931 74.2176 23.2391 73.8576 22.9751C73.5096 22.6991 73.0236 22.5611 72.3996 22.5611C71.8116 22.5611 71.3316 22.6991 70.9596 22.9751C70.5996 23.2511 70.3296 23.6051 70.1496 24.0371C69.9816 24.4571 69.8856 24.8891 69.8616 25.3331C69.8496 25.5251 69.8436 25.7531 69.8436 26.0171C69.8436 26.2811 69.8496 26.5151 69.8616 26.7191C69.8736 27.1391 69.9696 27.5531 70.1496 27.9611C70.3416 28.3691 70.6236 28.7051 70.9956 28.9691C71.3676 29.2331 71.8356 29.3651 72.3996 29.3651ZM87.5703 30.8231C86.5263 30.8231 85.6503 30.6671 84.9423 30.3551C84.2343 30.0311 83.6883 29.6171 83.3043 29.1131C82.9323 28.5971 82.7343 28.0511 82.7103 27.4751C82.7103 27.3791 82.7463 27.2951 82.8183 27.2231C82.9023 27.1391 82.9983 27.0971 83.1063 27.0971H84.0243C84.1683 27.0971 84.2763 27.1331 84.3483 27.2051C84.4203 27.2771 84.4683 27.3611 84.4923 27.4571C84.5523 27.7451 84.6963 28.0331 84.9243 28.3211C85.1643 28.5971 85.4943 28.8311 85.9143 29.0231C86.3463 29.2031 86.8983 29.2931 87.5703 29.2931C88.6023 29.2931 89.3583 29.1131 89.8383 28.7531C90.3303 28.3811 90.5763 27.8891 90.5763 27.2771C90.5763 26.8571 90.4443 26.5211 90.1803 26.2691C89.9283 26.0051 89.5383 25.7711 89.0103 25.5671C88.4823 25.3631 87.7983 25.1411 86.9583 24.9011C86.0823 24.6491 85.3563 24.3731 84.7803 24.0731C84.2043 23.7731 83.7723 23.4011 83.4843 22.9571C83.2083 22.5131 83.0703 21.9491 83.0703 21.2651C83.0703 20.6171 83.2443 20.0411 83.5923 19.5371C83.9403 19.0211 84.4383 18.6131 85.0863 18.3131C85.7463 18.0131 86.5443 17.8631 87.4803 17.8631C88.2243 17.8631 88.8723 17.9651 89.4243 18.1691C89.9883 18.3611 90.4563 18.6251 90.8283 18.9611C91.2003 19.2851 91.4823 19.6391 91.6743 20.0231C91.8663 20.3951 91.9683 20.7611 91.9803 21.1211C91.9803 21.2051 91.9503 21.2891 91.8903 21.3731C91.8303 21.4451 91.7343 21.4811 91.6023 21.4811H90.6483C90.5643 21.4811 90.4743 21.4571 90.3783 21.4091C90.2943 21.3611 90.2283 21.2711 90.1803 21.1391C90.1083 20.6471 89.8323 20.2331 89.3523 19.8971C88.8723 19.5611 88.2483 19.3931 87.4803 19.3931C86.7003 19.3931 86.0643 19.5431 85.5723 19.8431C85.0923 20.1431 84.8523 20.6111 84.8523 21.2471C84.8523 21.6551 84.9663 21.9971 85.1943 22.2731C85.4223 22.5371 85.7823 22.7711 86.2743 22.9751C86.7663 23.1791 87.4083 23.3951 88.2003 23.6231C89.1603 23.8871 89.9463 24.1691 90.5583 24.4691C91.1703 24.7571 91.6203 25.1231 91.9083 25.5671C92.2083 25.9991 92.3583 26.5571 92.3583 27.2411C92.3583 27.9971 92.1603 28.6451 91.7643 29.1851C91.3683 29.7131 90.8103 30.1211 90.0903 30.4091C89.3823 30.6851 88.5423 30.8231 87.5703 30.8231ZM98.1376 30.6431C97.4656 30.6431 96.9196 30.5171 96.4996 30.2651C96.0796 30.0011 95.7736 29.6351 95.5816 29.1671C95.3896 28.6871 95.2936 28.1231 95.2936 27.4751V22.7231H93.8896C93.7696 22.7231 93.6676 22.6871 93.5836 22.6151C93.5116 22.5311 93.4756 22.4291 93.4756 22.3091V21.6971C93.4756 21.5771 93.5116 21.4811 93.5836 21.4091C93.6676 21.3251 93.7696 21.2831 93.8896 21.2831H95.2936V18.2771C95.2936 18.1571 95.3296 18.0611 95.4016 17.9891C95.4856 17.9051 95.5876 17.8631 95.7076 17.8631H96.5536C96.6736 17.8631 96.7696 17.9051 96.8416 17.9891C96.9256 18.0611 96.9676 18.1571 96.9676 18.2771V21.2831H99.1996C99.3196 21.2831 99.4156 21.3251 99.4876 21.4091C99.5716 21.4811 99.6136 21.5771 99.6136 21.6971V22.3091C99.6136 22.4291 99.5716 22.5311 99.4876 22.6151C99.4156 22.6871 99.3196 22.7231 99.1996 22.7231H96.9676V27.3491C96.9676 27.9131 97.0636 28.3571 97.2556 28.6811C97.4476 29.0051 97.7896 29.1671 98.2816 29.1671H99.3796C99.4996 29.1671 99.5956 29.2091 99.6676 29.2931C99.7516 29.3651 99.7936 29.4611 99.7936 29.5811V30.2291C99.7936 30.3491 99.7516 30.4511 99.6676 30.5351C99.5956 30.6071 99.4996 30.6431 99.3796 30.6431H98.1376ZM105.349 30.8231C104.437 30.8231 103.675 30.6491 103.063 30.3011C102.451 29.9531 101.983 29.4731 101.659 28.8611C101.335 28.2371 101.155 27.5291 101.119 26.7371C101.107 26.5331 101.101 26.2751 101.101 25.9631C101.101 25.6391 101.107 25.3811 101.119 25.1891C101.155 24.3851 101.335 23.6771 101.659 23.0651C101.995 22.4531 102.469 21.9731 103.081 21.6251C103.693 21.2771 104.449 21.1031 105.349 21.1031C106.249 21.1031 107.005 21.2771 107.617 21.6251C108.229 21.9731 108.697 22.4531 109.021 23.0651C109.357 23.6771 109.543 24.3851 109.579 25.1891C109.591 25.3811 109.597 25.6391 109.597 25.9631C109.597 26.2751 109.591 26.5331 109.579 26.7371C109.543 27.5291 109.363 28.2371 109.039 28.8611C108.715 29.4731 108.247 29.9531 107.635 30.3011C107.023 30.6491 106.261 30.8231 105.349 30.8231ZM105.349 29.4371C106.093 29.4371 106.687 29.2031 107.131 28.7351C107.575 28.2551 107.815 27.5591 107.851 26.6471C107.863 26.4671 107.869 26.2391 107.869 25.9631C107.869 25.6871 107.863 25.4591 107.851 25.2791C107.815 24.3671 107.575 23.6771 107.131 23.2091C106.687 22.7291 106.093 22.4891 105.349 22.4891C104.605 22.4891 104.005 22.7291 103.549 23.2091C103.105 23.6771 102.871 24.3671 102.847 25.2791C102.835 25.4591 102.829 25.6871 102.829 25.9631C102.829 26.2391 102.835 26.4671 102.847 26.6471C102.871 27.5591 103.105 28.2551 103.549 28.7351C104.005 29.2031 104.605 29.4371 105.349 29.4371ZM112.265 30.6431C112.145 30.6431 112.043 30.6071 111.959 30.5351C111.887 30.4511 111.851 30.3491 111.851 30.2291V21.7151C111.851 21.5951 111.887 21.4931 111.959 21.4091C112.043 21.3251 112.145 21.2831 112.265 21.2831H113.093C113.213 21.2831 113.315 21.3251 113.399 21.4091C113.483 21.4931 113.525 21.5951 113.525 21.7151V22.5071C113.765 22.0991 114.095 21.7931 114.515 21.5891C114.935 21.3851 115.439 21.2831 116.027 21.2831H116.747C116.867 21.2831 116.963 21.3251 117.035 21.4091C117.107 21.4811 117.143 21.5771 117.143 21.6971V22.4351C117.143 22.5551 117.107 22.6511 117.035 22.7231C116.963 22.7951 116.867 22.8311 116.747 22.8311H115.667C115.019 22.8311 114.509 23.0231 114.137 23.4071C113.765 23.7791 113.579 24.2891 113.579 24.9371V30.2291C113.579 30.3491 113.537 30.4511 113.453 30.5351C113.369 30.6071 113.267 30.6431 113.147 30.6431H112.265ZM122.239 30.8231C121.003 30.8231 120.019 30.4451 119.287 29.6891C118.555 28.9211 118.153 27.8771 118.081 26.5571C118.069 26.4011 118.063 26.2031 118.063 25.9631C118.063 25.7111 118.069 25.5071 118.081 25.3511C118.129 24.4991 118.327 23.7551 118.675 23.1191C119.023 22.4711 119.497 21.9731 120.097 21.6251C120.709 21.2771 121.423 21.1031 122.239 21.1031C123.151 21.1031 123.913 21.2951 124.525 21.6791C125.149 22.0631 125.623 22.6091 125.947 23.3171C126.271 24.0251 126.433 24.8531 126.433 25.8011V26.1071C126.433 26.2391 126.391 26.3411 126.307 26.4131C126.235 26.4851 126.139 26.5211 126.019 26.5211H119.791C119.791 26.5331 119.791 26.5571 119.791 26.5931C119.791 26.6291 119.791 26.6591 119.791 26.6831C119.815 27.1751 119.923 27.6371 120.115 28.0691C120.307 28.4891 120.583 28.8311 120.943 29.0951C121.303 29.3591 121.735 29.4911 122.239 29.4911C122.671 29.4911 123.031 29.4251 123.319 29.2931C123.607 29.1611 123.841 29.0171 124.021 28.8611C124.201 28.6931 124.321 28.5671 124.381 28.4831C124.489 28.3271 124.573 28.2371 124.633 28.2131C124.693 28.1771 124.789 28.1591 124.921 28.1591H125.785C125.905 28.1591 126.001 28.1951 126.073 28.2671C126.157 28.3271 126.193 28.4171 126.181 28.5371C126.169 28.7171 126.073 28.9391 125.893 29.2031C125.713 29.4551 125.455 29.7071 125.119 29.9591C124.783 30.2111 124.375 30.4211 123.895 30.5891C123.415 30.7451 122.863 30.8231 122.239 30.8231ZM119.791 25.2791H124.723V25.2251C124.723 24.6851 124.621 24.2051 124.417 23.7851C124.225 23.3651 123.943 23.0351 123.571 22.7951C123.199 22.5431 122.755 22.4171 122.239 22.4171C121.723 22.4171 121.279 22.5431 120.907 22.7951C120.547 23.0351 120.271 23.3651 120.079 23.7851C119.887 24.2051 119.791 24.6851 119.791 25.2251V25.2791Z" fill="white"/>
<path d="M45.0937 13.6431C45.0511 13.6431 45.0111 13.6271 44.9737 13.5951C44.9417 13.5631 44.9257 13.5231 44.9257 13.4751C44.9257 13.4537 44.9311 13.4297 44.9417 13.4031L46.8697 8.24307C46.8857 8.18973 46.9151 8.1444 46.9577 8.10707C47.0057 8.0644 47.0697 8.04307 47.1497 8.04307H48.0217C48.1017 8.04307 48.1631 8.0644 48.2057 8.10707C48.2484 8.1444 48.2804 8.18973 48.3017 8.24307L50.2297 13.4031C50.2351 13.4297 50.2377 13.4537 50.2377 13.4751C50.2377 13.5231 50.2217 13.5631 50.1897 13.5951C50.1577 13.6271 50.1204 13.6431 50.0777 13.6431H49.3817C49.3071 13.6431 49.2511 13.6271 49.2137 13.5951C49.1817 13.5577 49.1604 13.5231 49.1497 13.4911L48.7737 12.5151H46.3977L46.0217 13.4911C46.0111 13.5231 45.9871 13.5577 45.9497 13.5951C45.9177 13.6271 45.8644 13.6431 45.7897 13.6431H45.0937ZM46.6777 11.5951H48.4937L47.5817 9.12307L46.6777 11.5951ZM52.8025 13.6431C52.7172 13.6431 52.6505 13.6217 52.6025 13.5791C52.5545 13.5364 52.5199 13.4831 52.4985 13.4191L50.7865 8.28307C50.7759 8.2564 50.7705 8.2324 50.7705 8.21107C50.7705 8.16307 50.7865 8.12307 50.8185 8.09107C50.8505 8.05907 50.8905 8.04307 50.9385 8.04307H51.6425C51.7172 8.04307 51.7732 8.0644 51.8105 8.10707C51.8532 8.1444 51.8799 8.18173 51.8905 8.21907L53.2425 12.3391L54.5865 8.21907C54.6025 8.18173 54.6292 8.1444 54.6665 8.10707C54.7092 8.0644 54.7679 8.04307 54.8425 8.04307H55.5465C55.5892 8.04307 55.6265 8.05907 55.6585 8.09107C55.6959 8.12307 55.7145 8.16307 55.7145 8.21107C55.7145 8.2324 55.7092 8.2564 55.6985 8.28307L53.9865 13.4191C53.9652 13.4831 53.9305 13.5364 53.8825 13.5791C53.8345 13.6217 53.7679 13.6431 53.6825 13.6431H52.8025ZM56.4031 13.6431C56.3604 13.6431 56.3204 13.6271 56.2831 13.5951C56.2511 13.5631 56.2351 13.5231 56.2351 13.4751C56.2351 13.4537 56.2404 13.4297 56.2511 13.4031L58.1791 8.24307C58.1951 8.18973 58.2244 8.1444 58.2671 8.10707C58.3151 8.0644 58.3791 8.04307 58.4591 8.04307H59.3311C59.4111 8.04307 59.4724 8.0644 59.5151 8.10707C59.5578 8.1444 59.5898 8.18973 59.6111 8.24307L61.5391 13.4031C61.5444 13.4297 61.5471 13.4537 61.5471 13.4751C61.5471 13.5231 61.5311 13.5631 61.4991 13.5951C61.4671 13.6271 61.4298 13.6431 61.3871 13.6431H60.6911C60.6164 13.6431 60.5604 13.6271 60.5231 13.5951C60.4911 13.5577 60.4698 13.5231 60.4591 13.4911L60.0831 12.5151H57.7071L57.3311 13.4911C57.3204 13.5231 57.2964 13.5577 57.2591 13.5951C57.2271 13.6271 57.1738 13.6431 57.0991 13.6431H56.4031ZM57.9871 11.5951H59.8031L58.8911 9.12307L57.9871 11.5951ZM63.086 13.6431C63.0326 13.6431 62.9873 13.6244 62.95 13.5871C62.9126 13.5497 62.894 13.5044 62.894 13.4511V8.23507C62.894 8.18173 62.9126 8.1364 62.95 8.09907C62.9873 8.06173 63.0326 8.04307 63.086 8.04307H63.838C63.8966 8.04307 63.942 8.06173 63.974 8.09907C64.0113 8.1364 64.03 8.18173 64.03 8.23507V13.4511C64.03 13.5044 64.0113 13.5497 63.974 13.5871C63.942 13.6244 63.8966 13.6431 63.838 13.6431H63.086ZM66.0766 13.6431C66.0233 13.6431 65.9779 13.6244 65.9406 13.5871C65.9033 13.5497 65.8846 13.5044 65.8846 13.4511V8.23507C65.8846 8.18173 65.9033 8.1364 65.9406 8.09907C65.9779 8.06173 66.0233 8.04307 66.0766 8.04307H66.8206C66.8739 8.04307 66.9193 8.06173 66.9566 8.09907C66.9939 8.1364 67.0126 8.18173 67.0126 8.23507V12.6911H69.5486C69.6073 12.6911 69.6553 12.7097 69.6926 12.7471C69.7299 12.7844 69.7486 12.8324 69.7486 12.8911V13.4511C69.7486 13.5044 69.7299 13.5497 69.6926 13.5871C69.6553 13.6244 69.6073 13.6431 69.5486 13.6431H66.0766ZM70.7812 13.6431C70.7386 13.6431 70.6986 13.6271 70.6612 13.5951C70.6292 13.5631 70.6132 13.5231 70.6132 13.4751C70.6132 13.4537 70.6186 13.4297 70.6292 13.4031L72.5572 8.24307C72.5732 8.18973 72.6026 8.1444 72.6452 8.10707C72.6932 8.0644 72.7572 8.04307 72.8372 8.04307H73.7092C73.7892 8.04307 73.8506 8.0644 73.8932 8.10707C73.9359 8.1444 73.9679 8.18973 73.9892 8.24307L75.9172 13.4031C75.9226 13.4297 75.9252 13.4537 75.9252 13.4751C75.9252 13.5231 75.9092 13.5631 75.8772 13.5951C75.8452 13.6271 75.8079 13.6431 75.7652 13.6431H75.0692C74.9946 13.6431 74.9386 13.6271 74.9012 13.5951C74.8692 13.5577 74.8479 13.5231 74.8372 13.4911L74.4612 12.5151H72.0852L71.7092 13.4911C71.6986 13.5231 71.6746 13.5577 71.6372 13.5951C71.6052 13.6271 71.5519 13.6431 71.4772 13.6431H70.7812ZM72.3652 11.5951H74.1812L73.2692 9.12307L72.3652 11.5951ZM77.4641 13.6431C77.4108 13.6431 77.3654 13.6244 77.3281 13.5871C77.2908 13.5497 77.2721 13.5044 77.2721 13.4511V8.24307C77.2721 8.1844 77.2908 8.1364 77.3281 8.09907C77.3654 8.06173 77.4108 8.04307 77.4641 8.04307H79.7841C80.2161 8.04307 80.5681 8.10973 80.8401 8.24307C81.1121 8.37107 81.3121 8.54973 81.4401 8.77907C81.5734 9.0084 81.6401 9.27507 81.6401 9.57907C81.6401 9.78173 81.6028 9.9604 81.5281 10.1151C81.4588 10.2644 81.3708 10.3871 81.2641 10.4831C81.1628 10.5791 81.0614 10.6537 80.9601 10.7071C81.1681 10.8031 81.3521 10.9631 81.5121 11.1871C81.6721 11.4111 81.7521 11.6777 81.7521 11.9871C81.7521 12.3071 81.6801 12.5924 81.5361 12.8431C81.3921 13.0937 81.1788 13.2911 80.8961 13.4351C80.6134 13.5737 80.2641 13.6431 79.8481 13.6431H77.4641ZM78.3841 12.7951H79.7201C80.0081 12.7951 80.2268 12.7177 80.3761 12.5631C80.5254 12.4031 80.6001 12.2111 80.6001 11.9871C80.6001 11.7524 80.5228 11.5577 80.3681 11.4031C80.2188 11.2484 80.0028 11.1711 79.7201 11.1711H78.3841V12.7951ZM78.3841 10.3391H79.6401C79.9228 10.3391 80.1334 10.2724 80.2721 10.1391C80.4161 10.0004 80.4881 9.82173 80.4881 9.60307C80.4881 9.37907 80.4161 9.20573 80.2721 9.08307C80.1334 8.95507 79.9228 8.89107 79.6401 8.89107H78.3841V10.3391ZM83.5485 13.6431C83.4951 13.6431 83.4498 13.6244 83.4125 13.5871C83.3751 13.5497 83.3565 13.5044 83.3565 13.4511V8.23507C83.3565 8.18173 83.3751 8.1364 83.4125 8.09907C83.4498 8.06173 83.4951 8.04307 83.5485 8.04307H84.2925C84.3458 8.04307 84.3911 8.06173 84.4285 8.09907C84.4658 8.1364 84.4845 8.18173 84.4845 8.23507V12.6911H87.0205C87.0791 12.6911 87.1271 12.7097 87.1645 12.7471C87.2018 12.7844 87.2205 12.8324 87.2205 12.8911V13.4511C87.2205 13.5044 87.2018 13.5497 87.1645 13.5871C87.1271 13.6244 87.0791 13.6431 87.0205 13.6431H83.5485ZM88.7891 13.6431C88.7358 13.6431 88.6904 13.6244 88.6531 13.5871C88.6158 13.5497 88.5971 13.5044 88.5971 13.4511V8.24307C88.5971 8.1844 88.6158 8.1364 88.6531 8.09907C88.6904 8.06173 88.7358 8.04307 88.7891 8.04307H92.3091C92.3678 8.04307 92.4158 8.06173 92.4531 8.09907C92.4904 8.1364 92.5091 8.1844 92.5091 8.24307V8.77107C92.5091 8.8244 92.4904 8.86973 92.4531 8.90707C92.4158 8.9444 92.3678 8.96307 92.3091 8.96307H89.6771V10.3791H92.1331C92.1918 10.3791 92.2398 10.3977 92.2771 10.4351C92.3144 10.4671 92.3331 10.5124 92.3331 10.5711V11.0671C92.3331 11.1257 92.3144 11.1737 92.2771 11.2111C92.2398 11.2431 92.1918 11.2591 92.1331 11.2591H89.6771V12.7231H92.3731C92.4318 12.7231 92.4798 12.7417 92.5171 12.7791C92.5544 12.8164 92.5731 12.8644 92.5731 12.9231V13.4511C92.5731 13.5044 92.5544 13.5497 92.5171 13.5871C92.4798 13.6244 92.4318 13.6431 92.3731 13.6431H88.7891ZM98.7538 13.7231C98.2791 13.7231 97.8711 13.6457 97.5298 13.4911C97.1884 13.3311 96.9218 13.0884 96.7298 12.7631C96.5378 12.4324 96.4338 12.0217 96.4178 11.5311C96.4124 11.3017 96.4098 11.0751 96.4098 10.8511C96.4098 10.6271 96.4124 10.3977 96.4178 10.1631C96.4338 9.67773 96.5404 9.2724 96.7378 8.94707C96.9351 8.62173 97.2044 8.3764 97.5458 8.21107C97.8924 8.04573 98.2951 7.96307 98.7538 7.96307C99.2125 7.96307 99.6151 8.04573 99.9618 8.21107C100.308 8.3764 100.58 8.62173 100.778 8.94707C100.975 9.2724 101.082 9.67773 101.098 10.1631C101.108 10.3977 101.114 10.6271 101.114 10.8511C101.114 11.0751 101.108 11.3017 101.098 11.5311C101.082 12.0217 100.978 12.4324 100.786 12.7631C100.594 13.0884 100.324 13.3311 99.9778 13.4911C99.6364 13.6457 99.2284 13.7231 98.7538 13.7231ZM98.7538 12.8031C99.1005 12.8031 99.3831 12.7017 99.6018 12.4991C99.8204 12.2911 99.9378 11.9551 99.9538 11.4911C99.9644 11.2564 99.9698 11.0404 99.9698 10.8431C99.9698 10.6404 99.9644 10.4244 99.9538 10.1951C99.9431 9.88573 99.8845 9.63507 99.7778 9.44307C99.6765 9.24573 99.5378 9.1044 99.3618 9.01907C99.1858 8.9284 98.9831 8.88307 98.7538 8.88307C98.5298 8.88307 98.3298 8.9284 98.1538 9.01907C97.9778 9.1044 97.8364 9.24573 97.7298 9.44307C97.6284 9.63507 97.5724 9.88573 97.5618 10.1951C97.5564 10.4244 97.5538 10.6404 97.5538 10.8431C97.5538 11.0404 97.5564 11.2564 97.5618 11.4911C97.5778 11.9551 97.6951 12.2911 97.9138 12.4991C98.1325 12.7017 98.4124 12.8031 98.7538 12.8031ZM102.956 13.6431C102.903 13.6431 102.858 13.6244 102.82 13.5871C102.783 13.5497 102.764 13.5044 102.764 13.4511V8.24307C102.764 8.1844 102.783 8.1364 102.82 8.09907C102.858 8.06173 102.903 8.04307 102.956 8.04307H103.572C103.647 8.04307 103.7 8.06173 103.732 8.09907C103.77 8.13107 103.794 8.15507 103.804 8.17107L106.108 11.7551V8.24307C106.108 8.1844 106.124 8.1364 106.156 8.09907C106.194 8.06173 106.242 8.04307 106.3 8.04307H106.972C107.031 8.04307 107.079 8.06173 107.116 8.09907C107.154 8.1364 107.172 8.1844 107.172 8.24307V13.4431C107.172 13.5017 107.154 13.5497 107.116 13.5871C107.079 13.6244 107.034 13.6431 106.98 13.6431H106.356C106.282 13.6431 106.228 13.6244 106.196 13.5871C106.164 13.5497 106.14 13.5257 106.124 13.5151L103.828 10.0111V13.4511C103.828 13.5044 103.81 13.5497 103.772 13.5871C103.735 13.6244 103.687 13.6431 103.628 13.6431H102.956ZM112.677 13.6431C112.624 13.6431 112.579 13.6244 112.541 13.5871C112.504 13.5497 112.485 13.5044 112.485 13.4511V9.02707H111.005C110.952 9.02707 110.907 9.0084 110.869 8.97107C110.832 8.93373 110.813 8.8884 110.813 8.83507V8.24307C110.813 8.1844 110.832 8.1364 110.869 8.09907C110.907 8.06173 110.952 8.04307 111.005 8.04307H115.085C115.144 8.04307 115.192 8.06173 115.229 8.09907C115.267 8.1364 115.285 8.1844 115.285 8.24307V8.83507C115.285 8.8884 115.267 8.93373 115.229 8.97107C115.192 9.0084 115.144 9.02707 115.085 9.02707H113.613V13.4511C113.613 13.5044 113.595 13.5497 113.557 13.5871C113.52 13.6244 113.472 13.6431 113.413 13.6431H112.677ZM116.889 13.6431C116.836 13.6431 116.79 13.6271 116.753 13.5951C116.716 13.5577 116.697 13.5097 116.697 13.4511V8.24307C116.697 8.1844 116.716 8.1364 116.753 8.09907C116.79 8.06173 116.836 8.04307 116.889 8.04307H117.617C117.676 8.04307 117.721 8.06173 117.753 8.09907C117.79 8.1364 117.809 8.1844 117.809 8.24307V10.3071H120.169V8.24307C120.169 8.1844 120.188 8.1364 120.225 8.09907C120.262 8.06173 120.308 8.04307 120.361 8.04307H121.081C121.14 8.04307 121.188 8.06173 121.225 8.09907C121.262 8.1364 121.281 8.1844 121.281 8.24307V13.4511C121.281 13.5044 121.262 13.5497 121.225 13.5871C121.188 13.6244 121.14 13.6431 121.081 13.6431H120.361C120.308 13.6431 120.262 13.6244 120.225 13.5871C120.188 13.5497 120.169 13.5044 120.169 13.4511V11.3071H117.809V13.4511C117.809 13.5044 117.79 13.5497 117.753 13.5871C117.721 13.6244 117.676 13.6431 117.617 13.6431H116.889ZM123.317 13.6431C123.264 13.6431 123.219 13.6244 123.181 13.5871C123.144 13.5497 123.125 13.5044 123.125 13.4511V8.24307C123.125 8.1844 123.144 8.1364 123.181 8.09907C123.219 8.06173 123.264 8.04307 123.317 8.04307H126.837C126.896 8.04307 126.944 8.06173 126.981 8.09907C127.019 8.1364 127.037 8.1844 127.037 8.24307V8.77107C127.037 8.8244 127.019 8.86973 126.981 8.90707C126.944 8.9444 126.896 8.96307 126.837 8.96307H124.205V10.3791H126.661C126.72 10.3791 126.768 10.3977 126.805 10.4351C126.843 10.4671 126.861 10.5124 126.861 10.5711V11.0671C126.861 11.1257 126.843 11.1737 126.805 11.2111C126.768 11.2431 126.72 11.2591 126.661 11.2591H124.205V12.7231H126.901C126.96 12.7231 127.008 12.7417 127.045 12.7791C127.083 12.8164 127.101 12.8644 127.101 12.9231V13.4511C127.101 13.5044 127.083 13.5497 127.045 13.5871C127.008 13.6244 126.96 13.6431 126.901 13.6431H123.317Z" fill="white"/>
</svg>
