<svg width="24" height="24" viewBox="0 0 24 24" fill="none" xmlns="http://www.w3.org/2000/svg">
<path d="M2 12.5C2 8.729 2 6.843 3.172 5.672C4.343 4.5 6.229 4.5 10 4.5H14C17.771 4.5 19.657 4.5 20.828 5.672C22 6.843 22 8.729 22 12.5V14.5C22 18.271 22 20.157 20.828 21.328C19.657 22.5 17.771 22.5 14 22.5H10C6.229 22.5 4.343 22.5 3.172 21.328C2 20.157 2 18.271 2 14.5V12.5Z" stroke="#006FFD" stroke-width="1.5"/>
<path opacity="0.5" d="M7 4.5V3M17 4.5V3M2.5 9.5H21.5" stroke="#006FFD" stroke-width="1.5" stroke-linecap="round"/>
<path d="M18 17.5C18 17.7652 17.8946 18.0196 17.7071 18.2071C17.5196 18.3946 17.2652 18.5 17 18.5C16.7348 18.5 16.4804 18.3946 16.2929 18.2071C16.1054 18.0196 16 17.7652 16 17.5C16 17.2348 16.1054 16.9804 16.2929 16.7929C16.4804 16.6054 16.7348 16.5 17 16.5C17.2652 16.5 17.5196 16.6054 17.7071 16.7929C17.8946 16.9804 18 17.2348 18 17.5ZM18 13.5C18 13.7652 17.8946 14.0196 17.7071 14.2071C17.5196 14.3946 17.2652 14.5 17 14.5C16.7348 14.5 16.4804 14.3946 16.2929 14.2071C16.1054 14.0196 16 13.7652 16 13.5C16 13.2348 16.1054 12.9804 16.2929 12.7929C16.4804 12.6054 16.7348 12.5 17 12.5C17.2652 12.5 17.5196 12.6054 17.7071 12.7929C17.8946 12.9804 18 13.2348 18 13.5ZM13 17.5C13 17.7652 12.8946 18.0196 12.7071 18.2071C12.5196 18.3946 12.2652 18.5 12 18.5C11.7348 18.5 11.4804 18.3946 11.2929 18.2071C11.1054 18.0196 11 17.7652 11 17.5C11 17.2348 11.1054 16.9804 11.2929 16.7929C11.4804 16.6054 11.7348 16.5 12 16.5C12.2652 16.5 12.5196 16.6054 12.7071 16.7929C12.8946 16.9804 13 17.2348 13 17.5ZM13 13.5C13 13.7652 12.8946 14.0196 12.7071 14.2071C12.5196 14.3946 12.2652 14.5 12 14.5C11.7348 14.5 11.4804 14.3946 11.2929 14.2071C11.1054 14.0196 11 13.7652 11 13.5C11 13.2348 11.1054 12.9804 11.2929 12.7929C11.4804 12.6054 11.7348 12.5 12 12.5C12.2652 12.5 12.5196 12.6054 12.7071 12.7929C12.8946 12.9804 13 13.2348 13 13.5ZM8 17.5C8 17.7652 7.89464 18.0196 7.70711 18.2071C7.51957 18.3946 7.26522 18.5 7 18.5C6.73478 18.5 6.48043 18.3946 6.29289 18.2071C6.10536 18.0196 6 17.7652 6 17.5C6 17.2348 6.10536 16.9804 6.29289 16.7929C6.48043 16.6054 6.73478 16.5 7 16.5C7.26522 16.5 7.51957 16.6054 7.70711 16.7929C7.89464 16.9804 8 17.2348 8 17.5ZM8 13.5C8 13.7652 7.89464 14.0196 7.70711 14.2071C7.51957 14.3946 7.26522 14.5 7 14.5C6.73478 14.5 6.48043 14.3946 6.29289 14.2071C6.10536 14.0196 6 13.7652 6 13.5C6 13.2348 6.10536 12.9804 6.29289 12.7929C6.48043 12.6054 6.73478 12.5 7 12.5C7.26522 12.5 7.51957 12.6054 7.70711 12.7929C7.89464 12.9804 8 13.2348 8 13.5Z" fill="#006FFD"/>
</svg>
