<svg width="20" height="18" viewBox="0 0 20 18" fill="none" xmlns="http://www.w3.org/2000/svg">
<path fill-rule="evenodd" clip-rule="evenodd" d="M0 4.75V7.25H20V4.75H0ZM19.9298 3.25H0.0701979C0.421253 1.39935 2.04721 0 4 0H16C17.9528 0 19.5787 1.39935 19.9298 3.25ZM0 8.75H20V14C20 16.2091 18.2091 18 16 18H4C1.79086 18 0 16.2091 0 14V8.75ZM4 13.25C3.58579 13.25 3.25 13.5858 3.25 14C3.25 14.4142 3.58579 14.75 4 14.75H6C6.41421 14.75 6.75 14.4142 6.75 14C6.75 13.5858 6.41421 13.25 6 13.25H4Z" fill="#15CC69"/>
</svg>
