<svg width="54" height="52" viewBox="0 0 54 52" fill="none" xmlns="http://www.w3.org/2000/svg">
<path d="M27 4.33337C39.4264 4.33337 49.5 14.0339 49.5 26C49.5 37.9662 39.4264 47.6667 27 47.6667C23.309 47.6667 19.7441 46.8086 16.5505 45.193L6.89711 47.6133C5.87497 47.8696 4.83053 47.2796 4.5643 46.2953C4.48197 45.9909 4.48196 45.6713 4.56423 45.3671L7.07602 36.0756C5.3937 32.997 4.5 29.5594 4.5 26C4.5 14.0339 14.5736 4.33337 27 4.33337ZM29.8163 28.1667H19.6875L19.4585 28.1815C18.6348 28.2891 18 28.969 18 29.7917C18 30.6144 18.6348 31.2943 19.4585 31.4019L19.6875 31.4167H29.8163L30.0453 31.4019C30.869 31.2943 31.5038 30.6144 31.5038 29.7917C31.5038 28.969 30.869 28.2891 30.0453 28.1815L29.8163 28.1667ZM34.3125 20.5834H19.6875L19.4585 20.5982C18.6348 20.7058 18 21.3857 18 22.2084C18 23.031 18.6348 23.7109 19.4585 23.8185L19.6875 23.8334H34.3125L34.5415 23.8185C35.3652 23.7109 36 23.031 36 22.2084C36 21.3857 35.3652 20.7058 34.5415 20.5982L34.3125 20.5834Z" fill="white"/>
</svg>
