<svg width="90" height="72" viewBox="0 0 90 72" fill="none" xmlns="http://www.w3.org/2000/svg">
<path fill-rule="evenodd" clip-rule="evenodd" d="M22.6801 48.2391H55.4401C55.6255 48.2391 55.8062 48.2191 55.9801 48.1811C56.1541 48.2191 56.3348 48.2391 56.5201 48.2391H75.2401C76.6319 48.2391 77.7601 47.1108 77.7601 45.7191C77.7601 44.3273 76.6319 43.1991 75.2401 43.1991H73.0801C71.6884 43.1991 70.5601 42.0708 70.5601 40.6791C70.5601 39.2873 71.6884 38.1591 73.0801 38.1591H79.9201C81.3119 38.1591 82.4401 37.0308 82.4401 35.6391C82.4401 34.2473 81.3119 33.1191 79.9201 33.1191H72.0001C73.3919 33.1191 74.5201 31.9908 74.5201 30.5991C74.5201 29.2073 73.3919 28.0791 72.0001 28.0791H48.9601C50.3519 28.0791 51.4801 26.9508 51.4801 25.5591C51.4801 24.1673 50.3519 23.0391 48.9601 23.0391H28.4401C27.0484 23.0391 25.9201 24.1673 25.9201 25.5591C25.9201 26.9508 27.0484 28.0791 28.4401 28.0791H14.0401C12.6484 28.0791 11.5201 29.2073 11.5201 30.5991C11.5201 31.9908 12.6484 33.1191 14.0401 33.1191H23.0401C24.4319 33.1191 25.5601 34.2473 25.5601 35.6391C25.5601 37.0308 24.4319 38.1591 23.0401 38.1591H8.64012C7.24836 38.1591 6.12012 39.2873 6.12012 40.6791C6.12012 42.0708 7.24836 43.1991 8.64012 43.1991H22.6801C21.2884 43.1991 20.1601 44.3273 20.1601 45.7191C20.1601 47.1108 21.2884 48.2391 22.6801 48.2391ZM81.3601 48.2391C82.7519 48.2391 83.8801 47.1108 83.8801 45.7191C83.8801 44.3273 82.7519 43.1991 81.3601 43.1991C79.9684 43.1991 78.8401 44.3273 78.8401 45.7191C78.8401 47.1108 79.9684 48.2391 81.3601 48.2391Z" fill="#F7F8F9"/>
<path fill-rule="evenodd" clip-rule="evenodd" d="M33.12 50.3995C28.7459 50.3995 25.2 46.9342 25.2 42.6595C25.2 38.3848 28.7459 34.9195 33.12 34.9195C33.306 34.9195 33.4905 34.9258 33.6733 34.9381C33.5463 34.2311 33.48 33.5031 33.48 32.7595C33.48 25.9996 38.96 20.5195 45.7199 20.5195C51.1167 20.5195 55.6977 24.0122 57.3259 28.8605C57.7116 28.8202 58.1033 28.7995 58.5 28.7995C64.564 28.7995 69.4799 33.6349 69.4799 39.5995C69.4799 45.2661 65.0431 49.9414 59.3999 50.3917V50.3995H39.0628H33.12ZM37.4385 50.3995H34.9312H37.4385Z" fill="white"/>
<path d="M37.4385 50.3995H34.9312M33.12 50.3995C28.7459 50.3995 25.2 46.9342 25.2 42.6595C25.2 38.3848 28.7459 34.9195 33.12 34.9195C33.306 34.9195 33.4905 34.9258 33.6733 34.9381C33.5463 34.2311 33.48 33.5031 33.48 32.7595C33.48 25.9996 38.96 20.5195 45.72 20.5195C51.1167 20.5195 55.6977 24.0122 57.3259 28.8605C57.7116 28.8202 58.1033 28.7995 58.4999 28.7995C64.564 28.7995 69.4799 33.6349 69.4799 39.5995C69.4799 45.2661 65.0431 49.9414 59.3999 50.3917V50.3995H39.0628H33.12Z" stroke="#006FFD" stroke-width="2.5" stroke-linecap="round"/>
<path fill-rule="evenodd" clip-rule="evenodd" d="M41.9803 23.163C41.9803 34.7634 52.4277 44.3222 65.8799 45.6127C64.1941 47.6857 61.5907 49.092 58.6248 49.3129V49.3197H34.4674C31.5364 49.3197 26.6399 48.0848 26.6399 42.6771C26.6399 37.2694 30.4466 36.0345 34.4674 36.0345C34.6384 36.0345 34.808 36.0399 34.976 36.0505C34.8593 35.4437 34.8387 34.8183 34.7983 34.1807C34.5253 29.874 36.4042 24.4462 41.9868 22.6797C41.9824 22.8407 41.9803 23.0017 41.9803 23.163ZM45.7618 41.3125C44.6678 41.3125 43.781 42.1889 43.781 43.2698C43.781 44.3508 44.6678 45.2271 45.7618 45.2271C46.8557 45.2271 47.7425 44.3508 47.7425 43.2698C47.7425 42.1889 46.8557 41.3125 45.7618 41.3125Z" fill="#F7F8F9"/>
<path d="M45.8999 45.3584C46.9934 45.3584 47.8799 44.472 47.8799 43.3784C47.8799 42.2849 46.9934 41.3984 45.8999 41.3984C44.8064 41.3984 43.9199 42.2849 43.9199 43.3784C43.9199 44.472 44.8064 45.3584 45.8999 45.3584Z" stroke="#006FFD" stroke-width="2.5"/>
<path d="M40.3201 39.239L42.8401 37.2614L40.3201 35.3789" stroke="#006FFD" stroke-width="2.5" stroke-linecap="round" stroke-linejoin="round"/>
<path d="M51.48 39.239L48.96 37.2614L51.48 35.3789" stroke="#006FFD" stroke-width="2.5" stroke-linecap="round" stroke-linejoin="round"/>
<path d="M49.3199 24.1211C51.6631 24.7412 53.5133 26.5737 54.1584 28.9066" stroke="#006FFD" stroke-width="2.5" stroke-linecap="round"/>
<path d="M56.88 17.9998C57.4765 17.9998 57.96 17.5163 57.96 16.9198C57.96 16.3234 57.4765 15.8398 56.88 15.8398C56.2836 15.8398 55.8 16.3234 55.8 16.9198C55.8 17.5163 56.2836 17.9998 56.88 17.9998Z" stroke="#006FFD" stroke-width="2"/>
<path d="M68.04 23.7616C68.6364 23.7616 69.12 23.278 69.12 22.6816C69.12 22.0851 68.6364 21.6016 68.04 21.6016C67.4435 21.6016 66.96 22.0851 66.96 22.6816C66.96 23.278 67.4435 23.7616 68.04 23.7616Z" fill="#006FFD"/>
<path d="M59.6726 20.793L62.6816 23.8019M62.7273 20.793L59.7183 23.8019L62.7273 20.793Z" stroke="#006FFD" stroke-width="2.5" stroke-linecap="round" stroke-linejoin="round"/>
<path d="M25.7053 27.2148L27.8653 29.3748M27.8653 27.2148L25.7053 29.3748L27.8653 27.2148Z" stroke="#006FFD" stroke-width="2.5" stroke-linecap="round" stroke-linejoin="round"/>
<path d="M30.6 24.8397C31.1965 24.8397 31.68 24.3562 31.68 23.7597C31.68 23.1632 31.1965 22.6797 30.6 22.6797C30.0036 22.6797 29.52 23.1632 29.52 23.7597C29.52 24.3562 30.0036 24.8397 30.6 24.8397Z" fill="#006FFD"/>
</svg>
