<svg width="24" height="24" viewBox="0 0 24 24" fill="none" xmlns="http://www.w3.org/2000/svg">
<path d="M17.2996 6.3C17.2071 6.2073 17.0972 6.13375 16.9763 6.08357C16.8553 6.03339 16.7256 6.00756 16.5946 6.00756C16.4637 6.00756 16.334 6.03339 16.213 6.08357C16.092 6.13375 15.9822 6.2073 15.8896 6.3L10.2496 11.94L11.6596 13.35L17.2996 7.7C17.6796 7.32 17.6796 6.68 17.2996 6.3ZM21.5396 6.29L11.6596 16.17L8.17965 12.7C7.99267 12.513 7.73907 12.408 7.47465 12.408C7.21022 12.408 6.95663 12.513 6.76965 12.7C6.58267 12.887 6.47763 13.1406 6.47763 13.405C6.47763 13.6694 6.58267 13.923 6.76965 14.11L10.9496 18.29C11.3396 18.68 11.9696 18.68 12.3596 18.29L22.9496 7.71C23.0424 7.61749 23.1159 7.5076 23.1661 7.38662C23.2163 7.26565 23.2421 7.13597 23.2421 7.005C23.2421 6.87403 23.2163 6.74435 23.1661 6.62337C23.1159 6.5024 23.0424 6.39251 22.9496 6.3H22.9396C22.8494 6.2056 22.7412 6.13029 22.6213 6.07853C22.5014 6.02677 22.3723 5.99961 22.2418 5.99868C22.1112 5.99775 21.9818 6.02305 21.8611 6.0731C21.7405 6.12314 21.6312 6.1969 21.5396 6.29ZM1.11965 14.12L5.29965 18.3C5.68965 18.69 6.31965 18.69 6.70965 18.3L7.40965 17.6L2.52965 12.7C2.43713 12.6073 2.32725 12.5337 2.20627 12.4836C2.0853 12.4334 1.95562 12.4076 1.82465 12.4076C1.69368 12.4076 1.564 12.4334 1.44302 12.4836C1.32205 12.5337 1.21216 12.6073 1.11965 12.7C0.729648 13.09 0.729648 13.73 1.11965 14.12Z" fill="#292D32"/>
</svg>
