<svg width="16" height="16" viewBox="0 0 16 16" fill="none" xmlns="http://www.w3.org/2000/svg">
<path d="M6.00069 10.8L3.66736 8.46663C3.60634 8.40487 3.53367 8.35584 3.45357 8.32237C3.37346 8.2889 3.28751 8.27167 3.20069 8.27167C3.11387 8.27167 3.02792 8.2889 2.94781 8.32237C2.8677 8.35584 2.79504 8.40487 2.73402 8.46663C2.67226 8.52765 2.62323 8.60031 2.58976 8.68042C2.5563 8.76053 2.53906 8.84648 2.53906 8.9333C2.53906 9.02011 2.5563 9.10607 2.58976 9.18617C2.62323 9.26628 2.67226 9.33895 2.73402 9.39996L5.52736 12.1933C5.78736 12.4533 6.20736 12.4533 6.46736 12.1933L13.534 5.1333C13.5958 5.07228 13.6448 4.99962 13.6783 4.91951C13.7117 4.8394 13.729 4.75345 13.729 4.66663C13.729 4.57981 13.7117 4.49386 13.6783 4.41375C13.6448 4.33365 13.5958 4.26098 13.534 4.19996C13.473 4.1382 13.4003 4.08917 13.3202 4.0557C13.2401 4.02224 13.1542 4.005 13.0674 4.005C12.9805 4.005 12.8946 4.02224 12.8145 4.0557C12.7344 4.08917 12.6617 4.1382 12.6007 4.19996L6.00069 10.8Z" fill="#A6A6A6"/>
</svg>
