<svg width="24" height="24" viewBox="0 0 24 24" fill="none" xmlns="http://www.w3.org/2000/svg">
<g clip-path="url(#clip0_4632_1404)">
<path d="M18 2.475C16.2375 1.3875 14.2125 0.75 12 0.75V2.475H18Z" fill="#FF3E55"/>
<path d="M12 4.2H20.1C19.4625 3.5625 18.75 2.9625 18 2.475H12V4.2Z" fill="#FDFDFD"/>
<path d="M12 5.925H21.4875C21.075 5.2875 20.625 4.725 20.1375 4.2H12V5.925Z" fill="#FF3E55"/>
<path d="M12 7.65H22.3875C22.125 7.05 21.825 6.45 21.4875 5.925H12V7.65Z" fill="#FDFDFD"/>
<path d="M12 9.375H22.95C22.8 8.775 22.6125 8.2125 22.3875 7.65H12V9.375Z" fill="#FF3E55"/>
<path d="M12 11.1375H23.2125C23.175 10.5375 23.0625 9.975 22.95 9.4125H12V11.1375Z" fill="#FDFDFD"/>
<path d="M23.2125 11.1375H12V12H0.75C0.75 12.3 0.75 12.5625 0.7875 12.8625H23.2125C23.25 12.5625 23.25 12.3 23.25 12C23.25 11.7 23.25 11.4 23.2125 11.1375Z" fill="#FF3E55"/>
<path d="M1.0501 14.5875H22.9501C23.1001 14.025 23.1751 13.4625 23.2126 12.8625H0.787598C0.825098 13.425 0.900098 14.025 1.0501 14.5875Z" fill="#FDFDFD"/>
<path d="M1.6123 16.3125H22.3873C22.6123 15.75 22.7998 15.1875 22.9498 14.5875H1.0498C1.1998 15.1875 1.3873 15.75 1.6123 16.3125Z" fill="#FF3E55"/>
<path d="M2.5123 18.0375H21.4873C21.8248 17.475 22.1248 16.9125 22.3873 16.3125H1.6123C1.8748 16.9125 2.1748 17.475 2.5123 18.0375Z" fill="#FDFDFD"/>
<path d="M3.8627 19.7625H20.1377C20.6252 19.2375 21.1127 18.6375 21.4877 18.0375H2.5127C2.8877 18.675 3.3752 19.2375 3.8627 19.7625Z" fill="#FF3E55"/>
<path d="M5.9623 21.4875H18.0373C18.8248 21 19.4998 20.4 20.1373 19.7625H3.8623C4.4998 20.4375 5.2123 21 5.9623 21.4875Z" fill="#FDFDFD"/>
<path d="M11.9999 23.25C14.2124 23.25 16.2749 22.6125 18.0374 21.4875H5.9624C7.7249 22.6125 9.7874 23.25 11.9999 23.25Z" fill="#FF3E55"/>
<path d="M6 2.475C5.2125 2.9625 4.5 3.5625 3.8625 4.2C3.3375 4.725 2.8875 5.325 2.5125 5.925C2.175 6.4875 1.8375 7.05 1.6125 7.65C1.3875 8.2125 1.2 8.775 1.05 9.375C0.9 9.9375 0.825 10.5 0.7875 11.1C0.75 11.4 0.75 11.7 0.75 12H12V0.75C9.7875 0.75 7.7625 1.3875 6 2.475Z" fill="#428BC1"/>
<path d="M9.3749 1.125L9.5624 1.6875H10.1249L9.6749 2.0625L9.8249 2.625L9.3749 2.2875L8.9249 2.625L9.0749 2.0625L8.6249 1.6875H9.1874L9.3749 1.125ZM10.8749 3.375L11.0624 3.9375H11.6249L11.1749 4.3125L11.3249 4.875L10.8749 4.5375L10.4249 4.875L10.5749 4.3125L10.1249 3.9375H10.6874L10.8749 3.375ZM7.8749 3.375L8.0624 3.9375H8.6249L8.1749 4.3125L8.3249 4.875L7.8749 4.5375L7.4249 4.875L7.5749 4.3125L7.1249 3.9375H7.6874L7.8749 3.375ZM9.3749 5.625L9.5624 6.1875H10.1249L9.6749 6.5625L9.8249 7.125L9.3749 6.7875L8.9249 7.125L9.0749 6.5625L8.6249 6.1875H9.1874L9.3749 5.625ZM6.3749 5.625L6.5624 6.1875H7.1249L6.6749 6.5625L6.8249 7.125L6.3749 6.7875L5.9249 7.125L6.0749 6.5625L5.6249 6.1875H6.1874L6.3749 5.625ZM3.3749 5.625L3.5624 6.1875H4.1249L3.6749 6.5625L3.8249 7.125L3.3749 6.7875L2.9249 7.125L3.0749 6.5625L2.6249 6.1875H3.1874L3.3749 5.625ZM10.8749 7.875L11.0624 8.4375H11.6249L11.1749 8.8125L11.3249 9.375L10.8749 9.0375L10.4249 9.375L10.5749 8.8125L10.1249 8.4375H10.6874L10.8749 7.875ZM7.8749 7.875L8.0624 8.4375H8.6249L8.1749 8.8125L8.3249 9.375L7.8749 9.0375L7.4249 9.375L7.5749 8.8125L7.1249 8.4375H7.6874L7.8749 7.875ZM4.8749 7.875L5.0624 8.4375H5.6249L5.1749 8.8125L5.3249 9.375L4.8749 9.0375L4.4249 9.375L4.5749 8.8125L4.1249 8.4375H4.6874L4.8749 7.875ZM9.3749 10.125L9.5624 10.6875H10.1249L9.6749 11.0625L9.8249 11.625L9.3749 11.2875L8.9249 11.625L9.0749 11.0625L8.6249 10.6875H9.1874L9.3749 10.125ZM6.3749 10.125L6.5624 10.6875H7.1249L6.6749 11.0625L6.8249 11.625L6.3749 11.2875L5.9249 11.625L6.0749 11.0625L5.6249 10.6875H6.1874L6.3749 10.125ZM3.3749 10.125L3.5624 10.6875H4.1249L3.6749 11.0625L3.8249 11.625L3.3749 11.2875L2.9249 11.625L3.0749 11.0625L2.6249 10.6875H3.1874L3.3749 10.125ZM4.4249 4.875L4.8749 4.5375L5.3249 4.875L5.1374 4.3125L5.5874 3.9375H5.0249L4.8749 3.375L4.6874 3.9375H4.1624L4.6124 4.275L4.4249 4.875ZM1.4249 9.375L1.8749 9.0375L2.3249 9.375L2.1374 8.8125L2.5874 8.4375H2.0624L1.8749 7.875L1.6874 8.4375H1.3124C1.3124 8.475 1.2749 8.5125 1.2749 8.55L1.5749 8.775L1.4249 9.375Z" fill="#FDFDFD"/>
</g>
<defs>
<clipPath id="clip0_4632_1404">
<rect width="24" height="24" fill="white"/>
</clipPath>
</defs>
</svg>
