<svg width="44" height="44" viewBox="0 0 44 44" fill="none" xmlns="http://www.w3.org/2000/svg">
<path d="M39.6 20.5333C39.6024 23.3559 38.925 26.1376 37.625 28.643C36.3251 31.1484 34.4409 33.3039 32.1318 34.9272L35.2 41.0667H8.80003L11.8683 34.9272C9.39697 33.1873 7.41533 30.8404 6.11427 28.1124C4.81321 25.3844 4.23657 22.3674 4.4399 19.3519C4.64324 16.3364 5.61969 13.424 7.27521 10.8954C8.93072 8.36681 11.2095 6.30713 13.892 4.91479C16.5746 3.52245 19.5705 2.84437 22.5911 2.94587C25.6117 3.04737 28.5553 3.92503 31.1384 5.49431C33.7214 7.06358 35.8568 9.27159 37.3388 11.9056C38.8208 14.5397 39.5996 17.511 39.6 20.5333ZM36.0742 20.9H26.3854C26.3062 21.8387 25.9336 22.6952 25.3587 23.3757L32.211 30.228C34.6116 27.7058 35.9886 24.381 36.0742 20.9ZM31.6947 30.7443L24.8424 23.892C24.4357 24.2373 23.9696 24.5057 23.4667 24.684V34.54C26.5536 34.2194 29.4472 32.8845 31.6947 30.7443ZM17.6147 20.9H7.92589C8.01148 24.381 9.38845 27.7058 11.7891 30.228L18.6414 23.3757C18.049 22.6779 17.69 21.8122 17.6147 20.9ZM12.3054 30.7443C14.5532 32.8835 17.4468 34.2173 20.5334 34.5371V24.6811C20.0307 24.5037 19.5646 24.2363 19.1576 23.892L12.3054 30.7443ZM36.0742 20.1667C35.9886 16.6857 34.6116 13.3609 32.211 10.8387L25.3587 17.6909C25.9336 18.3715 26.3062 19.228 26.3854 20.1667H36.0742ZM31.6947 10.3224C29.1725 7.92175 25.8477 6.54478 22.3667 6.45919V16.148C23.3054 16.2272 24.1619 16.5997 24.8424 17.1747L31.6947 10.3224ZM21.6334 16.148V6.45919C18.1524 6.54478 14.8276 7.92175 12.3054 10.3224L19.1576 17.1747C19.8382 16.5997 20.6947 16.2272 21.6334 16.148ZM18.6414 17.6909L11.7891 10.8387C9.38845 13.3609 8.01148 16.6857 7.92589 20.1667H17.6147C17.6939 19.228 18.0664 18.3715 18.6414 17.6909Z" fill="#006FFD"/>
</svg>
