<svg width="20" height="20" viewBox="0 0 20 20" fill="none" xmlns="http://www.w3.org/2000/svg">
<path d="M9.95768 14.9998C10.2493 14.9998 10.496 14.899 10.6977 14.6973C10.8993 14.4957 10.9999 14.2493 10.9993 13.9582C10.9993 13.6665 10.8988 13.4198 10.6977 13.2182C10.4966 13.0165 10.2499 12.9159 9.95768 12.9165C9.66602 12.9165 9.41963 13.0173 9.21852 13.219C9.0174 13.4207 8.91657 13.6671 8.91602 13.9582C8.91602 14.2498 9.01685 14.4965 9.21852 14.6982C9.42018 14.8998 9.66657 15.0004 9.95768 14.9998ZM9.20768 11.7915H10.7493C10.7493 11.3332 10.8016 10.9721 10.906 10.7082C11.0105 10.4443 11.3055 10.0832 11.791 9.62484C12.1521 9.26373 12.4368 8.91984 12.6452 8.59317C12.8535 8.2665 12.9577 7.87428 12.9577 7.4165C12.9577 6.63873 12.673 6.0415 12.1035 5.62484C11.5341 5.20817 10.8605 4.99984 10.0827 4.99984C9.29102 4.99984 8.64879 5.20817 8.15602 5.62484C7.66324 6.0415 7.31935 6.5415 7.12435 7.12484L8.49935 7.6665C8.56879 7.4165 8.72518 7.14567 8.96851 6.854C9.21185 6.56234 9.58324 6.4165 10.0827 6.4165C10.5271 6.4165 10.8605 6.53817 11.0827 6.7815C11.3049 7.02484 11.416 7.29206 11.416 7.58317C11.416 7.86095 11.3327 8.1215 11.166 8.36484C10.9993 8.60817 10.791 8.83373 10.541 9.0415C9.9299 9.58317 9.5549 9.99289 9.41602 10.2707C9.27713 10.5484 9.20768 11.0554 9.20768 11.7915ZM9.99935 18.3332C8.84657 18.3332 7.76324 18.1146 6.74935 17.6773C5.73546 17.2401 4.85352 16.6462 4.10352 15.8957C3.35352 15.1457 2.7599 14.2637 2.32268 13.2498C1.88546 12.2359 1.66657 11.1526 1.66602 9.99984C1.66602 8.84706 1.8849 7.76373 2.32268 6.74984C2.76046 5.73595 3.35407 4.854 4.10352 4.104C4.85352 3.354 5.73546 2.76039 6.74935 2.32317C7.76324 1.88595 8.84657 1.66706 9.99935 1.6665C11.1521 1.6665 12.2355 1.88539 13.2493 2.32317C14.2632 2.76095 15.1452 3.35456 15.8952 4.104C16.6452 4.854 17.2391 5.73595 17.6768 6.74984C18.1146 7.76373 18.3332 8.84706 18.3327 9.99984C18.3327 11.1526 18.1138 12.2359 17.676 13.2498C17.2382 14.2637 16.6446 15.1457 15.8952 15.8957C15.1452 16.6457 14.2632 17.2396 13.2493 17.6773C12.2355 18.1151 11.1521 18.3337 9.99935 18.3332ZM9.99935 16.6665C11.8605 16.6665 13.4368 16.0207 14.7285 14.729C16.0202 13.4373 16.666 11.8609 16.666 9.99984C16.666 8.13873 16.0202 6.56234 14.7285 5.27067C13.4368 3.979 11.8605 3.33317 9.99935 3.33317C8.13824 3.33317 6.56185 3.979 5.27018 5.27067C3.97852 6.56234 3.33268 8.13873 3.33268 9.99984C3.33268 11.8609 3.97852 13.4373 5.27018 14.729C6.56185 16.0207 8.13824 16.6665 9.99935 16.6665Z" fill="#A6A6A6"/>
</svg>
