<svg width="44" height="44" viewBox="0 0 44 44" fill="none" xmlns="http://www.w3.org/2000/svg">
<path fill-rule="evenodd" clip-rule="evenodd" d="M24.6582 8.94703H30.2865C37.0515 8.94703 40.3515 12.5587 40.3332 19.9654V28.8937C40.3332 35.9704 35.9698 40.3337 28.8748 40.3337H15.1065C8.04817 40.3337 3.6665 35.9704 3.6665 28.8754V15.107C3.6665 7.51703 7.03984 3.66703 13.6948 3.66703H16.5915C18.2983 3.6487 19.8915 4.43703 20.9365 5.77536L22.5498 7.92036C23.0632 8.56203 23.8332 8.94703 24.6582 8.94703ZM13.5115 28.032H30.4882C31.2398 28.032 31.8448 27.4087 31.8448 26.657C31.8448 25.887 31.2398 25.282 30.4882 25.282H13.5115C12.7415 25.282 12.1365 25.887 12.1365 26.657C12.1365 27.4087 12.7415 28.032 13.5115 28.032Z" fill="#BABABA"/>
</svg>
