<svg width="44" height="44" viewBox="0 0 44 44" fill="none" xmlns="http://www.w3.org/2000/svg">
<path d="M1.83325 40.3333C1.83325 41.3233 2.65825 42.1667 3.66659 42.1667H27.4999C28.5266 42.1667 29.3333 41.3233 29.3333 40.3333V38.5H1.83325V40.3333ZM15.5833 16.5C8.70825 16.5 1.83325 20.1667 1.83325 27.5H29.3333C29.3333 20.1667 22.4583 16.5 15.5833 16.5ZM6.63658 23.8333C8.67158 20.9917 12.9983 20.1667 15.5833 20.1667C18.1683 20.1667 22.4949 20.9917 24.5299 23.8333H6.63658ZM1.83325 31.1667H29.3333V34.8333H1.83325V31.1667ZM32.9999 9.16668V1.83334H29.3333V9.16668H20.1666L20.5883 12.8333H38.1149L35.5482 38.5H32.9999V42.1667H36.1532C37.6932 42.1667 38.9583 40.975 39.1416 39.4717L42.1666 9.16668H32.9999Z" fill="#006FFD"/>
</svg>
