<svg width="116" height="30" viewBox="0 0 116 27" fill="none" xmlns="http://www.w3.org/2000/svg">
<path d="M58.1656 14.6957C55.8074 14.6957 53.8853 16.4816 53.8853 18.9412C53.8853 21.3859 55.8074 23.1867 58.1656 23.1867C60.5248 23.1867 62.4469 21.3859 62.4469 18.9412C62.4459 16.4816 60.5238 14.6957 58.1656 14.6957ZM58.1656 21.5157C56.8732 21.5157 55.7592 20.4546 55.7592 18.9422C55.7592 17.4139 56.8742 16.3688 58.1656 16.3688C59.458 16.3688 60.5719 17.4139 60.5719 18.9422C60.5719 20.4536 59.458 21.5157 58.1656 21.5157ZM48.827 14.6957C46.4688 14.6957 44.5467 16.4816 44.5467 18.9412C44.5467 21.3859 46.4688 23.1867 48.827 23.1867C51.1862 23.1867 53.1083 21.3859 53.1083 18.9412C53.1083 16.4816 51.1862 14.6957 48.827 14.6957ZM48.827 21.5157C47.5346 21.5157 46.4206 20.4546 46.4206 18.9422C46.4206 17.4139 47.5356 16.3688 48.827 16.3688C50.1194 16.3688 51.2333 17.4139 51.2333 18.9422C51.2343 20.4536 50.1194 21.5157 48.827 21.5157ZM37.7197 15.9994V17.8002H42.0491C41.9198 18.8134 41.5809 19.5531 41.0635 20.0672C40.4339 20.6941 39.4483 21.3859 37.7197 21.3859C35.0547 21.3859 32.9712 19.2467 32.9712 16.5934C32.9712 13.94 35.0547 11.8008 37.7197 11.8008C39.1575 11.8008 40.2073 12.3638 40.9823 13.0876L42.2587 11.8168C41.1758 10.7876 39.739 10 37.7197 10C34.0691 10 31 12.9588 31 16.5934C31 20.228 34.0691 23.1867 37.7197 23.1867C39.6899 23.1867 41.1768 22.5429 42.3389 21.337C43.534 20.1471 43.906 18.474 43.906 17.1234C43.906 16.7062 43.8739 16.3198 43.8088 15.9984H37.7197V15.9994ZM83.1474 17.3979C82.7925 16.4496 81.7096 14.6957 79.4968 14.6957C77.3 14.6957 75.4742 16.4167 75.4742 18.9412C75.4742 21.321 77.284 23.1867 79.7064 23.1867C81.6605 23.1867 82.7915 21.9968 83.2607 21.3051L81.8069 20.3398C81.3226 21.0475 80.6599 21.5137 79.7064 21.5137C78.7538 21.5137 78.0751 21.0794 77.6389 20.227L83.3409 17.8791L83.1474 17.3979ZM77.3321 18.8134C77.284 17.1723 78.6085 16.3368 79.562 16.3368C80.3049 16.3368 80.9346 16.7072 81.1451 17.2372L77.3321 18.8134ZM72.6969 22.9302H74.5698V10.4512H72.6969V22.9302ZM69.6268 15.645H69.5626C69.1425 15.1459 68.3344 14.6957 67.3177 14.6957C65.1851 14.6957 63.2309 16.5614 63.2309 18.9582C63.2309 21.338 65.1851 23.1877 67.3177 23.1877C68.3354 23.1877 69.1425 22.7375 69.5626 22.2234H69.6268V22.8344C69.6268 24.4585 68.7545 25.327 67.3498 25.327C66.2028 25.327 65.4919 24.5074 65.2011 23.8156L63.5698 24.4914C64.0381 25.6164 65.2813 27 67.3498 27C69.5466 27 71.4045 25.7133 71.4045 22.5768V14.9543H69.6278V15.645H69.6268ZM67.4791 21.5157C66.1867 21.5157 65.1049 20.4376 65.1049 18.9582C65.1049 17.4618 66.1867 16.3688 67.4791 16.3688C68.7545 16.3688 69.7561 17.4618 69.7561 18.9582C69.7561 20.4376 68.7545 21.5157 67.4791 21.5157ZM91.9246 10.4512H87.4417V22.9302H89.3117V18.2025H91.9236C93.997 18.2025 96.0364 16.7082 96.0364 14.3274C96.0364 11.9466 93.998 10.4512 91.9246 10.4512ZM91.9727 16.4656H89.3117V12.1881H91.9727C93.3714 12.1881 94.1655 13.3411 94.1655 14.3274C94.1655 15.2937 93.3714 16.4656 91.9727 16.4656ZM103.535 14.6738C102.181 14.6738 100.778 15.2677 100.197 16.5844L101.858 17.2742C102.213 16.5844 102.874 16.3588 103.567 16.3588C104.535 16.3588 105.518 16.9368 105.534 17.9639V18.0927C105.196 17.9001 104.47 17.6116 103.583 17.6116C101.794 17.6116 99.9708 18.5908 99.9708 20.4206C99.9708 22.0907 101.439 23.1658 103.083 23.1658C104.34 23.1658 105.034 22.6038 105.469 21.9449H105.533V22.9082H107.34V18.1237C107.341 15.9096 105.679 14.6738 103.535 14.6738ZM103.309 21.5127C102.697 21.5127 101.842 21.2072 101.842 20.4526C101.842 19.4893 102.907 19.1199 103.826 19.1199C104.647 19.1199 105.035 19.2966 105.534 19.5372C105.389 20.6941 104.389 21.5127 103.309 21.5127ZM113.92 14.9463L111.775 20.3567H111.711L109.485 14.9463H107.47L110.807 22.5079L108.904 26.7145H110.855L116 14.9463H113.92ZM97.0691 22.9302H98.939V10.4512H97.0691V22.9302Z" fill="#292D32"/>
<path d="M37.0897 3.23301C37.0897 4.03505 36.8408 4.67343 36.3418 5.15006C35.7756 5.71666 35.0367 5.99996 34.1292 5.99996C33.2598 5.99996 32.5199 5.71283 31.9126 5.13857C31.3042 4.56336 31 3.85129 31 3.00139C31 2.15054 31.3042 1.43846 31.9126 0.864208C32.5199 0.288996 33.2598 0.00187009 34.1292 0.00187009C34.5609 0.00187009 34.9735 0.0822652 35.365 0.242099C35.7576 0.40289 36.0718 0.616322 36.3067 0.88335L35.7776 1.38869C35.3791 0.934076 34.8299 0.707245 34.1282 0.707245C33.4937 0.707245 32.9456 0.91972 32.4828 1.34467C32.02 1.76962 31.7891 2.32186 31.7891 3.00043C31.7891 3.67901 32.02 4.23125 32.4828 4.6562C32.9456 5.08115 33.4937 5.29362 34.1282 5.29362C34.8008 5.29362 35.362 5.08019 35.8108 4.65237C36.1019 4.37386 36.2706 3.98624 36.3157 3.48951H34.1282V2.79945H37.0466C37.0767 2.94971 37.0897 3.09423 37.0897 3.23301Z" fill="#292D32"/>
<path d="M41.7179 0.834592H38.9752V2.65498H41.4488V3.34504H38.9752V5.16542H41.7179V5.87176H38.2012V0.129217H41.7179V0.834592Z" fill="#292D32"/>
<path d="M44.9815 5.87176H44.2075V0.834592H42.5249V0.129217H46.6641V0.834592H44.9815V5.87176Z" fill="#292D32"/>
<path d="M49.6587 5.87176V0.129217H50.4327V5.87176H49.6587Z" fill="#292D32"/>
<path d="M53.8653 5.87176H53.0913V0.834592H51.4087V0.129217H55.5478V0.834592H53.8653V5.87176Z" fill="#292D32"/>
<path d="M63.3832 5.13C62.7909 5.71 62.055 6 61.1746 6C60.2941 6 59.5583 5.71 58.9669 5.13C58.3746 4.55001 58.0795 3.83985 58.0795 3.00048C58.0795 2.16111 58.3746 1.45095 58.9669 0.870952C59.5583 0.290955 60.2941 0 61.1746 0C62.05 0 62.7848 0.291912 63.3792 0.87478C63.9735 1.45765 64.2706 2.1659 64.2706 3.00048C64.2706 3.83985 63.9745 4.55001 63.3832 5.13ZM59.5382 4.64859C59.9839 5.07928 60.529 5.29367 61.1746 5.29367C61.8201 5.29367 62.3662 5.07832 62.8109 4.64859C63.2567 4.2179 63.4806 3.66853 63.4806 3.00048C63.4806 2.33243 63.2567 1.78306 62.8109 1.35237C62.3662 0.921678 61.8201 0.70729 61.1746 0.70729C60.529 0.70729 59.9839 0.922635 59.5382 1.35237C59.0934 1.78306 58.8696 2.33243 58.8696 3.00048C58.8696 3.66853 59.0934 4.2179 59.5382 4.64859Z" fill="#292D32"/>
<path d="M65.3569 5.87176V0.129217H66.2986L69.226 4.59596H69.2591L69.226 3.48956V0.129217H70V5.87176H69.1918L66.1289 1.18776H66.0958L66.1289 2.29415V5.87176H65.3569Z" fill="#292D32"/>
<path d="M37.0897 3.23301C37.0897 4.03505 36.8408 4.67343 36.3418 5.15006C35.7756 5.71666 35.0367 5.99996 34.1292 5.99996C33.2598 5.99996 32.5199 5.71283 31.9126 5.13857C31.3042 4.56336 31 3.85129 31 3.00139C31 2.15054 31.3042 1.43846 31.9126 0.864208C32.5199 0.288996 33.2598 0.00187009 34.1292 0.00187009C34.5609 0.00187009 34.9735 0.0822652 35.365 0.242099C35.7576 0.40289 36.0718 0.616322 36.3067 0.88335L35.7776 1.38869C35.3791 0.934076 34.8299 0.707245 34.1282 0.707245C33.4937 0.707245 32.9456 0.91972 32.4828 1.34467C32.02 1.76962 31.7891 2.32186 31.7891 3.00043C31.7891 3.67901 32.02 4.23125 32.4828 4.6562C32.9456 5.08115 33.4937 5.29362 34.1282 5.29362C34.8008 5.29362 35.362 5.08019 35.8108 4.65237C36.1019 4.37386 36.2706 3.98624 36.3157 3.48951H34.1282V2.79945H37.0466C37.0767 2.94971 37.0897 3.09423 37.0897 3.23301Z" stroke="#292D32"/>
<path d="M41.7179 0.834592H38.9752V2.65498H41.4488V3.34504H38.9752V5.16542H41.7179V5.87176H38.2012V0.129217H41.7179V0.834592Z" stroke="#292D32"/>
<path d="M44.9815 5.87176H44.2075V0.834592H42.5249V0.129217H46.6641V0.834592H44.9815V5.87176Z" stroke="#292D32"/>
<path d="M49.6587 5.87176V0.129217H50.4327V5.87176H49.6587Z" stroke="#292D32"/>
<path d="M53.8653 5.87176H53.0913V0.834592H51.4087V0.129217H55.5478V0.834592H53.8653V5.87176Z" stroke="#292D32"/>
<path d="M63.3832 5.13C62.7909 5.71 62.055 6 61.1746 6C60.2941 6 59.5583 5.71 58.9669 5.13C58.3746 4.55001 58.0795 3.83985 58.0795 3.00048C58.0795 2.16111 58.3746 1.45095 58.9669 0.870952C59.5583 0.290955 60.2941 0 61.1746 0C62.05 0 62.7848 0.291912 63.3792 0.87478C63.9735 1.45765 64.2706 2.1659 64.2706 3.00048C64.2706 3.83985 63.9745 4.55001 63.3832 5.13ZM59.5382 4.64859C59.9839 5.07928 60.529 5.29367 61.1746 5.29367C61.8201 5.29367 62.3662 5.07832 62.8109 4.64859C63.2567 4.2179 63.4806 3.66853 63.4806 3.00048C63.4806 2.33243 63.2567 1.78306 62.8109 1.35237C62.3662 0.921678 61.8201 0.70729 61.1746 0.70729C60.529 0.70729 59.9839 0.922635 59.5382 1.35237C59.0934 1.78306 58.8696 2.33243 58.8696 3.00048C58.8696 3.66853 59.0934 4.2179 59.5382 4.64859Z" stroke="#292D32"/>
<path d="M65.3569 5.87176V0.129217H66.2986L69.226 4.59596H69.2591L69.226 3.48956V0.129217H70V5.87176H69.1918L66.1289 1.18776H66.0958L66.1289 2.29415V5.87176H65.3569Z" stroke="#292D32"/>
<path fill-rule="evenodd" clip-rule="evenodd" d="M0.166469 0.872905C0.0590504 1.13607 0 1.45429 0 1.82163V24.1777C0 24.2162 0.00064407 24.254 0.00192004 24.2914L11.8077 12.4991L0.166469 0.872905ZM0.307477 25.3996C0.354083 25.4719 0.40545 25.5381 0.461201 25.598C0.919411 26.0913 1.67745 26.152 2.53112 25.6607L16.7666 17.4516L12.5153 13.2058L0.353351 25.3538L0.307477 25.3996ZM17.6644 16.935L21.9563 14.4604C23.3479 13.6568 23.3479 12.3437 21.9563 11.541L17.0274 8.69883L13.2228 12.4991L17.6644 16.935ZM16.1303 8.18151L2.53112 0.339725C1.87943 -0.0360868 1.28347 -0.0890688 0.834089 0.126362L12.5152 11.7924L16.1303 8.18151Z" fill="#292D32"/>
</svg>
