<svg width="145" height="40" viewBox="0 0 145 40" fill="none" xmlns="http://www.w3.org/2000/svg">
<rect width="145" height="40" rx="10" fill="#1F1F1F"/>
<path fill-rule="evenodd" clip-rule="evenodd" d="M28.6872 16.8753L25.6917 19.8609L25.6905 19.8597L15.8124 10.0272C16.0501 10.0276 16.2834 10.0904 16.4888 10.2093L28.6872 16.8753ZM15.2754 30.1594L24.745 20.7223L25.2133 20.2617V20.2556L25.3316 20.1376L15.2838 10.1338C15.0155 10.2896 14.8494 10.6502 14.8494 11.1223V11.4203L14.8494 11.427V28.8697L14.8494 28.8764V29.1806C14.853 29.6526 15.013 29.9869 15.2754 30.1594ZM25.6917 20.4156L15.7823 30.2912C16.0311 30.2953 16.276 30.2306 16.49 30.1043L28.7125 23.4203L25.6917 20.4156ZM29.047 17.0718L33.1063 19.2942H33.1064C33.9632 19.7627 33.9632 20.5378 33.1051 21.0086L29.0699 23.225L25.9697 20.1388L29.047 17.0718Z" fill="white"/>
<path d="M45.3013 30.8231C44.2453 30.8231 43.3453 30.6251 42.6013 30.2291C41.8693 29.8331 41.3053 29.2751 40.9093 28.5551C40.5253 27.8351 40.3093 26.9891 40.2613 26.0171C40.2493 25.4891 40.2433 24.9311 40.2433 24.3431C40.2433 23.7431 40.2493 23.1731 40.2613 22.6331C40.3093 21.6611 40.5253 20.8211 40.9093 20.1131C41.3053 19.4051 41.8753 18.8531 42.6193 18.4571C43.3633 18.0611 44.2573 17.8631 45.3013 17.8631C46.1533 17.8631 46.8913 17.9831 47.5153 18.2231C48.1393 18.4631 48.6493 18.7691 49.0453 19.1411C49.4533 19.5011 49.7533 19.8791 49.9453 20.2751C50.1493 20.6711 50.2573 21.0191 50.2693 21.3191C50.2813 21.4271 50.2513 21.5171 50.1793 21.5891C50.1073 21.6491 50.0113 21.6791 49.8913 21.6791H48.8293C48.7093 21.6791 48.6193 21.6551 48.5593 21.6071C48.5113 21.5591 48.4633 21.4751 48.4153 21.3551C48.3073 21.0431 48.1273 20.7371 47.8753 20.4371C47.6353 20.1371 47.3053 19.8911 46.8853 19.6991C46.4773 19.4951 45.9493 19.3931 45.3013 19.3931C44.3533 19.3931 43.5853 19.6511 42.9973 20.1671C42.4213 20.6831 42.1093 21.5351 42.0613 22.7231C42.0253 23.7911 42.0253 24.8591 42.0613 25.9271C42.1093 27.1271 42.4273 27.9911 43.0153 28.5191C43.6033 29.0351 44.3713 29.2931 45.3193 29.2931C45.9553 29.2931 46.5193 29.1791 47.0113 28.9511C47.5153 28.7111 47.9113 28.3451 48.1993 27.8531C48.4873 27.3611 48.6313 26.7371 48.6313 25.9811V25.2251H45.9313C45.8113 25.2251 45.7093 25.1891 45.6253 25.1171C45.5533 25.0331 45.5173 24.9251 45.5173 24.7931V24.2171C45.5173 24.0851 45.5533 23.9831 45.6253 23.9111C45.7093 23.8271 45.8113 23.7851 45.9313 23.7851H49.9993C50.1313 23.7851 50.2333 23.8271 50.3053 23.9111C50.3773 23.9831 50.4133 24.0851 50.4133 24.2171V25.9451C50.4133 26.9291 50.2093 27.7871 49.8013 28.5191C49.4053 29.2511 48.8233 29.8211 48.0553 30.2291C47.2873 30.6251 46.3693 30.8231 45.3013 30.8231ZM56.5813 30.8231C55.6693 30.8231 54.9073 30.6491 54.2953 30.3011C53.6833 29.9531 53.2153 29.4731 52.8913 28.8611C52.5673 28.2371 52.3873 27.5291 52.3513 26.7371C52.3393 26.5331 52.3333 26.2751 52.3333 25.9631C52.3333 25.6391 52.3393 25.3811 52.3513 25.1891C52.3873 24.3851 52.5673 23.6771 52.8913 23.0651C53.2273 22.4531 53.7013 21.9731 54.3133 21.6251C54.9253 21.2771 55.6813 21.1031 56.5813 21.1031C57.4813 21.1031 58.2373 21.2771 58.8493 21.6251C59.4613 21.9731 59.9293 22.4531 60.2533 23.0651C60.5893 23.6771 60.7753 24.3851 60.8113 25.1891C60.8233 25.3811 60.8293 25.6391 60.8293 25.9631C60.8293 26.2751 60.8233 26.5331 60.8113 26.7371C60.7753 27.5291 60.5953 28.2371 60.2713 28.8611C59.9473 29.4731 59.4793 29.9531 58.8673 30.3011C58.2553 30.6491 57.4933 30.8231 56.5813 30.8231ZM56.5813 29.4371C57.3253 29.4371 57.9193 29.2031 58.3633 28.7351C58.8073 28.2551 59.0473 27.5591 59.0833 26.6471C59.0953 26.4671 59.1013 26.2391 59.1013 25.9631C59.1013 25.6871 59.0953 25.4591 59.0833 25.2791C59.0473 24.3671 58.8073 23.6771 58.3633 23.2091C57.9193 22.7291 57.3253 22.4891 56.5813 22.4891C55.8373 22.4891 55.2373 22.7291 54.7813 23.2091C54.3373 23.6771 54.1033 24.3671 54.0793 25.2791C54.0673 25.4591 54.0613 25.6871 54.0613 25.9631C54.0613 26.2391 54.0673 26.4671 54.0793 26.6471C54.1033 27.5591 54.3373 28.2551 54.7813 28.7351C55.2373 29.2031 55.8373 29.4371 56.5813 29.4371ZM66.9172 30.8231C66.0052 30.8231 65.2432 30.6491 64.6312 30.3011C64.0192 29.9531 63.5512 29.4731 63.2272 28.8611C62.9032 28.2371 62.7232 27.5291 62.6872 26.7371C62.6752 26.5331 62.6692 26.2751 62.6692 25.9631C62.6692 25.6391 62.6752 25.3811 62.6872 25.1891C62.7232 24.3851 62.9032 23.6771 63.2272 23.0651C63.5632 22.4531 64.0372 21.9731 64.6492 21.6251C65.2612 21.2771 66.0172 21.1031 66.9172 21.1031C67.8172 21.1031 68.5732 21.2771 69.1852 21.6251C69.7972 21.9731 70.2652 22.4531 70.5892 23.0651C70.9252 23.6771 71.1112 24.3851 71.1472 25.1891C71.1592 25.3811 71.1652 25.6391 71.1652 25.9631C71.1652 26.2751 71.1592 26.5331 71.1472 26.7371C71.1112 27.5291 70.9312 28.2371 70.6072 28.8611C70.2832 29.4731 69.8152 29.9531 69.2032 30.3011C68.5912 30.6491 67.8292 30.8231 66.9172 30.8231ZM66.9172 29.4371C67.6612 29.4371 68.2552 29.2031 68.6992 28.7351C69.1432 28.2551 69.3832 27.5591 69.4192 26.6471C69.4312 26.4671 69.4372 26.2391 69.4372 25.9631C69.4372 25.6871 69.4312 25.4591 69.4192 25.2791C69.3832 24.3671 69.1432 23.6771 68.6992 23.2091C68.2552 22.7291 67.6612 22.4891 66.9172 22.4891C66.1732 22.4891 65.5732 22.7291 65.1172 23.2091C64.6732 23.6771 64.4392 24.3671 64.4152 25.2791C64.4032 25.4591 64.3972 25.6871 64.3972 25.9631C64.3972 26.2391 64.4032 26.4671 64.4152 26.6471C64.4392 27.5591 64.6732 28.2551 65.1172 28.7351C65.5732 29.2031 66.1732 29.4371 66.9172 29.4371ZM77.2532 34.6031C76.4372 34.6031 75.7652 34.4951 75.2372 34.2791C74.7212 34.0631 74.3132 33.7991 74.0132 33.4871C73.7252 33.1871 73.5152 32.8811 73.3832 32.5691C73.2632 32.2691 73.1972 32.0291 73.1852 31.8491C73.1732 31.7291 73.2092 31.6271 73.2932 31.5431C73.3892 31.4591 73.4912 31.4171 73.5992 31.4171H74.4632C74.5712 31.4171 74.6612 31.4411 74.7332 31.4891C74.8052 31.5371 74.8652 31.6391 74.9132 31.7951C74.9852 31.9751 75.0932 32.1731 75.2372 32.3891C75.3812 32.6171 75.6032 32.8091 75.9032 32.9651C76.2032 33.1331 76.6232 33.2171 77.1632 33.2171C77.7272 33.2171 78.2012 33.1391 78.5852 32.9831C78.9692 32.8391 79.2572 32.5751 79.4492 32.1911C79.6532 31.8191 79.7552 31.3031 79.7552 30.6431V29.4191C79.4672 29.7911 79.0892 30.1031 78.6212 30.3551C78.1532 30.5951 77.5652 30.7151 76.8572 30.7151C76.1852 30.7151 75.6092 30.6011 75.1292 30.3731C74.6492 30.1331 74.2532 29.8151 73.9412 29.4191C73.6412 29.0111 73.4132 28.5491 73.2572 28.0331C73.1132 27.5171 73.0292 26.9771 73.0052 26.4131C72.9932 26.0771 72.9932 25.7471 73.0052 25.4231C73.0292 24.8591 73.1132 24.3191 73.2572 23.8031C73.4132 23.2871 73.6412 22.8251 73.9412 22.4171C74.2532 22.0091 74.6492 21.6911 75.1292 21.4631C75.6092 21.2231 76.1852 21.1031 76.8572 21.1031C77.5772 21.1031 78.1712 21.2411 78.6392 21.5171C79.1192 21.7811 79.5092 22.1051 79.8092 22.4891V21.7151C79.8092 21.5951 79.8452 21.4931 79.9172 21.4091C80.0012 21.3251 80.1032 21.2831 80.2232 21.2831H81.0512C81.1712 21.2831 81.2732 21.3251 81.3572 21.4091C81.4412 21.4931 81.4832 21.5951 81.4832 21.7151V30.4451C81.4832 31.2491 81.3452 31.9631 81.0692 32.5871C80.8052 33.2111 80.3612 33.7031 79.7372 34.0631C79.1252 34.4231 78.2972 34.6031 77.2532 34.6031ZM77.2172 29.2751C77.8172 29.2751 78.2972 29.1371 78.6572 28.8611C79.0292 28.5851 79.2992 28.2371 79.4672 27.8171C79.6472 27.3971 79.7432 26.9711 79.7552 26.5391C79.7672 26.3711 79.7732 26.1671 79.7732 25.9271C79.7732 25.6751 79.7672 25.4651 79.7552 25.2971C79.7432 24.8651 79.6472 24.4391 79.4672 24.0191C79.2992 23.5991 79.0292 23.2511 78.6572 22.9751C78.2972 22.6991 77.8172 22.5611 77.2172 22.5611C76.6172 22.5611 76.1372 22.6991 75.7772 22.9751C75.4172 23.2391 75.1592 23.5931 75.0032 24.0371C74.8472 24.4691 74.7572 24.9371 74.7332 25.4411C74.7212 25.7531 74.7212 26.0711 74.7332 26.3951C74.7572 26.8991 74.8472 27.3731 75.0032 27.8171C75.1592 28.2491 75.4172 28.6031 75.7772 28.8791C76.1372 29.1431 76.6172 29.2751 77.2172 29.2751ZM84.5914 30.6431C84.4714 30.6431 84.3694 30.6071 84.2854 30.5351C84.2134 30.4511 84.1774 30.3491 84.1774 30.2291V18.2771C84.1774 18.1571 84.2134 18.0611 84.2854 17.9891C84.3694 17.9051 84.4714 17.8631 84.5914 17.8631H85.4374C85.5694 17.8631 85.6714 17.9051 85.7434 17.9891C85.8154 18.0611 85.8514 18.1571 85.8514 18.2771V30.2291C85.8514 30.3491 85.8154 30.4511 85.7434 30.5351C85.6714 30.6071 85.5694 30.6431 85.4374 30.6431H84.5914ZM92.2623 30.8231C91.0263 30.8231 90.0423 30.4451 89.3103 29.6891C88.5783 28.9211 88.1763 27.8771 88.1043 26.5571C88.0923 26.4011 88.0863 26.2031 88.0863 25.9631C88.0863 25.7111 88.0923 25.5071 88.1043 25.3511C88.1523 24.4991 88.3503 23.7551 88.6983 23.1191C89.0463 22.4711 89.5203 21.9731 90.1203 21.6251C90.7323 21.2771 91.4463 21.1031 92.2623 21.1031C93.1743 21.1031 93.9363 21.2951 94.5483 21.6791C95.1723 22.0631 95.6463 22.6091 95.9703 23.3171C96.2943 24.0251 96.4563 24.8531 96.4563 25.8011V26.1071C96.4563 26.2391 96.4143 26.3411 96.3303 26.4131C96.2583 26.4851 96.1623 26.5211 96.0423 26.5211H89.8143C89.8143 26.5331 89.8143 26.5571 89.8143 26.5931C89.8143 26.6291 89.8143 26.6591 89.8143 26.6831C89.8383 27.1751 89.9463 27.6371 90.1383 28.0691C90.3303 28.4891 90.6063 28.8311 90.9663 29.0951C91.3263 29.3591 91.7583 29.4911 92.2623 29.4911C92.6943 29.4911 93.0543 29.4251 93.3423 29.2931C93.6303 29.1611 93.8643 29.0171 94.0443 28.8611C94.2243 28.6931 94.3443 28.5671 94.4043 28.4831C94.5123 28.3271 94.5963 28.2371 94.6563 28.2131C94.7163 28.1771 94.8123 28.1591 94.9443 28.1591H95.8083C95.9283 28.1591 96.0243 28.1951 96.0963 28.2671C96.1803 28.3271 96.2163 28.4171 96.2043 28.5371C96.1923 28.7171 96.0963 28.9391 95.9163 29.2031C95.7363 29.4551 95.4783 29.7071 95.1423 29.9591C94.8063 30.2111 94.3983 30.4211 93.9183 30.5891C93.4383 30.7451 92.8863 30.8231 92.2623 30.8231ZM89.8143 25.2791H94.7463V25.2251C94.7463 24.6851 94.6443 24.2051 94.4403 23.7851C94.2483 23.3651 93.9663 23.0351 93.5943 22.7951C93.2223 22.5431 92.7783 22.4171 92.2623 22.4171C91.7463 22.4171 91.3023 22.5431 90.9303 22.7951C90.5703 23.0351 90.2943 23.3651 90.1023 23.7851C89.9103 24.2051 89.8143 24.6851 89.8143 25.2251V25.2791ZM103.669 30.6431C103.537 30.6431 103.435 30.6071 103.363 30.5351C103.291 30.4511 103.255 30.3491 103.255 30.2291V18.4751C103.255 18.3431 103.291 18.2411 103.363 18.1691C103.435 18.0851 103.537 18.0431 103.669 18.0431H108.241C109.129 18.0431 109.897 18.1871 110.545 18.4751C111.205 18.7631 111.715 19.1951 112.075 19.7711C112.435 20.3351 112.615 21.0431 112.615 21.8951C112.615 22.7471 112.435 23.4551 112.075 24.0191C111.715 24.5831 111.205 25.0091 110.545 25.2971C109.897 25.5851 109.129 25.7291 108.241 25.7291H105.055V30.2291C105.055 30.3491 105.013 30.4511 104.929 30.5351C104.857 30.6071 104.755 30.6431 104.623 30.6431H103.669ZM105.037 24.2171H108.151C109.039 24.2171 109.705 24.0191 110.149 23.6231C110.593 23.2271 110.815 22.6511 110.815 21.8951C110.815 21.1511 110.599 20.5751 110.167 20.1671C109.735 19.7591 109.063 19.5551 108.151 19.5551H105.037V24.2171ZM115.002 30.6431C114.882 30.6431 114.78 30.6071 114.696 30.5351C114.624 30.4511 114.588 30.3491 114.588 30.2291V18.2771C114.588 18.1571 114.624 18.0611 114.696 17.9891C114.78 17.9051 114.882 17.8631 115.002 17.8631H115.848C115.98 17.8631 116.082 17.9051 116.154 17.9891C116.226 18.0611 116.262 18.1571 116.262 18.2771V30.2291C116.262 30.3491 116.226 30.4511 116.154 30.5351C116.082 30.6071 115.98 30.6431 115.848 30.6431H115.002ZM121.557 30.8231C120.957 30.8231 120.411 30.7031 119.919 30.4631C119.427 30.2231 119.031 29.8991 118.731 29.4911C118.431 29.0831 118.281 28.6211 118.281 28.1051C118.281 27.2771 118.617 26.6171 119.289 26.1251C119.961 25.6331 120.837 25.3091 121.917 25.1531L124.599 24.7751V24.2531C124.599 23.6771 124.431 23.2271 124.095 22.9031C123.771 22.5791 123.237 22.4171 122.493 22.4171C121.953 22.4171 121.515 22.5251 121.179 22.7411C120.855 22.9571 120.627 23.2331 120.495 23.5691C120.423 23.7491 120.297 23.8391 120.117 23.8391H119.307C119.175 23.8391 119.073 23.8031 119.001 23.7311C118.941 23.6471 118.911 23.5511 118.911 23.4431C118.911 23.2631 118.977 23.0411 119.109 22.7771C119.253 22.5131 119.469 22.2551 119.757 22.0031C120.045 21.7511 120.411 21.5411 120.855 21.3731C121.311 21.1931 121.863 21.1031 122.511 21.1031C123.231 21.1031 123.837 21.1991 124.329 21.3911C124.821 21.5711 125.205 21.8171 125.481 22.1291C125.769 22.4411 125.973 22.7951 126.093 23.1911C126.225 23.5871 126.291 23.9891 126.291 24.3971V30.2291C126.291 30.3491 126.249 30.4511 126.165 30.5351C126.093 30.6071 125.997 30.6431 125.877 30.6431H125.049C124.917 30.6431 124.815 30.6071 124.743 30.5351C124.671 30.4511 124.635 30.3491 124.635 30.2291V29.4551C124.479 29.6711 124.269 29.8871 124.005 30.1031C123.741 30.3071 123.411 30.4811 123.015 30.6251C122.619 30.7571 122.133 30.8231 121.557 30.8231ZM121.935 29.4731C122.427 29.4731 122.877 29.3711 123.285 29.1671C123.693 28.9511 124.011 28.6211 124.239 28.1771C124.479 27.7331 124.599 27.1751 124.599 26.5031V25.9991L122.511 26.3051C121.659 26.4251 121.017 26.6291 120.585 26.9171C120.153 27.1931 119.937 27.5471 119.937 27.9791C119.937 28.3151 120.033 28.5971 120.225 28.8251C120.429 29.0411 120.681 29.2031 120.981 29.3111C121.293 29.4191 121.611 29.4731 121.935 29.4731ZM130.323 34.0631C130.227 34.0631 130.143 34.0271 130.071 33.9551C129.999 33.8831 129.963 33.7991 129.963 33.7031C129.963 33.6551 129.969 33.6071 129.981 33.5591C129.993 33.5111 130.017 33.4511 130.053 33.3791L131.439 30.0851L128.001 21.9671C127.941 21.8231 127.911 21.7211 127.911 21.6611C127.911 21.5531 127.947 21.4631 128.019 21.3911C128.091 21.3191 128.181 21.2831 128.289 21.2831H129.171C129.291 21.2831 129.387 21.3131 129.459 21.3731C129.531 21.4331 129.579 21.5051 129.603 21.5891L132.339 28.1411L135.147 21.5891C135.183 21.5051 135.231 21.4331 135.291 21.3731C135.363 21.3131 135.465 21.2831 135.597 21.2831H136.443C136.551 21.2831 136.641 21.3191 136.713 21.3911C136.785 21.4631 136.821 21.5471 136.821 21.6431C136.821 21.7031 136.791 21.8111 136.731 21.9671L131.619 33.7571C131.583 33.8411 131.529 33.9131 131.457 33.9731C131.397 34.0331 131.301 34.0631 131.169 34.0631H130.323Z" fill="white"/>
<path d="M45.5448 13.7231C45.0541 13.7231 44.6354 13.6377 44.2888 13.4671C43.9474 13.2964 43.6808 13.0511 43.4888 12.7311C43.3021 12.4057 43.2008 12.0191 43.1848 11.5711C43.1794 11.3417 43.1768 11.0964 43.1768 10.8351C43.1768 10.5684 43.1794 10.3177 43.1848 10.0831C43.2008 9.6404 43.3021 9.26173 43.4888 8.94707C43.6808 8.6324 43.9501 8.38973 44.2968 8.21907C44.6488 8.0484 45.0648 7.96307 45.5448 7.96307C45.9341 7.96307 46.2754 8.0164 46.5688 8.12307C46.8621 8.2244 47.1048 8.35773 47.2968 8.52307C47.4941 8.68307 47.6408 8.8564 47.7368 9.04307C47.8381 9.22973 47.8914 9.40307 47.8968 9.56307C47.9021 9.61107 47.8888 9.65107 47.8568 9.68307C47.8248 9.71507 47.7821 9.73107 47.7288 9.73107H46.9048C46.8514 9.73107 46.8114 9.7204 46.7848 9.69907C46.7581 9.67773 46.7341 9.64573 46.7128 9.60307C46.6701 9.49107 46.6034 9.38173 46.5128 9.27507C46.4221 9.16307 46.2994 9.06973 46.1448 8.99507C45.9901 8.9204 45.7901 8.88307 45.5448 8.88307C45.1821 8.88307 44.8914 8.97907 44.6728 9.17107C44.4594 9.36307 44.3448 9.6804 44.3288 10.1231C44.3128 10.5871 44.3128 11.0564 44.3288 11.5311C44.3448 11.9844 44.4621 12.3097 44.6808 12.5071C44.9048 12.7044 45.1981 12.8031 45.5608 12.8031C45.8008 12.8031 46.0141 12.7604 46.2008 12.6751C46.3928 12.5897 46.5421 12.4564 46.6488 12.2751C46.7608 12.0937 46.8168 11.8617 46.8168 11.5791V11.3311H45.8408C45.7874 11.3311 45.7421 11.3124 45.7048 11.2751C45.6674 11.2377 45.6488 11.1897 45.6488 11.1311V10.7071C45.6488 10.6484 45.6674 10.6004 45.7048 10.5631C45.7421 10.5257 45.7874 10.5071 45.8408 10.5071H47.7528C47.8114 10.5071 47.8568 10.5257 47.8888 10.5631C47.9261 10.6004 47.9448 10.6484 47.9448 10.7071V11.5471C47.9448 11.9951 47.8461 12.3817 47.6488 12.7071C47.4568 13.0324 47.1794 13.2831 46.8168 13.4591C46.4594 13.6351 46.0354 13.7231 45.5448 13.7231ZM49.7623 13.6431C49.709 13.6431 49.6637 13.6244 49.6263 13.5871C49.589 13.5497 49.5703 13.5044 49.5703 13.4511V8.24307C49.5703 8.1844 49.589 8.1364 49.6263 8.09907C49.6637 8.06173 49.709 8.04307 49.7623 8.04307H53.2823C53.341 8.04307 53.389 8.06173 53.4263 8.09907C53.4637 8.1364 53.4823 8.1844 53.4823 8.24307V8.77107C53.4823 8.8244 53.4637 8.86973 53.4263 8.90707C53.389 8.9444 53.341 8.96307 53.2823 8.96307H50.6503V10.3791H53.1063C53.165 10.3791 53.213 10.3977 53.2503 10.4351C53.2877 10.4671 53.3063 10.5124 53.3063 10.5711V11.0671C53.3063 11.1257 53.2877 11.1737 53.2503 11.2111C53.213 11.2431 53.165 11.2591 53.1063 11.2591H50.6503V12.7231H53.3463C53.405 12.7231 53.453 12.7417 53.4903 12.7791C53.5277 12.8164 53.5463 12.8644 53.5463 12.9231V13.4511C53.5463 13.5044 53.5277 13.5497 53.4903 13.5871C53.453 13.6244 53.405 13.6431 53.3463 13.6431H49.7623ZM56.5709 13.6431C56.5176 13.6431 56.4722 13.6244 56.4349 13.5871C56.3976 13.5497 56.3789 13.5044 56.3789 13.4511V9.02707H54.8989C54.8456 9.02707 54.8002 9.0084 54.7629 8.97107C54.7256 8.93373 54.7069 8.8884 54.7069 8.83507V8.24307C54.7069 8.1844 54.7256 8.1364 54.7629 8.09907C54.8002 8.06173 54.8456 8.04307 54.8989 8.04307H58.9789C59.0376 8.04307 59.0856 8.06173 59.1229 8.09907C59.1602 8.1364 59.1789 8.1844 59.1789 8.24307V8.83507C59.1789 8.8884 59.1602 8.93373 59.1229 8.97107C59.0856 9.0084 59.0376 9.02707 58.9789 9.02707H57.5069V13.4511C57.5069 13.5044 57.4882 13.5497 57.4509 13.5871C57.4136 13.6244 57.3656 13.6431 57.3069 13.6431H56.5709ZM63.0155 13.6431C62.9621 13.6431 62.9168 13.6244 62.8795 13.5871C62.8421 13.5497 62.8235 13.5044 62.8235 13.4511V8.23507C62.8235 8.18173 62.8421 8.1364 62.8795 8.09907C62.9168 8.06173 62.9621 8.04307 63.0155 8.04307H63.7675C63.8261 8.04307 63.8715 8.06173 63.9035 8.09907C63.9408 8.1364 63.9595 8.18173 63.9595 8.23507V13.4511C63.9595 13.5044 63.9408 13.5497 63.9035 13.5871C63.8715 13.6244 63.8261 13.6431 63.7675 13.6431H63.0155ZM67.2381 13.6431C67.1848 13.6431 67.1394 13.6244 67.1021 13.5871C67.0648 13.5497 67.0461 13.5044 67.0461 13.4511V9.02707H65.5661C65.5128 9.02707 65.4674 9.0084 65.4301 8.97107C65.3928 8.93373 65.3741 8.8884 65.3741 8.83507V8.24307C65.3741 8.1844 65.3928 8.1364 65.4301 8.09907C65.4674 8.06173 65.5128 8.04307 65.5661 8.04307H69.6461C69.7048 8.04307 69.7528 8.06173 69.7901 8.09907C69.8274 8.1364 69.8461 8.1844 69.8461 8.24307V8.83507C69.8461 8.8884 69.8274 8.93373 69.7901 8.97107C69.7528 9.0084 69.7048 9.02707 69.6461 9.02707H68.1741V13.4511C68.1741 13.5044 68.1554 13.5497 68.1181 13.5871C68.0808 13.6244 68.0328 13.6431 67.9741 13.6431H67.2381ZM75.6427 13.7231C75.168 13.7231 74.76 13.6457 74.4187 13.4911C74.0773 13.3311 73.8107 13.0884 73.6187 12.7631C73.4267 12.4324 73.3227 12.0217 73.3067 11.5311C73.3013 11.3017 73.2987 11.0751 73.2987 10.8511C73.2987 10.6271 73.3013 10.3977 73.3067 10.1631C73.3227 9.67773 73.4293 9.2724 73.6267 8.94707C73.824 8.62173 74.0933 8.3764 74.4347 8.21107C74.7813 8.04573 75.184 7.96307 75.6427 7.96307C76.1013 7.96307 76.504 8.04573 76.8507 8.21107C77.1973 8.3764 77.4693 8.62173 77.6667 8.94707C77.864 9.2724 77.9707 9.67773 77.9867 10.1631C77.9973 10.3977 78.0027 10.6271 78.0027 10.8511C78.0027 11.0751 77.9973 11.3017 77.9867 11.5311C77.9707 12.0217 77.8667 12.4324 77.6747 12.7631C77.4827 13.0884 77.2133 13.3311 76.8667 13.4911C76.5253 13.6457 76.1173 13.7231 75.6427 13.7231ZM75.6427 12.8031C75.9893 12.8031 76.272 12.7017 76.4907 12.4991C76.7093 12.2911 76.8267 11.9551 76.8427 11.4911C76.8533 11.2564 76.8587 11.0404 76.8587 10.8431C76.8587 10.6404 76.8533 10.4244 76.8427 10.1951C76.832 9.88573 76.7733 9.63507 76.6667 9.44307C76.5653 9.24573 76.4267 9.1044 76.2507 9.01907C76.0747 8.9284 75.872 8.88307 75.6427 8.88307C75.4187 8.88307 75.2187 8.9284 75.0427 9.01907C74.8667 9.1044 74.7253 9.24573 74.6187 9.44307C74.5173 9.63507 74.4613 9.88573 74.4507 10.1951C74.4453 10.4244 74.4427 10.6404 74.4427 10.8431C74.4427 11.0404 74.4453 11.2564 74.4507 11.4911C74.4667 11.9551 74.584 12.2911 74.8027 12.4991C75.0213 12.7017 75.3013 12.8031 75.6427 12.8031ZM79.8452 13.6431C79.7918 13.6431 79.7465 13.6244 79.7092 13.5871C79.6718 13.5497 79.6532 13.5044 79.6532 13.4511V8.24307C79.6532 8.1844 79.6718 8.1364 79.7092 8.09907C79.7465 8.06173 79.7918 8.04307 79.8452 8.04307H80.4612C80.5358 8.04307 80.5892 8.06173 80.6212 8.09907C80.6585 8.13107 80.6825 8.15507 80.6932 8.17107L82.9972 11.7551V8.24307C82.9972 8.1844 83.0132 8.1364 83.0452 8.09907C83.0825 8.06173 83.1305 8.04307 83.1892 8.04307H83.8612C83.9198 8.04307 83.9678 8.06173 84.0052 8.09907C84.0425 8.1364 84.0612 8.1844 84.0612 8.24307V13.4431C84.0612 13.5017 84.0425 13.5497 84.0052 13.5871C83.9678 13.6244 83.9225 13.6431 83.8692 13.6431H83.2452C83.1705 13.6431 83.1172 13.6244 83.0852 13.5871C83.0532 13.5497 83.0292 13.5257 83.0132 13.5151L80.7172 10.0111V13.4511C80.7172 13.5044 80.6985 13.5497 80.6612 13.5871C80.6238 13.6244 80.5758 13.6431 80.5172 13.6431H79.8452Z" fill="white"/>
</svg>
