<svg width="20" height="20" viewBox="0 0 20 20" fill="none" xmlns="http://www.w3.org/2000/svg">
<path d="M10.834 2.5C8.84486 2.5 6.93721 3.29018 5.53068 4.6967C4.12416 6.10322 3.33398 8.01088 3.33398 10H0.833984L4.07565 13.2417L4.13398 13.3583L7.50065 10H5.00065C5.00065 6.775 7.60898 4.16667 10.834 4.16667C14.059 4.16667 16.6673 6.775 16.6673 10C16.6673 13.225 14.059 15.8333 10.834 15.8333C9.22565 15.8333 7.76732 15.175 6.71732 14.1167L5.53398 15.3C6.2285 15.9983 7.05439 16.5523 7.96404 16.9299C8.87368 17.3075 9.84908 17.5012 10.834 17.5C12.8231 17.5 14.7308 16.7098 16.1373 15.3033C17.5438 13.8968 18.334 11.9891 18.334 10C18.334 8.01088 17.5438 6.10322 16.1373 4.6967C14.7308 3.29018 12.8231 2.5 10.834 2.5ZM10.0007 6.66667V10.8333L13.5423 12.9333L14.184 11.8667L11.2507 10.125V6.66667H10.0007Z" fill="#A6A6A6"/>
</svg>
