<svg width="44" height="44" viewBox="0 0 44 44" fill="none" xmlns="http://www.w3.org/2000/svg">
<path d="M34.8333 3.66666H16.4999C14.4778 3.66666 12.8333 5.31116 12.8333 7.33332V17.5743L4.20377 26.2038C3.94745 26.4602 3.77291 26.7869 3.7022 27.1424C3.63149 27.498 3.6678 27.8666 3.80653 28.2015C3.94525 28.5365 4.18018 28.8228 4.48159 29.0242C4.78301 29.2257 5.13739 29.3332 5.49993 29.3333V38.5C5.49993 38.9862 5.69309 39.4525 6.03691 39.7964C6.38072 40.1402 6.84704 40.3333 7.33327 40.3333H36.6666C37.1528 40.3333 37.6191 40.1402 37.963 39.7964C38.3068 39.4525 38.4999 38.9862 38.4999 38.5V7.33332C38.4999 5.31116 36.8554 3.66666 34.8333 3.66666ZM20.1666 36.6667H9.1666V26.4257L14.6666 20.9257L20.1666 26.4257V36.6667ZM34.8333 36.6667H23.8333V29.3333C24.1962 29.3341 24.5512 29.2271 24.8532 29.0258C25.1552 28.8245 25.3905 28.538 25.5294 28.2027C25.6683 27.8673 25.7044 27.4983 25.6332 27.1425C25.562 26.7866 25.3867 26.4599 25.1294 26.2038L16.4999 17.5743V7.33332H34.8333V36.6667Z" fill="#006FFD"/>
<path d="M20.1666 11H23.8333V14.6667H20.1666V11ZM27.4999 11H31.1666V14.6667H27.4999V11ZM27.4999 18.3902H31.1666V22H27.4999V18.3902ZM27.4999 25.6667H31.1666V29.3333H27.4999V25.6667ZM12.8333 27.5H16.4999V31.1667H12.8333V27.5Z" fill="#006FFD"/>
</svg>
