<svg width="16" height="16" viewBox="0 0 16 16" fill="none" xmlns="http://www.w3.org/2000/svg">
<g clip-path="url(#clip0_2957_4854)">
<path fill-rule="evenodd" clip-rule="evenodd" d="M8 1C9.5913 1 11.1174 1.61125 12.2426 2.69929C13.3679 3.78733 14 5.26303 14 6.80175C14 8.78337 12.8827 10.4053 11.7053 11.5689C11.117 12.1438 10.4752 12.6651 9.788 13.1263L9.504 13.3132L9.37067 13.399L9.11933 13.5537L8.89533 13.6858L8.618 13.8418C8.42967 13.9455 8.2167 14 8 14C7.7833 14 7.57033 13.9455 7.382 13.8418L7.10467 13.6858L6.758 13.4796L6.63 13.399L6.35667 13.223C5.61532 12.7378 4.92471 12.1838 4.29467 11.5689C3.11733 10.4046 2 8.78337 2 6.80175C2 5.26303 2.63214 3.78733 3.75736 2.69929C4.88258 1.61125 6.4087 1 8 1ZM8 2.28928C6.76232 2.28928 5.57534 2.7647 4.70017 3.61095C3.825 4.4572 3.33333 5.60497 3.33333 6.80175C3.33333 8.2986 4.18133 9.61237 5.24733 10.667C5.70575 11.1156 6.20116 11.5274 6.72867 11.8983L7.034 12.1084C7.13267 12.1748 7.22733 12.2367 7.31867 12.2941L7.57867 12.4552L7.80733 12.59L8 12.6989L8.30333 12.5255L8.548 12.3772C8.678 12.2973 8.818 12.2077 8.966 12.1084L9.27133 11.8983C9.79884 11.5274 10.2943 11.1156 10.7527 10.667C11.8187 9.61302 12.6667 8.2986 12.6667 6.80175C12.6667 5.60497 12.175 4.4572 11.2998 3.61095C10.4247 2.7647 9.23768 2.28928 8 2.28928ZM8 4.22319C8.70724 4.22319 9.38552 4.49486 9.88562 4.97843C10.3857 5.46201 10.6667 6.11787 10.6667 6.80175C10.6667 7.48562 10.3857 8.14149 9.88562 8.62506C9.38552 9.10863 8.70724 9.3803 8 9.3803C7.29276 9.3803 6.61448 9.10863 6.11438 8.62506C5.61428 8.14149 5.33333 7.48562 5.33333 6.80175C5.33333 6.11787 5.61428 5.46201 6.11438 4.97843C6.61448 4.49486 7.29276 4.22319 8 4.22319ZM8 5.51247C7.64638 5.51247 7.30724 5.6483 7.05719 5.89009C6.80714 6.13188 6.66667 6.45981 6.66667 6.80175C6.66667 7.14369 6.80714 7.47162 7.05719 7.7134C7.30724 7.95519 7.64638 8.09103 8 8.09103C8.35362 8.09103 8.69276 7.95519 8.94281 7.7134C9.19286 7.47162 9.33333 7.14369 9.33333 6.80175C9.33333 6.45981 9.19286 6.13188 8.94281 5.89009C8.69276 5.6483 8.35362 5.51247 8 5.51247Z" fill="black"/>
</g>
<defs>
<clipPath id="clip0_2957_4854">
<rect width="16" height="16" fill="white"/>
</clipPath>
</defs>
</svg>
