<svg width="25" height="24" viewBox="0 0 25 24" fill="none" xmlns="http://www.w3.org/2000/svg">
<path d="M19.2281 17.394L13.9256 22.698C13.7167 22.9071 13.4686 23.073 13.1955 23.1861C12.9224 23.2993 12.6297 23.3575 12.3341 23.3575C12.0385 23.3575 11.7458 23.2993 11.4727 23.1861C11.1997 23.073 10.9516 22.9071 10.7426 22.698L5.4401 17.394C4.53467 16.4887 3.81642 15.4139 3.32637 14.231C2.83632 13.048 2.58405 11.7802 2.58398 10.4998C2.58391 9.21939 2.83604 7.95151 3.32596 6.76855C3.81589 5.58558 4.53402 4.5107 5.43935 3.60526C6.34469 2.69983 7.41949 1.98159 8.6024 1.49153C9.78532 1.00148 11.0532 0.749215 12.3336 0.749146C13.614 0.749076 14.8819 1.0012 16.0648 1.49113C17.2478 1.98105 18.3227 2.69918 19.2281 3.60451C20.1336 4.5099 20.8519 5.58479 21.342 6.7678C21.832 7.95081 22.0843 9.21877 22.0843 10.4993C22.0843 11.7798 21.832 13.0477 21.342 14.2307C20.8519 15.4137 20.1336 16.4886 19.2281 17.394ZM17.6381 5.19601C16.9416 4.49948 16.1147 3.94696 15.2046 3.57C14.2945 3.19304 13.3191 2.99903 12.3341 2.99903C11.3491 2.99903 10.3737 3.19304 9.4636 3.57C8.55354 3.94696 7.72663 4.49948 7.0301 5.19601C6.33357 5.89255 5.78105 6.71945 5.40409 7.62951C5.02713 8.53957 4.83311 9.51497 4.83311 10.5C4.83311 11.4851 5.02713 12.4605 5.40409 13.3705C5.78105 14.2806 6.33357 15.1075 7.0301 15.804L12.3341 21.105L17.6381 15.804C18.3348 15.1075 18.8874 14.2807 19.2644 13.3706C19.6414 12.4605 19.8355 11.4851 19.8355 10.5C19.8355 9.51493 19.6414 8.5395 19.2644 7.62943C18.8874 6.71936 18.3348 5.89248 17.6381 5.19601ZM12.3341 13.5C11.9346 13.509 11.5373 13.4382 11.1656 13.2916C10.7938 13.1449 10.4551 12.9255 10.1693 12.6462C9.88356 12.3669 9.65647 12.0333 9.50139 11.665C9.34631 11.2967 9.26638 10.9011 9.26628 10.5015C9.26618 10.1019 9.34592 9.70632 9.50081 9.33795C9.6557 8.96958 9.88263 8.63586 10.1683 8.3564C10.4539 8.07694 10.7925 7.85736 11.1642 7.71056C11.5358 7.56375 11.9331 7.49268 12.3326 7.50151C13.1164 7.51885 13.8624 7.84235 14.4107 8.40277C14.959 8.96319 15.2661 9.716 15.2663 10.5C15.2665 11.2841 14.9597 12.037 14.4117 12.5977C13.8637 13.1584 13.1179 13.4823 12.3341 13.5Z" fill="#292D32"/>
</svg>
