<svg width="20" height="20" viewBox="0 0 20 20" fill="none" xmlns="http://www.w3.org/2000/svg">
<path d="M15 11.6667L15.9596 10.7071C16.3501 10.3166 16.3501 9.68341 15.9596 9.29288L15 8.33332" stroke="#FF4141" stroke-width="1.6" stroke-linecap="round" stroke-linejoin="round"/>
<path d="M15.8335 10L10.8335 10M3.3335 14.3886V6.05527M13.3335 14.3886C13.3335 15.3091 12.5873 16.0553 11.6668 16.0553H8.3335M13.3335 6.05527C13.3335 5.1348 12.5873 4.38861 11.6668 4.38861H8.3335M4.07566 16.5501L5.74233 17.6612C6.84992 18.3996 8.3335 17.6056 8.3335 16.2744V4.16947C8.3335 2.83831 6.84992 2.04432 5.74233 2.78272L4.07566 3.89383C3.612 4.20294 3.3335 4.72333 3.3335 5.28058V15.1633C3.3335 15.7206 3.612 16.2409 4.07566 16.5501Z" stroke="#FF4141" stroke-width="1.6" stroke-linecap="round"/>
</svg>
