<svg width="21" height="20" viewBox="0 0 21 20" fill="none" xmlns="http://www.w3.org/2000/svg">
<path fill-rule="evenodd" clip-rule="evenodd" d="M13.0242 11.6667H13.6749L17.7852 15.8333L16.5579 17.075L12.4394 12.9167V12.2583L12.217 12.025C11.2779 12.8417 10.0589 13.3333 8.73271 13.3333C5.77563 13.3333 3.37866 10.9083 3.37866 7.91667C3.37866 4.925 5.77563 2.5 8.73271 2.5C11.6898 2.5 14.0868 4.925 14.0868 7.91667C14.0868 9.25833 13.6008 10.4917 12.7935 11.4417L13.0242 11.6667ZM5.02609 7.91663C5.02609 9.99163 6.68173 11.6666 8.73274 11.6666C10.7838 11.6666 12.4394 9.99163 12.4394 7.91663C12.4394 5.84163 10.7838 4.16663 8.73274 4.16663C6.68173 4.16663 5.02609 5.84163 5.02609 7.91663Z" fill="black"/>
</svg>
