<svg width="44" height="44" viewBox="0 0 44 44" fill="none" xmlns="http://www.w3.org/2000/svg">
<path fill-rule="evenodd" clip-rule="evenodd" d="M32.7452 5.79883L33.0385 5.89783L35.2422 6.63116C36.091 6.91533 36.8372 7.16283 37.4257 7.43783C38.0637 7.73483 38.6485 8.11616 39.0958 8.73766C39.5432 9.35733 39.721 10.0338 39.8017 10.7323C39.875 11.3795 39.875 12.1642 39.875 13.0607V28.116C39.875 29.3957 39.875 30.4755 39.776 31.3298C39.6733 32.2172 39.4423 33.0935 38.7952 33.8012C38.4121 34.2206 37.9464 34.5564 37.4275 34.7875C36.5512 35.1762 35.6473 35.1175 34.7728 34.936C33.9295 34.76 32.9065 34.419 31.6928 34.0138L31.614 33.9882C29.5607 33.3025 28.8548 33.0898 28.1728 33.1137C27.9004 33.1229 27.6296 33.1592 27.3643 33.2218C26.6988 33.3777 26.0755 33.77 24.2733 34.9708L21.7397 36.6612L21.483 36.8317C19.536 38.1315 18.183 39.0335 16.599 39.2462C15.0168 39.4588 13.4732 38.9437 11.2548 38.2012L10.9615 38.104L8.75783 37.3707C7.909 37.0865 7.16283 36.839 6.57433 36.564C5.93633 36.267 5.3515 35.8857 4.90417 35.2623C4.45683 34.6427 4.279 33.968 4.19833 33.2677C4.125 32.6205 4.125 31.8377 4.125 30.9412V15.8858C4.125 14.6043 4.125 13.5245 4.224 12.672C4.32667 11.7847 4.55767 10.9083 5.20483 10.2007C5.58794 9.78122 6.05356 9.44543 6.5725 9.21433C7.44883 8.82383 8.3545 8.8825 9.22717 9.06583C10.0705 9.24 11.0935 9.58283 12.3072 9.988L12.386 10.0137C14.4393 10.6975 15.1452 10.912 15.829 10.8882C16.1008 10.8788 16.371 10.8426 16.6357 10.78C17.3012 10.6223 17.9245 10.23 19.7267 9.031L22.2603 7.34066L22.517 7.16833C24.464 5.87033 25.817 4.96833 27.3992 4.75566C28.9832 4.543 30.5268 5.05633 32.7452 5.79883ZM28.875 7.5295V30.3967C29.8577 30.503 30.8917 30.8477 32.2538 31.3023L32.483 31.3793C33.7975 31.8175 34.6683 32.1053 35.3338 32.2447C35.9865 32.3803 36.2083 32.318 36.3092 32.274C36.4823 32.1972 36.6377 32.0855 36.7657 31.9458C36.839 31.8652 36.9673 31.6727 37.0443 31.0108C37.1232 30.3362 37.125 29.4177 37.125 28.0335V13.1322C37.125 12.1422 37.1232 11.5188 37.07 11.0458C37.0187 10.6077 36.938 10.4445 36.8647 10.3455C36.7932 10.2465 36.6648 10.1163 36.267 9.93116C35.8343 9.7295 35.2403 9.5315 34.3053 9.218L32.1695 8.50666C30.5433 7.964 29.579 7.65783 28.875 7.5295ZM26.125 30.7267V8.129C25.5548 8.459 24.8233 8.9375 23.7857 9.62866L21.252 11.319L21.0503 11.4528C19.789 12.2962 18.8485 12.9232 17.875 13.2752V35.8728C18.4452 35.5428 19.1767 35.0625 20.2143 34.3713L22.748 32.6828L22.9497 32.549C24.211 31.7057 25.1515 31.0787 26.125 30.7267ZM15.125 36.4742V13.6033C14.1423 13.497 13.1083 13.1523 11.7462 12.6977L11.517 12.6207C10.2025 12.1825 9.33167 11.8947 8.66433 11.7553C8.0135 11.6197 7.79167 11.6802 7.69267 11.7242C7.5187 11.8013 7.36263 11.9136 7.23433 12.0542C7.161 12.133 7.03267 12.3255 6.95567 12.9873C6.87683 13.662 6.875 14.5823 6.875 15.9665V30.8678C6.875 31.8578 6.87683 32.4812 6.93 32.9542C6.98133 33.3923 7.062 33.5537 7.13533 33.6545C7.20683 33.7535 7.33517 33.8837 7.733 34.0688C8.16567 34.2705 8.75967 34.4685 9.69467 34.782L11.8305 35.4933C13.4567 36.0342 14.4192 36.3422 15.125 36.4723" fill="#006FFD"/>
</svg>
