<svg width="26" height="25" viewBox="0 0 26 25" fill="none" xmlns="http://www.w3.org/2000/svg">
<path d="M2.16667 6.2448C2.16667 5.67189 2.64984 5.20834 3.24459 5.20834H11.9221C12.208 5.20834 12.4821 5.31754 12.6843 5.51192C12.8864 5.70629 13 5.96992 13 6.2448C13 6.51969 12.8864 6.78332 12.6843 6.97769C12.4821 7.17206 12.208 7.28126 11.9221 7.28126H3.24459C2.95871 7.28126 2.68453 7.17206 2.48239 6.97769C2.28024 6.78332 2.16667 6.51969 2.16667 6.2448Z" fill="white"/>
<path d="M2.16667 13.3176C2.16667 12.7446 2.64984 12.2811 3.24459 12.2811H22.7554C23.0413 12.2811 23.3155 12.3903 23.5176 12.5847C23.7198 12.779 23.8333 13.0427 23.8333 13.3176C23.8333 13.5924 23.7198 13.8561 23.5176 14.0504C23.3155 14.2448 23.0413 14.354 22.7554 14.354H3.24459C2.95871 14.354 2.68453 14.2448 2.48239 14.0504C2.28024 13.8561 2.16667 13.5924 2.16667 13.3176Z" fill="white"/>
<path d="M3.24459 19.3539C2.95871 19.3539 2.68453 19.463 2.48239 19.6574C2.28024 19.8518 2.16667 20.1154 2.16667 20.3903C2.16667 20.6652 2.28024 20.9288 2.48239 21.1232C2.68453 21.3176 2.95871 21.4268 3.24459 21.4268H16.2554C16.5413 21.4268 16.8155 21.3176 17.0176 21.1232C17.2198 20.9288 17.3333 20.6652 17.3333 20.3903C17.3333 20.1154 17.2198 19.8518 17.0176 19.6574C16.8155 19.463 16.5413 19.3539 16.2554 19.3539H3.24459Z" fill="white"/>
</svg>
