<svg width="24" height="24" viewBox="0 0 24 24" fill="none" xmlns="http://www.w3.org/2000/svg">
<path d="M12.0016 17.4C11.3982 17.4001 10.8169 17.173 10.3735 16.7638C9.93007 16.3546 9.65703 15.7934 9.60876 15.192C8.00819 14.6254 6.65922 13.5117 5.79999 12.0472C4.94076 10.5828 4.62651 8.86191 4.91271 7.18832C5.19892 5.51473 6.06717 3.99605 7.36421 2.90037C8.66125 1.8047 10.3037 1.20247 12.0016 1.2C13.8074 1.19974 15.5475 1.8781 16.8766 3.10059C18.2058 4.32307 19.0271 6.00041 19.1776 7.8C19.1826 7.87806 19.1713 7.9563 19.1444 8.02977C19.1176 8.10324 19.0758 8.17031 19.0216 8.22674C18.9674 8.28317 18.9021 8.32771 18.8298 8.35753C18.7575 8.38736 18.6798 8.40182 18.6016 8.4C18.4409 8.3957 18.2876 8.33197 18.1712 8.22114C18.0548 8.11031 17.9837 7.96025 17.9716 7.8C17.8647 6.739 17.477 5.72565 16.8483 4.86428C16.2197 4.00291 15.3729 3.32464 14.395 2.8993C13.4171 2.47396 12.3436 2.31691 11.2848 2.44433C10.2261 2.57175 9.22048 2.97903 8.37145 3.62424C7.52243 4.26944 6.8607 5.12927 6.45438 6.1152C6.04807 7.10112 5.91186 8.17752 6.05977 9.23358C6.20768 10.2896 6.63437 11.2872 7.29592 12.1236C7.95746 12.9599 8.82995 13.6049 9.82356 13.992C10.0044 13.6013 10.2869 13.2665 10.6416 13.0226C10.9962 12.7786 11.41 12.6346 11.8395 12.6055C12.269 12.5764 12.6984 12.6634 13.0827 12.8573C13.467 13.0512 13.7921 13.3449 14.0239 13.7076C14.2557 14.0703 14.3857 14.4887 14.4002 14.9189C14.4148 15.3491 14.3134 15.7753 14.1066 16.1529C13.8998 16.5304 13.5953 16.8454 13.2249 17.0648C12.8546 17.2842 12.432 17.4 12.0016 17.4ZM6.01236 14.4H6.12156C6.58956 14.8572 7.10916 15.2604 7.67196 15.6H6.01236C5.33916 15.6 4.80156 16.1364 4.80156 16.8C4.80156 18.3708 5.54796 19.5408 6.80916 20.3436C8.09316 21.1632 9.91956 21.6 12.0016 21.6C14.0836 21.6 15.91 21.1632 17.194 20.3436C18.454 19.5396 19.2016 18.372 19.2016 16.8C19.2016 16.4817 19.0751 16.1765 18.8501 15.9515C18.625 15.7264 18.3198 15.6 18.0016 15.6H15.5524C15.6191 15.2028 15.6191 14.7972 15.5524 14.4H18.0016C18.6381 14.4 19.2485 14.6529 19.6986 15.1029C20.1487 15.553 20.4016 16.1635 20.4016 16.8C20.4016 18.8292 19.402 20.3592 17.8396 21.3564C16.3012 22.3368 14.2276 22.8 12.0016 22.8C9.77556 22.8 7.70196 22.3368 6.16356 21.3564C4.60116 20.3604 3.60156 18.828 3.60156 16.8C3.60156 15.4644 4.68516 14.4 6.01236 14.4ZM16.8016 8.4C16.8022 9.21203 16.5966 10.0109 16.2041 10.7218C15.8116 11.4327 15.2451 12.0323 14.5576 12.4644C14.2371 12.1415 13.8584 11.8822 13.4416 11.7C14.1996 11.3692 14.8206 10.7874 15.2001 10.0526C15.5797 9.31776 15.6946 8.47465 15.5256 7.66503C15.3566 6.85541 14.9141 6.12866 14.2723 5.60699C13.6305 5.08532 12.8286 4.80054 12.0016 4.80054C11.1745 4.80054 10.3727 5.08532 9.73086 5.60699C9.08907 6.12866 8.64648 6.85541 8.4775 7.66503C8.30852 8.47465 8.42347 9.31776 8.80301 10.0526C9.18255 10.7874 9.80354 11.3692 10.5616 11.7C10.1416 11.8836 9.76356 12.144 9.44556 12.4644C8.53482 11.8903 7.84276 11.0276 7.47996 10.014C7.29499 9.49602 7.20081 8.95001 7.20156 8.4C7.20156 7.12696 7.70727 5.90606 8.60745 5.00588C9.50762 4.10571 10.7285 3.6 12.0016 3.6C13.2746 3.6 14.4955 4.10571 15.3957 5.00588C16.2958 5.90606 16.8016 7.12696 16.8016 8.4Z" fill="#292D32"/>
</svg>
