<svg width="12" height="12" viewBox="0 0 12 12" fill="none" xmlns="http://www.w3.org/2000/svg">
<path d="M11.7324 1.97704C11.6507 1.89632 11.5526 1.8322 11.4439 1.78858C11.3352 1.74497 11.2182 1.72278 11.1002 1.72336H10.1945V1.08203C10.1965 0.941384 10.1682 0.801822 10.1111 0.671958C10.054 0.542094 9.96939 0.424683 9.86253 0.326967C9.75926 0.225919 9.63523 0.145967 9.49809 0.0920404C9.36094 0.0381142 9.21358 0.0113563 9.06509 0.0134162H8.61382C8.46528 0.011453 8.31789 0.0383285 8.18074 0.0923847C8.04359 0.146441 7.91959 0.226531 7.81639 0.327716C7.70949 0.425404 7.62488 0.54281 7.56779 0.67268C7.5107 0.80255 7.48234 0.942126 7.48446 1.08278V1.7241H4.77445V1.08203C4.77653 0.941384 4.74814 0.801822 4.69105 0.671958C4.63397 0.542094 4.54938 0.424683 4.44252 0.326967C4.33934 0.226011 4.21544 0.146113 4.07844 0.0921898C3.94144 0.0382666 3.79423 0.0114589 3.64588 0.0134162H3.19461C3.04606 0.011453 2.89867 0.0383285 2.76152 0.0923847C2.62437 0.146441 2.50037 0.226531 2.39717 0.327716C2.29031 0.425432 2.20573 0.542843 2.14864 0.672706C2.09155 0.80257 2.06317 0.942132 2.06524 1.08278V1.7241H1.1619C1.04385 1.72352 0.926904 1.74572 0.818203 1.78933C0.709502 1.83295 0.611321 1.89707 0.529648 1.97779C0.4444 2.05512 0.37668 2.14809 0.330618 2.25101C0.284556 2.35394 0.261117 2.46467 0.261729 2.57645V11.1306C0.264777 11.3562 0.360474 11.5717 0.528524 11.7315C0.696573 11.8913 0.923758 11.9829 1.1619 11.9867H11.097C11.3356 11.9836 11.5634 11.8925 11.7321 11.7328C11.9008 11.573 11.9971 11.3573 12.0003 11.1314V2.5787C12.0014 2.46641 11.9782 2.35511 11.9321 2.25164C11.886 2.14817 11.8181 2.05472 11.7324 1.97704ZM3.19698 11.1306H1.1619V9.20668H3.19382L3.19698 11.1306ZM3.19698 8.77864H1.1619V6.64065H3.19382L3.19698 8.77864ZM3.19698 6.2126H1.1619V4.28864H3.19382L3.19698 6.2126ZM3.03891 3.15566C3.01753 3.13637 3.00054 3.11315 2.98898 3.08741C2.97743 3.06167 2.97156 3.03396 2.97173 3.006V1.08203C2.97255 1.02551 2.99663 0.971525 3.03884 0.931554C3.08105 0.891584 3.13807 0.868786 3.19777 0.868012H3.64588C3.70557 0.868786 3.76259 0.891584 3.8048 0.931554C3.84701 0.971525 3.87109 1.02551 3.87191 1.08203V3.00675C3.87109 3.06327 3.84701 3.11726 3.8048 3.15723C3.76259 3.1972 3.70557 3.21999 3.64588 3.22077H3.19461C3.16475 3.221 3.13517 3.2154 3.10771 3.20433C3.08024 3.19326 3.05548 3.17695 3.03496 3.15641L3.03891 3.15566ZM5.90698 11.1299H3.64588V9.20668H5.90382L5.90698 11.1299ZM5.90698 8.77789H3.64588V6.64065H5.90382L5.90698 8.77789ZM5.90698 6.21185H3.64588V4.28864H5.90382L5.90698 6.21185ZM8.61699 11.1291H6.35509V9.20668H8.61303L8.61699 11.1291ZM8.61699 8.77714H6.35509V6.64065H8.61303L8.61699 8.77714ZM8.61699 6.21111H6.35509V4.28864H8.61303L8.61699 6.21111ZM8.45892 3.15417C8.43714 3.13543 8.41961 3.11271 8.40738 3.08737C8.39516 3.06203 8.38849 3.0346 8.38779 3.00675V1.08203C8.38841 1.02545 8.41242 0.971355 8.45468 0.931344C8.49693 0.891333 8.55407 0.868596 8.61382 0.868012H9.06509C9.12485 0.868596 9.18199 0.891333 9.22424 0.931344C9.2665 0.971355 9.29051 1.02545 9.29113 1.08203V3.00675C9.29051 3.06333 9.2665 3.11743 9.22424 3.15744C9.18199 3.19745 9.12485 3.22018 9.06509 3.22077H8.61382C8.58397 3.22104 8.55437 3.21547 8.5269 3.20439C8.49942 3.19332 8.47467 3.17698 8.45418 3.15641L8.45892 3.15417ZM11.1017 11.1284H9.06509V9.20668H11.097L11.1017 11.1284ZM11.1017 8.77639H9.06509V6.64065H11.097L11.1017 8.77639ZM11.1017 6.21036H9.06509V4.28864H11.097L11.1017 6.21036Z" fill="#292D32"/>
</svg>
