<svg width="1200" height="300" viewBox="0 0 1200 300" fill="none" xmlns="http://www.w3.org/2000/svg">
<g clip-path="url(#clip0_2839_3949)">
<path d="M855.542 281.965C854.766 281.965 854.1 281.376 854.078 280.59L849.818 192.04C849.773 191.232 850.417 190.555 851.216 190.533C852.081 190.467 852.702 191.101 852.747 191.909L857.007 280.459C857.051 281.267 856.43 281.943 855.609 281.965H855.542ZM816.936 272.313H816.87C816.049 272.291 815.428 271.614 815.45 270.807L818.423 191.712C818.445 190.904 819 190.293 819.954 190.314C820.775 190.336 821.396 191.013 821.374 191.821L818.378 270.916C818.356 271.702 817.691 272.313 816.914 272.313H816.936ZM851.06 188.589C850.284 188.589 849.64 188 849.596 187.235L847.888 159.524C847.843 158.716 848.464 158.039 849.263 157.995C850.084 158.039 850.772 158.563 850.816 159.349L852.525 187.061C852.569 187.869 851.948 188.546 851.149 188.589H851.06ZM820.131 188.371H820.065C819.266 188.327 818.623 187.65 818.667 186.864L819.954 159.371C819.998 158.563 820.664 157.952 821.485 157.995C822.283 158.039 822.927 158.716 822.882 159.502L821.596 186.995C821.551 187.781 820.908 188.371 820.131 188.371ZM849.13 156.489C848.353 156.489 847.71 155.899 847.666 155.113L845.824 121.855H824.524L823.082 155.091C823.038 155.899 822.461 156.489 821.551 156.467C820.73 156.423 820.109 155.746 820.153 154.96L821.64 120.348C821.684 119.584 822.328 118.972 823.104 118.972H847.222C847.999 118.972 848.642 119.584 848.686 120.348L850.617 154.96C850.661 155.768 850.04 156.445 849.219 156.489H849.13Z" fill="#A6A6A6"/>
<path d="M841.875 156.707H830.138C829.317 156.707 828.673 156.052 828.673 155.266V129.017C828.673 125.087 832.002 121.92 836.106 121.92C840.211 121.92 843.339 125.108 843.339 129.017V155.266C843.339 156.074 842.674 156.707 841.875 156.707ZM831.624 153.824H840.411V129.039C840.411 126.681 838.525 124.825 836.128 124.825C833.732 124.825 831.624 126.768 831.624 129.039V153.824Z" fill="#A6A6A6"/>
<path d="M847.444 121.855H822.905C820.841 121.855 819.31 120.435 819.31 118.514C819.31 116.461 820.819 114.976 822.905 114.976H847.444C849.419 114.976 851.038 116.57 851.038 118.514C851.038 120.326 849.396 121.855 847.444 121.855ZM822.905 117.859C822.439 117.859 822.239 118.055 822.239 118.514C822.239 118.929 822.749 118.95 822.905 118.95H847.444C847.777 118.95 848.087 118.667 848.087 118.514C848.087 118.055 847.666 117.859 847.444 117.859H822.905Z" fill="#A6A6A6"/>
<path d="M851.482 160.878H818.623C816.737 160.878 815.028 159.196 815.028 157.34C815.028 155.397 816.648 153.802 818.623 153.802H851.482C853.457 153.802 855.076 155.397 855.076 157.34C855.076 159.284 853.368 160.878 851.482 160.878ZM818.623 156.685C818.356 156.685 817.957 156.882 817.957 157.318C817.957 157.558 818.356 157.973 818.623 157.973H851.482C851.726 157.973 852.148 157.58 852.148 157.318C852.148 156.882 851.748 156.685 851.482 156.685H818.623Z" fill="#A6A6A6"/>
<path d="M822.683 117.662C822.039 117.662 821.44 117.247 821.263 116.592C820.974 115.566 818.8 106.481 828.807 101.284C829.517 100.913 830.404 101.175 830.803 101.896C831.181 102.616 830.914 103.49 830.182 103.861C822.195 107.988 823.881 115.042 824.081 115.85C824.303 116.614 823.837 117.422 823.06 117.618C822.927 117.662 822.794 117.662 822.683 117.662Z" fill="#A6A6A6"/>
<path d="M829.295 104.035C828.696 104.035 828.119 103.664 827.919 103.075C827.653 102.31 828.052 101.502 828.807 101.218C828.829 101.218 831.491 100.236 833.555 98.0302C834.109 97.4406 835.041 97.397 835.64 97.9429C836.239 98.4888 836.284 99.406 835.729 99.9956C833.155 102.747 829.938 103.904 829.805 103.948C829.65 104.014 829.472 104.035 829.317 104.035H829.295Z" fill="#A6A6A6"/>
<path d="M840.388 104.232C840.189 104.232 839.967 104.188 839.767 104.101C839.323 103.883 835.396 102.026 833.532 99.9738C833 99.3842 833.044 98.467 833.666 97.9429C834.265 97.4188 835.196 97.4625 835.751 98.0739C836.971 99.4278 839.989 101 841.032 101.502C841.764 101.852 842.075 102.703 841.742 103.424C841.498 103.948 840.965 104.254 840.41 104.254L840.388 104.232Z" fill="#A6A6A6"/>
<path d="M829.295 104.232C828.74 104.232 828.23 103.926 827.963 103.402C827.608 102.682 827.919 101.808 828.651 101.481C828.918 101.372 835.174 98.4672 840.255 101.328C840.965 101.721 841.209 102.616 840.81 103.293C840.41 103.992 839.523 104.232 838.813 103.839C835.041 101.721 829.982 104.057 829.938 104.101C829.738 104.189 829.517 104.232 829.295 104.232Z" fill="#A6A6A6"/>
<path d="M847 117.662C847 117.662 846.8 117.662 846.712 117.64C845.913 117.465 845.403 116.701 845.558 115.937C847.222 107.901 839.19 103.926 839.101 103.883C838.369 103.533 838.059 102.66 838.414 101.939C838.769 101.219 839.656 100.913 840.388 101.284C843.916 102.987 850.129 108.337 848.442 116.505C848.309 117.182 847.688 117.662 847 117.662Z" fill="#A6A6A6"/>
<path d="M834.642 97.3097C832.778 97.3097 832.756 95.7156 832.756 95.6501C832.756 95.5846 832.756 93.9905 834.642 93.9905C836.528 93.9905 836.528 95.5628 836.528 95.6501C836.528 95.7156 836.506 97.3097 834.642 97.3097ZM834.575 94.4272C834.131 94.5146 833.599 94.9732 833.599 95.6501C833.599 96.3926 834.242 96.873 834.708 96.8948C835.041 96.8948 835.685 96.3926 835.685 95.6501C835.685 94.9732 835.152 94.5146 834.708 94.4272C834.708 94.4272 834.62 94.4272 834.575 94.4272Z" fill="#A6A6A6"/>
<path d="M834.642 98.7727C833.776 98.7727 832.534 98.1176 832.534 96.9166C832.534 95.7155 833.776 95.0386 834.642 95.0386C835.84 95.0386 836.75 95.8466 836.75 96.9166C836.75 97.8337 835.951 98.7727 834.642 98.7727ZM834.642 95.8902C834.309 95.8902 833.821 96.2833 833.821 96.9166C833.821 97.5499 834.309 97.9429 834.642 97.9429C835.44 97.9429 835.485 96.9384 835.485 96.9166C835.485 96.9166 835.44 95.8902 834.642 95.8902Z" fill="#A6A6A6"/>
<path d="M834.642 100.258C833.776 100.258 832.534 99.6026 832.534 98.4016C832.534 97.2005 833.776 96.5454 834.642 96.5454C835.795 96.5454 836.971 97.2442 836.971 98.4016C836.971 99.559 835.795 100.258 834.642 100.258ZM834.642 97.3752C834.509 97.3752 834.021 97.7465 834.021 98.4016C834.021 99.0567 834.509 99.4279 834.642 99.4279C835.44 99.4279 835.485 98.4016 835.485 98.4016C835.485 98.4016 835.44 97.3752 834.642 97.3752Z" fill="#A6A6A6"/>
<path d="M834.642 96.6981C833.821 96.6981 833.177 96.043 833.177 95.2569V93.7938C833.177 92.9858 833.843 92.3525 834.642 92.3525C835.441 92.3525 836.106 93.0077 836.106 93.7938V95.2569C836.106 96.0649 835.441 96.6981 834.642 96.6981Z" fill="#A6A6A6"/>
<path d="M853.19 193.197H816.936C814.829 193.197 813.12 191.516 813.12 189.441C813.12 187.367 814.829 185.685 816.936 185.685H853.19C855.298 185.685 857.007 187.367 857.007 189.441C857.007 191.516 855.298 193.197 853.19 193.197ZM816.936 188.589C816.47 188.589 816.049 189.004 816.049 189.441C816.049 189.878 816.448 190.315 816.936 190.315H853.19C853.656 190.315 854.056 189.9 854.056 189.441C854.056 188.982 853.656 188.589 853.19 188.589H816.936Z" fill="#A6A6A6"/>
<path d="M855.542 238.946H814.584C812.41 238.946 810.546 237.134 810.546 234.972C810.546 232.81 812.388 230.997 814.584 230.997H855.542C857.717 230.997 859.58 232.81 859.58 234.972C859.58 237.134 857.739 238.946 855.542 238.946ZM814.584 233.902C814.141 233.902 813.497 234.317 813.497 234.972C813.497 235.627 814.141 236.042 814.584 236.042H855.542C855.986 236.042 856.629 235.649 856.629 234.972C856.629 234.295 855.986 233.902 855.542 233.902H814.584Z" fill="#A6A6A6"/>
<path d="M888.823 155.637C888.468 155.637 888.091 155.506 887.803 155.244C887.292 154.763 875.2 143.233 876.753 127.227C877.929 115.216 886.449 104.123 902.091 94.2306C929.47 77.0011 934.485 69.4454 934.906 59.9243C934.928 59.1164 935.616 58.5049 936.437 58.5486C937.258 58.5923 937.879 59.2474 937.835 60.0554C937.369 70.6027 932.155 78.7699 903.667 96.6764C888.823 106.045 880.747 116.417 879.66 127.489C878.218 142.076 889.689 153.06 889.799 153.169C890.376 153.715 890.398 154.632 889.844 155.222C889.555 155.528 889.156 155.659 888.779 155.659L888.823 155.637Z" fill="#A6A6A6"/>
<path d="M983.94 155.637C983.541 155.637 983.164 155.484 982.875 155.2C982.32 154.632 982.343 153.693 982.92 153.147C983.03 153.038 994.501 142.076 993.059 127.467C991.972 116.395 983.896 106.023 969.075 96.6545C940.586 78.748 935.35 70.5808 934.906 60.0335C934.862 59.2473 935.505 58.5704 936.304 58.5267C937.103 58.5049 937.813 59.1163 937.835 59.9024C938.234 69.4235 943.249 76.9792 970.65 94.2087C986.292 104.101 994.812 115.194 995.988 127.205C997.541 143.212 985.449 154.742 984.939 155.222C984.65 155.484 984.295 155.615 983.918 155.615L983.94 155.637Z" fill="#A6A6A6"/>
<path d="M936.393 49.901C934.573 49.901 933.22 48.831 933.22 47.4116C933.22 45.9921 934.573 44.9221 936.393 44.9221C938.079 44.9221 939.344 45.9921 939.344 47.4116C939.344 48.831 938.079 49.901 936.393 49.901Z" fill="#A6A6A6"/>
<path d="M936.592 55.1421C934.418 55.1421 932.776 53.8973 932.776 52.2159C932.776 50.5344 934.418 49.3115 936.592 49.3115C938.589 49.3115 940.187 50.6218 940.187 52.2159C940.187 53.81 938.567 55.1421 936.592 55.1421Z" fill="#A6A6A6"/>
<path d="M936.592 61.0162C934.64 61.0162 932.554 59.6623 932.554 57.6751C932.554 55.8408 934.684 54.5742 936.592 54.5742C938.9 54.5742 940.83 55.9936 940.83 57.6751C940.83 59.5531 938.967 61.0162 936.592 61.0162ZM935.505 57.8716C935.661 57.8716 936.06 58.1119 936.592 58.1119C937.325 58.1119 937.813 57.7843 937.902 57.6314C937.835 57.7625 937.325 57.4349 936.592 57.4349C936.038 57.4349 935.55 57.7188 935.461 57.8716C935.461 57.8716 935.483 57.8498 935.527 57.8498L935.505 57.8716Z" fill="#A6A6A6"/>
<path d="M936.393 47.1712H936.326C935.527 47.1494 934.884 46.4724 934.928 45.6645L935.15 40.4235C935.172 39.6374 935.882 39.0041 936.681 39.0478C937.48 39.0696 938.123 39.7466 938.079 40.5546L937.879 45.7955C937.857 46.5598 937.191 47.1712 936.415 47.1712H936.393Z" fill="#A6A6A6"/>
<path d="M943.204 21.7965C942.894 21.7965 942.583 21.7092 942.339 21.5126C941.829 21.1414 941.607 20.4863 941.806 19.8748L943.182 15.835L939.765 13.3237C939.255 12.9524 939.055 12.2973 939.255 11.7077C939.455 11.1181 940.031 10.725 940.653 10.725H944.935L946.288 6.68515C946.488 6.09554 947.131 5.6588 947.708 5.70247C948.352 5.70247 948.906 6.13922 949.106 6.75066L950.304 10.7469H954.742C955.385 10.7469 955.94 11.1618 956.139 11.7514C956.339 12.341 956.117 13.0179 955.585 13.3673L951.99 15.8786L953.366 19.8967C953.566 20.4863 953.366 21.1632 952.834 21.5345C952.323 21.9057 951.613 21.9057 951.081 21.5345L947.664 19.0232L944.07 21.5563C943.803 21.731 943.515 21.8184 943.204 21.8184V21.7965ZM945.068 13.6076L945.8 14.1535C946.31 14.5247 946.51 15.1798 946.31 15.7694L946.022 16.5993L946.821 16.0315C947.353 15.6603 948.041 15.6821 948.551 16.0315L949.062 16.4027L948.84 15.7694C948.64 15.158 948.84 14.5029 949.372 14.1316L950.104 13.6076H949.173C948.529 13.6076 947.952 13.1926 947.753 12.5812L947.575 11.9916L947.353 12.6467C947.154 13.2363 946.577 13.6294 945.955 13.6294H945.046L945.068 13.6076Z" fill="#A6A6A6"/>
<path d="M940.653 41.4935C938.745 41.4935 936.903 41.2533 935.35 40.8166C934.862 40.6637 934.507 40.2925 934.352 39.8339C933.997 40.0304 933.531 40.0959 933.109 39.9431C924.878 36.9295 919.575 29.4175 919.575 20.7481C919.575 9.56747 928.428 0.461343 939.765 0.00276088C940.386 -0.0409136 941.052 0.395831 941.23 1.02911C941.429 1.66239 941.163 2.33935 940.586 2.68874C935.949 5.46207 933.176 10.2663 933.176 15.5072C933.176 23.7398 939.987 30.422 948.352 30.422C951.835 30.422 955.141 29.2647 957.648 27.1901C958.181 26.7534 958.913 26.7315 959.468 27.1246C960.022 27.5177 960.222 28.2383 959.956 28.8498C956.694 36.4054 948.951 41.4717 940.675 41.4717L940.653 41.4935ZM935.749 37.9777C935.882 37.9777 936.016 37.9777 936.171 38.0432C937.458 38.4145 939.011 38.611 940.653 38.611C945.911 38.611 950.925 36.2089 954.32 32.3437C952.434 32.9988 950.415 33.3264 948.352 33.3264C938.367 33.3264 930.247 25.334 930.247 15.5072C930.247 11.1616 931.822 7.07803 934.64 3.86795C927.54 6.29189 922.504 12.9304 922.504 20.7481C922.504 28.5659 927.074 34.6366 934.13 37.2134C934.573 37.3881 934.906 37.7375 935.017 38.1524C935.239 38.0214 935.483 37.9559 935.749 37.9559V37.9777Z" fill="#A6A6A6"/>
<path d="M902.89 155.637C902.446 155.637 902.002 155.44 901.714 155.069C901.47 154.763 878.684 123.886 911.698 94.3835C931.179 77.0666 934.684 69.489 934.906 59.968C934.906 59.16 935.527 58.5923 936.415 58.5486C937.236 58.5486 937.879 59.2255 937.857 60.0117C937.635 70.3844 933.974 78.486 913.695 96.5235C882.633 124.279 903.866 153.038 904.088 153.344C904.576 153.977 904.443 154.894 903.8 155.375C903.533 155.571 903.223 155.659 902.912 155.659L902.89 155.637Z" fill="#A6A6A6"/>
<path d="M919.53 155.637C918.931 155.637 918.377 155.288 918.155 154.698C918.044 154.392 907.017 123.951 923.369 94.7547C932.932 77.7654 934.707 69.9913 934.928 59.968C934.928 59.16 935.55 58.5923 936.437 58.5486C937.258 58.5486 937.901 59.2255 937.879 60.0117C937.657 70.5372 935.816 78.617 925.965 96.1305C910.278 124.148 920.817 153.388 920.928 153.693C921.194 154.436 920.817 155.266 920.041 155.55C919.863 155.615 919.708 155.637 919.53 155.637Z" fill="#A6A6A6"/>
<path d="M970.095 155.637C969.785 155.637 969.474 155.55 969.23 155.353C968.586 154.895 968.431 153.977 968.919 153.344C969.807 152.165 990.108 124.235 959.09 96.5236C939.122 78.7481 935.394 70.6028 934.928 60.0554C934.884 59.2693 935.527 58.5923 936.326 58.5487C937.125 58.5268 937.835 59.1383 937.857 59.9244C938.279 69.6638 941.851 77.285 961.043 94.3617C994.08 123.864 971.493 154.742 971.249 155.047C970.961 155.44 970.517 155.637 970.073 155.637H970.095Z" fill="#A6A6A6"/>
<path d="M953.233 155.637C953.055 155.637 952.878 155.615 952.723 155.549C951.968 155.266 951.569 154.436 951.857 153.693C951.968 153.409 962.729 124.169 947.043 96.1522C937.014 78.2893 935.128 70.2751 934.906 60.0334C934.906 59.2254 935.527 58.5703 936.348 58.5703C937.169 58.614 937.835 59.1818 937.857 59.9897C938.057 69.751 939.876 77.4595 949.616 94.7765C965.968 123.995 954.719 154.436 954.608 154.742C954.387 155.331 953.832 155.681 953.233 155.681V155.637Z" fill="#A6A6A6"/>
<path d="M992.482 163.826C991.661 163.826 991.018 163.171 991.018 162.385C991.018 158.781 988.045 155.855 984.384 155.855H889.888C886.227 155.855 883.254 158.781 883.254 162.385C883.254 163.192 882.589 163.826 881.79 163.826C880.991 163.826 880.325 163.171 880.325 162.385C880.325 157.187 884.63 152.973 889.91 152.973H984.406C989.687 152.973 993.991 157.187 993.991 162.385C993.991 163.192 993.325 163.826 992.527 163.826H992.482Z" fill="#A6A6A6"/>
<path d="M997.608 254.057C996.831 254.057 996.188 253.468 996.143 252.682L991.04 162.035C990.996 161.227 991.617 160.55 992.438 160.507C993.237 160.441 993.947 161.074 993.991 161.861L999.094 252.507C999.138 253.315 998.517 253.992 997.696 254.036H997.608V254.057Z" fill="#A6A6A6"/>
<path d="M878.795 275.436H878.75C877.929 275.436 877.286 274.759 877.308 273.951L880.281 161.904C880.281 161.118 880.947 160.507 881.745 160.507H881.79C882.611 160.507 883.254 161.184 883.21 161.992L880.237 274.038C880.237 274.825 879.571 275.436 878.772 275.436H878.795Z" fill="#A6A6A6"/>
<path d="M895.635 286.355C894.814 286.355 894.17 285.699 894.17 284.913V204.771C894.17 204.443 895.124 174.963 938.168 164.546C938.412 164.481 938.656 164.503 938.878 164.546C939.299 164.656 980.679 175.269 983.075 209.902C983.141 210.71 982.52 211.387 981.699 211.453C980.745 211.453 980.19 210.907 980.124 210.099C977.994 179.199 942.383 168.521 938.501 167.451C897.987 177.409 897.121 204.509 897.121 204.793V284.913C897.121 285.721 896.456 286.355 895.657 286.355H895.635Z" fill="#A6A6A6"/>
<path d="M1020.22 249.843H1020.15C1019.33 249.799 1018.71 249.122 1018.75 248.336L1021.3 192.324C1021.35 191.537 1022.01 190.97 1022.83 190.948C1023.66 190.992 1024.28 191.668 1024.23 192.455L1021.68 248.467C1021.64 249.253 1020.99 249.843 1020.22 249.843ZM1056.47 238.094C1055.69 238.094 1055.05 237.505 1055.01 236.719L1052.65 192.455C1052.61 191.647 1053.23 190.97 1054.05 190.926C1054.87 190.861 1055.56 191.494 1055.61 192.302L1057.96 236.566C1058 237.352 1057.38 238.051 1056.56 238.094H1056.49H1056.47ZM1022.99 189.004H1022.95C1022.12 188.983 1021.5 188.306 1021.53 187.498L1022.59 159.808C1022.61 159 1023.3 158.367 1024.12 158.41C1024.94 158.432 1025.56 159.109 1025.54 159.917L1024.48 187.607C1024.45 188.393 1023.79 189.004 1023.01 189.004H1022.99ZM1053.72 189.004C1052.94 189.004 1052.3 188.415 1052.25 187.629L1050.75 159.939C1050.7 159.131 1051.32 158.454 1052.14 158.41C1053.03 158.41 1053.65 158.978 1053.7 159.786L1055.21 187.476C1055.25 188.284 1054.63 188.961 1053.81 189.004H1053.72ZM1052.01 157.122C1051.23 157.122 1050.59 156.532 1050.55 155.768L1048.7 122.51H1027.18L1025.74 155.746C1025.7 156.554 1025.03 157.1 1024.21 157.122C1023.39 157.078 1022.77 156.401 1022.81 155.615L1024.3 121.003C1024.32 120.239 1024.99 119.627 1025.76 119.627H1050.08C1050.86 119.627 1051.5 120.239 1051.54 121.003L1053.45 155.615C1053.5 156.423 1052.88 157.1 1052.06 157.144H1051.97L1052.01 157.122Z" fill="#A6A6A6"/>
<path d="M1044.76 157.122H1033.02C1032.2 157.122 1031.55 156.489 1031.55 155.681V129.672C1031.55 125.633 1034.79 122.357 1038.79 122.357C1042.78 122.357 1046.24 125.633 1046.24 129.672V155.681C1046.24 156.489 1045.58 157.122 1044.78 157.122H1044.76ZM1034.48 154.217H1043.29V129.651C1043.29 127.205 1041.27 125.218 1038.79 125.218C1036.46 125.218 1034.51 127.248 1034.51 129.651V154.217H1034.48Z" fill="#A6A6A6"/>
<path d="M1050.28 122.51H1025.52C1023.63 122.51 1021.92 120.828 1021.92 118.972C1021.92 117.116 1023.63 115.435 1025.52 115.435H1050.28C1052.12 115.435 1053.65 117.072 1053.65 118.972C1053.65 120.872 1052.1 122.51 1050.28 122.51ZM1025.52 118.317C1025.28 118.317 1024.85 118.71 1024.85 118.972C1024.85 119.234 1025.28 119.627 1025.52 119.627H1050.28C1050.44 119.627 1050.72 119.3 1050.72 118.972C1050.72 118.645 1050.44 118.317 1050.28 118.317H1025.52Z" fill="#A6A6A6"/>
<path d="M1054.12 161.315H1021.48C1019.4 161.315 1017.89 159.83 1017.89 157.777C1017.89 155.724 1019.51 154.239 1021.48 154.239H1054.12C1056.09 154.239 1057.71 155.833 1057.71 157.777C1057.71 159.83 1056.2 161.315 1054.12 161.315ZM1021.48 157.122C1021.02 157.122 1020.82 157.537 1020.82 157.777C1020.82 158.235 1021.02 158.432 1021.48 158.432H1054.12C1054.58 158.432 1054.78 158.257 1054.78 157.777C1054.78 157.515 1054.56 157.122 1054.12 157.122H1021.48Z" fill="#A6A6A6"/>
<path d="M1025.54 118.295C1024.88 118.295 1024.28 117.858 1024.12 117.203C1023.52 114.823 1022.3 106.7 1031.69 101.721C1032.4 101.35 1033.28 101.612 1033.68 102.31C1034.06 103.009 1033.79 103.883 1033.08 104.276C1025.76 108.163 1026.38 114.124 1026.98 116.505C1027.18 117.269 1026.69 118.055 1025.9 118.252C1025.79 118.273 1025.65 118.295 1025.54 118.295Z" fill="#A6A6A6"/>
<path d="M1032.15 104.669C1031.55 104.669 1031 104.319 1030.78 103.752C1030.49 103.009 1030.87 102.179 1031.62 101.874C1031.64 101.874 1034.15 100.891 1036.41 98.467C1036.97 97.8774 1037.9 97.8337 1038.5 98.3797C1039.1 98.9256 1039.12 99.8428 1038.59 100.432C1035.81 103.359 1032.82 104.538 1032.69 104.56C1032.51 104.625 1032.33 104.647 1032.15 104.647V104.669Z" fill="#A6A6A6"/>
<path d="M1043.05 104.669C1042.83 104.669 1042.6 104.625 1042.38 104.516C1042.23 104.429 1038.25 102.485 1036.39 100.411C1035.84 99.821 1035.9 98.9038 1036.5 98.3579C1037.12 97.8119 1038.06 97.8775 1038.59 98.4671C1039.83 99.8428 1042.69 101.415 1043.69 101.896C1044.42 102.245 1044.71 103.118 1044.36 103.839C1044.09 104.341 1043.58 104.647 1043.05 104.647V104.669Z" fill="#A6A6A6"/>
<path d="M1032.15 104.669C1031.6 104.669 1031.07 104.363 1030.82 103.839C1030.47 103.118 1030.78 102.245 1031.51 101.896C1031.78 101.765 1038.03 98.8821 1043.11 101.743C1043.82 102.136 1044.07 103.031 1043.67 103.708C1043.27 104.407 1042.36 104.647 1041.67 104.254C1037.9 102.158 1032.84 104.494 1032.8 104.516C1032.6 104.603 1032.38 104.647 1032.15 104.647V104.669Z" fill="#A6A6A6"/>
<path d="M1049.86 118.099C1049.86 118.099 1049.66 118.099 1049.55 118.077C1048.75 117.924 1048.24 117.16 1048.42 116.374C1050.08 108.534 1042.03 104.582 1041.96 104.538C1041.23 104.188 1040.94 103.315 1041.27 102.594C1041.63 101.874 1042.51 101.59 1043.25 101.917C1046.77 103.621 1053.01 108.949 1051.3 116.963C1051.17 117.64 1050.55 118.099 1049.86 118.099Z" fill="#A6A6A6"/>
<path d="M1037.28 97.943C1036.66 97.943 1035.59 97.55 1035.59 96.0869C1035.59 95.2789 1036.46 94.4272 1037.28 94.4272C1038.5 94.4272 1039.16 95.2789 1039.16 96.0869C1039.16 97.3753 1038.21 97.943 1037.28 97.943ZM1037.28 95.0387C1036.83 95.0387 1036.26 95.5409 1036.24 96.1087C1036.24 96.873 1036.9 97.3098 1037.28 97.3098V95.8685L1038.54 96.0869C1038.54 95.6938 1038.03 95.0605 1037.28 95.0605V95.0387Z" fill="#A6A6A6"/>
<path d="M1037.5 99.2094C1036.12 99.2094 1035.39 98.2486 1035.39 97.3532C1035.39 96.851 1035.59 95.6936 1037.5 95.6936C1039.41 95.6936 1039.41 97.2877 1039.41 97.3532C1039.41 98.3578 1038.54 99.2094 1037.5 99.2094ZM1037.5 96.305C1036.9 96.305 1036.46 96.7418 1036.46 97.3314C1036.46 98.0739 1037.1 98.5543 1037.57 98.5761L1037.17 97.1349L1038.34 97.3532C1038.34 96.6763 1037.79 96.3269 1037.5 96.3269V96.305Z" fill="#A6A6A6"/>
<path d="M1037.5 100.673C1036.12 100.673 1035.39 99.7117 1035.39 98.8164C1035.39 97.921 1036.12 96.9602 1037.5 96.9602C1038.88 96.9602 1039.61 97.921 1039.61 98.8164C1039.61 99.7117 1038.88 100.673 1037.5 100.673ZM1037.5 97.79C1037.21 97.79 1036.68 98.1394 1036.68 98.8164C1036.68 100.061 1038.34 100.039 1038.34 98.8164C1038.34 98.1394 1037.79 97.79 1037.5 97.79Z" fill="#A6A6A6"/>
<path d="M1037.5 97.1132C1036.68 97.1132 1036.04 96.4581 1036.04 95.6719V94.4054C1036.04 93.5974 1036.7 92.9641 1037.5 92.9641C1038.3 92.9641 1038.96 93.6192 1038.96 94.4054V95.6719C1038.96 96.4799 1038.3 97.1132 1037.5 97.1132Z" fill="#A6A6A6"/>
<path d="M1056.05 193.83H1019.57C1017.47 193.83 1015.76 192.149 1015.76 190.074C1015.76 188 1017.47 186.318 1019.57 186.318H1056.05C1058.16 186.318 1059.87 188 1059.87 190.074C1059.87 192.149 1058.16 193.83 1056.05 193.83ZM1019.57 189.223C1019.11 189.223 1018.69 189.638 1018.69 190.074C1018.69 190.511 1019.08 190.948 1019.57 190.948H1056.05C1056.51 190.948 1056.94 190.555 1056.94 190.074C1056.94 189.594 1056.51 189.223 1056.05 189.223H1019.57Z" fill="#A6A6A6"/>
<path d="M1058.18 239.361H1017.44C1015.14 239.361 1013.43 237.658 1013.43 235.387C1013.43 233.116 1015.16 231.434 1017.44 231.434H1058.18C1060.49 231.434 1062.22 233.137 1062.22 235.387C1062.22 237.636 1060.49 239.361 1058.18 239.361ZM1017.44 234.338C1016.78 234.338 1016.36 234.732 1016.36 235.408C1016.36 236.085 1016.76 236.478 1017.44 236.478H1058.18C1058.87 236.478 1059.27 236.085 1059.27 235.408C1059.27 234.732 1058.87 234.338 1058.18 234.338H1017.44Z" fill="#A6A6A6"/>
<path d="M1008.7 264.954C1001.89 264.954 996.143 259.386 996.143 252.813C996.143 252.005 996.809 251.371 997.608 251.371C998.406 251.371 999.072 252.027 999.072 252.813C999.072 257.835 1003.49 262.072 1008.7 262.072C1013.56 262.072 1017.53 258.119 1018.11 252.66L1018.75 245.759C1018.82 244.951 1019.53 244.362 1020.35 244.449C1021.17 244.515 1021.77 245.213 1021.68 246.021L1021.04 252.944C1020.28 259.91 1015.09 264.954 1008.7 264.954Z" fill="#A6A6A6"/>
<path d="M866.836 293.059C859.802 293.059 854.056 287.425 854.056 280.502C854.056 279.694 854.721 279.061 855.52 279.061C856.319 279.061 856.984 279.716 856.984 280.502C856.984 285.743 861.488 290.176 866.813 290.176C872.138 290.176 876.065 286.049 876.665 280.371L877.308 273.252C877.375 272.444 878.107 271.877 878.905 271.942C879.726 272.008 880.303 272.706 880.237 273.514L879.593 280.655C878.839 287.862 873.447 293.081 866.813 293.081L866.836 293.059Z" fill="#A6A6A6"/>
<path d="M1076.31 260.761C1065.12 260.761 1056.14 251.961 1055.43 240.3L1054.14 220.166C1054.1 219.38 1054.7 218.681 1055.52 218.637C1056.27 218.594 1057.03 219.183 1057.07 219.991L1058.36 240.125C1058.98 250.236 1066.68 257.857 1076.31 257.857C1085.94 257.857 1094.46 249.93 1094.46 240.213V218.812C1094.46 218.004 1095.12 217.371 1095.92 217.371C1096.72 217.371 1097.38 218.026 1097.38 218.812V240.213C1097.38 251.546 1087.93 260.761 1076.28 260.761H1076.31Z" fill="#A6A6A6"/>
<path d="M797.301 300.003C785.674 300.003 776.201 290.7 776.201 279.257V173.522C776.201 172.714 776.866 172.08 777.665 172.08C778.464 172.08 779.129 172.735 779.129 173.522V279.257C779.129 289.106 787.272 297.12 797.278 297.12C807.285 297.12 815.028 289.084 815.228 279.236L815.65 261.395C815.65 260.587 816.182 259.932 817.158 259.975C817.979 259.975 818.623 260.652 818.6 261.46L818.179 279.301C817.935 290.722 808.572 300.025 797.301 300.025V300.003Z" fill="#A6A6A6"/>
<path d="M738.216 198.656C737.395 198.656 736.751 198.001 736.751 197.215V164.896C736.751 153.453 746.115 144.151 757.63 144.151C769.145 144.151 778.486 153.257 778.73 164.874L779.151 182.693C779.151 183.501 778.53 184.156 777.709 184.178H777.665C776.866 184.178 776.223 183.545 776.2 182.781L775.779 164.962C775.579 154.916 767.614 147.055 757.63 147.055C747.645 147.055 739.68 155.069 739.68 164.918V197.237C739.68 198.045 739.015 198.678 738.216 198.678V198.656Z" fill="#A6A6A6"/>
<path d="M1095.72 238.313C1094.9 238.313 1094.26 237.658 1094.26 236.871V211.693C1094.26 200.447 1103.91 190.948 1115.36 190.948C1126.8 190.948 1136.21 200.229 1136.46 211.671C1136.46 212.479 1135.83 213.134 1135.01 213.156H1134.99C1134.19 213.156 1133.53 212.523 1133.53 211.737C1133.33 201.888 1125.18 193.852 1115.38 193.852C1105.57 193.852 1097.23 202.041 1097.23 211.715V236.893C1097.23 237.701 1096.56 238.335 1095.76 238.335L1095.72 238.313Z" fill="#A6A6A6"/>
<path d="M1198.54 232.024H1154.6C1142.96 232.024 1133.5 222.721 1133.5 211.278C1133.5 210.47 1134.17 209.837 1134.97 209.837C1135.77 209.837 1136.43 210.492 1136.43 211.278C1136.43 221.127 1144.58 229.141 1154.58 229.141H1198.51C1199.33 229.141 1199.98 229.796 1199.98 230.582C1199.98 231.368 1199.31 232.024 1198.51 232.024H1198.54Z" fill="#A6A6A6"/>
<path d="M718.602 214.816H1.46436C0.643432 214.816 0 214.161 0 213.375C0 212.588 0.665619 211.933 1.46436 211.933H718.602C728.609 211.933 736.751 203.919 736.751 194.07C736.751 193.262 737.417 192.629 738.216 192.629C739.015 192.629 739.68 193.284 739.68 194.07C739.68 205.513 730.228 214.816 718.58 214.816H718.602Z" fill="#A6A6A6"/>
</g>
<defs>
<clipPath id="clip0_2839_3949">
<rect width="1200" height="300" fill="white"/>
</clipPath>
</defs>
</svg>
