<svg width="250" height="200" viewBox="0 0 250 200" fill="none" xmlns="http://www.w3.org/2000/svg">
<path fill-rule="evenodd" clip-rule="evenodd" d="M207 65C210.866 65 214 68.134 214 72C214 75.866 210.866 79 207 79H167C170.866 79 174 82.134 174 86C174 89.866 170.866 93 167 93H189C192.866 93 196 96.134 196 100C196 103.866 192.866 107 189 107H178.826C173.952 107 170 110.134 170 114C170 116.577 172 118.911 176 121C179.866 121 183 124.134 183 128C183 131.866 179.866 135 176 135H93C89.134 135 86 131.866 86 128C86 124.134 89.134 121 93 121H54C50.134 121 47 117.866 47 114C47 110.134 50.134 107 54 107H94C97.866 107 101 103.866 101 100C101 96.134 97.866 93 94 93H69C65.134 93 62 89.866 62 86C62 82.134 65.134 79 69 79H109C105.134 79 102 75.866 102 72C102 68.134 105.134 65 109 65H207ZM207 93C210.866 93 214 96.134 214 100C214 103.866 210.866 107 207 107C203.134 107 200 103.866 200 100C200 96.134 203.134 93 207 93Z" fill="#F3F7FF"/>
<path fill-rule="evenodd" clip-rule="evenodd" d="M154.623 64.5983L163.924 132.441L164.76 139.247C165.029 141.44 163.47 143.436 161.277 143.705L102.717 150.895C100.524 151.165 98.5287 149.605 98.2595 147.413L89.2437 73.9851C89.1091 72.8888 89.8888 71.8909 90.9851 71.7563C90.992 71.7554 90.9989 71.7546 91.0059 71.7538L95.8642 71.2088M99.7928 70.7682L104.38 70.2536L99.7928 70.7682Z" fill="white"/>
<path d="M156.109 64.3946C155.996 63.5738 155.239 62.9997 154.419 63.1122C153.598 63.2248 153.024 63.9813 153.136 64.8021L156.109 64.3946ZM163.924 132.441L165.413 132.258C165.412 132.251 165.411 132.244 165.41 132.237L163.924 132.441ZM164.76 139.247L166.249 139.065L164.76 139.247ZM161.277 143.705L161.46 145.194L161.277 143.705ZM102.717 150.895L102.9 152.384L102.717 150.895ZM98.2595 147.413L99.7483 147.23L98.2595 147.413ZM91.0059 71.7538L91.1731 73.2445L91.0059 71.7538ZM96.0315 72.6995C96.8547 72.6071 97.4472 71.8649 97.3549 71.0416C97.2626 70.2184 96.5203 69.6258 95.697 69.7182L96.0315 72.6995ZM99.6256 69.2775C98.8023 69.3699 98.2098 70.1121 98.3021 70.9354C98.3945 71.7586 99.1367 72.3512 99.96 72.2588L99.6256 69.2775ZM104.547 71.7443C105.37 71.6519 105.963 70.9097 105.87 70.0864C105.778 69.2631 105.036 68.6706 104.213 68.763L104.547 71.7443ZM153.136 64.8021L162.438 132.645L165.41 132.237L156.109 64.3946L153.136 64.8021ZM162.436 132.624L163.271 139.43L166.249 139.065L165.413 132.258L162.436 132.624ZM163.271 139.43C163.44 140.801 162.465 142.048 161.095 142.216L161.46 145.194C164.475 144.824 166.619 142.079 166.249 139.065L163.271 139.43ZM161.095 142.216L102.534 149.407L102.9 152.384L161.46 145.194L161.095 142.216ZM102.534 149.407C101.164 149.575 99.9166 148.6 99.7483 147.23L96.7707 147.595C97.1409 150.61 99.885 152.754 102.9 152.384L102.534 149.407ZM99.7483 147.23L90.7326 73.8023L87.7549 74.1679L96.7707 147.595L99.7483 147.23ZM90.7326 73.8023C90.6989 73.5282 90.8938 73.2787 91.1679 73.2451L90.8023 70.2674C88.8837 70.503 87.5193 72.2493 87.7549 74.1679L90.7326 73.8023ZM91.1679 73.2451C91.1696 73.2449 91.1714 73.2447 91.1731 73.2445L90.8387 70.2632C90.8265 70.2645 90.8144 70.266 90.8023 70.2674L91.1679 73.2451ZM91.1731 73.2445L96.0315 72.6995L95.697 69.7182L90.8387 70.2632L91.1731 73.2445ZM99.96 72.2588L104.547 71.7443L104.213 68.763L99.6256 69.2775L99.96 72.2588Z" fill="#006FFD"/>
<path fill-rule="evenodd" clip-rule="evenodd" d="M151.14 68.2691L159.56 129.753L160.317 135.921C160.561 137.908 159.167 139.714 157.204 139.956L104.762 146.395C102.798 146.636 101.008 145.22 100.764 143.233L92.6143 76.8567C92.4797 75.7603 93.2594 74.7625 94.3557 74.6278L100.843 73.8313" fill="#E8F0FE"/>
<path d="M107.922 54C107.922 52.4812 109.153 51.25 110.672 51.25H156.229C156.958 51.25 157.657 51.5395 158.173 52.0549L171.616 65.4898C172.132 66.0056 172.422 66.7053 172.422 67.4349V130C172.422 131.519 171.191 132.75 169.672 132.75H110.672C109.153 132.75 107.922 131.519 107.922 130V54Z" fill="white" stroke="#006FFD" stroke-width="2.5"/>
<path d="M156.672 52.4028V64C156.672 65.6569 158.015 67 159.672 67H167.605" stroke="#006FFD" stroke-width="2.5" stroke-linecap="round" stroke-linejoin="round"/>
<path d="M118 118H144M118 67H144H118ZM118 79H161H118ZM118 92H161H118ZM118 105H161H118Z" stroke="#006FFD" stroke-width="2.5" stroke-linecap="round" stroke-linejoin="round"/>
</svg>
