<svg width="20" height="20" viewBox="0 0 20 20" fill="none" xmlns="http://www.w3.org/2000/svg">
<path d="M15.1998 7.47933L14.4049 7.56955L15.1998 7.47933ZM15.5724 10.7627L16.3673 10.6725L15.5724 10.7627ZM4.42789 10.7627L3.633 10.6725H3.633L4.42789 10.7627ZM4.80055 7.47933L5.59545 7.56955L4.80055 7.47933ZM3.70665 12.3934L3.09747 11.8749H3.09747L3.70665 12.3934ZM16.2937 12.3934L15.6845 12.912H15.6845L16.2937 12.3934ZM11.8918 3.64472H11.0918C11.0918 3.98668 11.3091 4.29082 11.6326 4.40159L11.8918 3.64472ZM8.10854 3.64472L8.36768 4.40159C8.6912 4.29082 8.90854 3.98668 8.90854 3.64472H8.10854ZM13.2493 16.9474C13.4043 16.5337 13.1946 16.0726 12.7809 15.9176C12.3672 15.7625 11.9061 15.9722 11.751 16.3859L13.2493 16.9474ZM8.24928 16.3859C8.09423 15.9722 7.63314 15.7625 7.21941 15.9176C6.80569 16.0726 6.59599 16.5337 6.75104 16.9474L8.24928 16.3859ZM14.8145 14.2H5.18584V15.8H14.8145V14.2ZM14.4049 7.56955L14.7775 10.8529L16.3673 10.6725L15.9947 7.38911L14.4049 7.56955ZM5.22279 10.8529L5.59545 7.56955L4.00565 7.38911L3.633 10.6725L5.22279 10.8529ZM4.31583 12.912C4.81831 12.3217 5.13682 11.6104 5.22279 10.8529L3.633 10.6725C3.58473 11.0978 3.40441 11.5143 3.09747 11.8749L4.31583 12.912ZM14.7775 10.8529C14.8635 11.6104 15.182 12.3217 15.6845 12.912L16.9029 11.8749C16.5959 11.5143 16.4156 11.0978 16.3673 10.6725L14.7775 10.8529ZM5.18584 14.2C4.70044 14.2 4.37374 13.9617 4.22783 13.7046C4.08981 13.4614 4.08995 13.1774 4.31583 12.912L3.09747 11.8749C2.40917 12.6835 2.38707 13.7027 2.83628 14.4943C3.2776 15.272 4.14759 15.8 5.18584 15.8V14.2ZM14.8145 15.8C15.8527 15.8 16.7227 15.272 17.164 14.4943C17.6133 13.7027 17.5912 12.6835 16.9029 11.8749L15.6845 12.912C15.9104 13.1774 15.9105 13.4614 15.7725 13.7046C15.6266 13.9617 15.2999 14.2 14.8145 14.2V15.8ZM12.6918 3.64472V3.55829H11.0918V3.64472H12.6918ZM15.9947 7.38911C15.7531 5.26047 14.1765 3.5814 12.1509 2.88786L11.6326 4.40159C13.1777 4.93059 14.2446 6.15727 14.4049 7.56955L15.9947 7.38911ZM8.90854 3.64472V3.55829H7.30854V3.64472H8.90854ZM5.59545 7.56955C5.75574 6.15727 6.82264 4.93059 8.36768 4.40159L7.8494 2.88786C5.82378 3.5814 4.24725 5.26047 4.00565 7.38911L5.59545 7.56955ZM10.0002 2.46667C10.603 2.46667 11.0918 2.95541 11.0918 3.55829H12.6918C12.6918 2.07175 11.4867 0.866672 10.0002 0.866672V2.46667ZM10.0002 0.866672C8.51362 0.866672 7.30854 2.07175 7.30854 3.55829H8.90854C8.90854 2.95541 9.39728 2.46667 10.0002 2.46667V0.866672ZM11.751 16.3859C11.5087 17.0325 10.8339 17.5333 10.0002 17.5333V19.1333C11.4748 19.1333 12.7638 18.2428 13.2493 16.9474L11.751 16.3859ZM10.0002 17.5333C9.16645 17.5333 8.49162 17.0325 8.24928 16.3859L6.75104 16.9474C7.23651 18.2428 8.52549 19.1333 10.0002 19.1333V17.5333Z" fill="#BABABA"/>
</svg>
