<svg width="18" height="18" viewBox="0 0 18 18" fill="none" xmlns="http://www.w3.org/2000/svg">
<path d="M8.95841 13.9998C9.25008 13.9998 9.49675 13.899 9.69841 13.6973C9.90008 13.4957 10.0006 13.2493 10.0001 12.9582C10.0001 12.6665 9.89953 12.4198 9.69841 12.2182C9.4973 12.0165 9.25064 11.9159 8.95841 11.9165C8.66675 11.9165 8.42036 12.0173 8.21925 12.219C8.01814 12.4207 7.9173 12.6671 7.91675 12.9582C7.91675 13.2498 8.01758 13.4965 8.21925 13.6982C8.42091 13.8998 8.6673 14.0004 8.95841 13.9998ZM8.20841 10.7915H9.75008C9.75008 10.3332 9.8023 9.97206 9.90675 9.70817C10.0112 9.44428 10.3062 9.08317 10.7917 8.62484C11.1529 8.26373 11.4376 7.91984 11.6459 7.59317C11.8542 7.2665 11.9584 6.87428 11.9584 6.4165C11.9584 5.63873 11.6737 5.0415 11.1042 4.62484C10.5348 4.20817 9.86119 3.99984 9.08342 3.99984C8.29175 3.99984 7.64953 4.20817 7.15675 4.62484C6.66397 5.0415 6.32008 5.5415 6.12508 6.12484L7.50008 6.6665C7.56953 6.4165 7.72591 6.14567 7.96925 5.854C8.21258 5.56234 8.58397 5.4165 9.08342 5.4165C9.52786 5.4165 9.86119 5.53817 10.0834 5.7815C10.3056 6.02484 10.4167 6.29206 10.4167 6.58317C10.4167 6.86095 10.3334 7.1215 10.1667 7.36484C10.0001 7.60817 9.79175 7.83373 9.54175 8.0415C8.93064 8.58317 8.55564 8.99289 8.41675 9.27067C8.27786 9.54845 8.20841 10.0554 8.20841 10.7915ZM9.00008 17.3332C7.8473 17.3332 6.76397 17.1146 5.75008 16.6773C4.73619 16.2401 3.85425 15.6462 3.10425 14.8957C2.35425 14.1457 1.76064 13.2637 1.32341 12.2498C0.886193 11.2359 0.667304 10.1526 0.666748 8.99984C0.666748 7.84706 0.885637 6.76373 1.32341 5.74984C1.76119 4.73595 2.3548 3.854 3.10425 3.104C3.85425 2.354 4.73619 1.76039 5.75008 1.32317C6.76397 0.885948 7.8473 0.667059 9.00008 0.666504C10.1529 0.666504 11.2362 0.885393 12.2501 1.32317C13.264 1.76095 14.1459 2.35456 14.8959 3.104C15.6459 3.854 16.2398 4.73595 16.6776 5.74984C17.1154 6.76373 17.334 7.84706 17.3334 8.99984C17.3334 10.1526 17.1145 11.2359 16.6767 12.2498C16.239 13.2637 15.6454 14.1457 14.8959 14.8957C14.1459 15.6457 13.264 16.2396 12.2501 16.6773C11.2362 17.1151 10.1529 17.3337 9.00008 17.3332ZM9.00008 15.6665C10.8612 15.6665 12.4376 15.0207 13.7292 13.729C15.0209 12.4373 15.6667 10.8609 15.6667 8.99984C15.6667 7.13873 15.0209 5.56234 13.7292 4.27067C12.4376 2.979 10.8612 2.33317 9.00008 2.33317C7.13897 2.33317 5.56258 2.979 4.27091 4.27067C2.97925 5.56234 2.33341 7.13873 2.33341 8.99984C2.33341 10.8609 2.97925 12.4373 4.27091 13.729C5.56258 15.0207 7.13897 15.6665 9.00008 15.6665Z" fill="#A6A6A6"/>
</svg>
