<svg width="72" height="72" viewBox="0 0 72 72" fill="none" xmlns="http://www.w3.org/2000/svg">
<path d="M0 36C0 16.1178 16.1178 0 36 0C55.8823 0 72 16.1178 72 36C72 55.8823 55.8823 72 36 72C16.1178 72 0 55.8823 0 36Z" fill="#FF4141"/>
<path fill-rule="evenodd" clip-rule="evenodd" d="M27.2497 21.4166C22.8774 21.4166 19.333 24.961 19.333 29.3333V42.6666C19.333 47.0389 22.8774 50.5833 27.2497 50.5833H39.333C43.7053 50.5833 47.2497 47.0389 47.2497 42.6666C47.2497 41.9763 46.69 41.4166 45.9997 41.4166C45.3093 41.4166 44.7497 41.9763 44.7497 42.6666C44.7497 45.6582 42.3246 48.0833 39.333 48.0833H31.7732C33.1023 46.6672 33.9163 44.762 33.9163 42.6666V29.3333C33.9163 27.2379 33.1023 25.3327 31.7732 23.9166H39.333C42.3245 23.9166 44.7497 26.3418 44.7497 29.3333C44.7497 30.0236 45.3093 30.5833 45.9997 30.5833C46.69 30.5833 47.2497 30.0236 47.2497 29.3333C47.2497 24.961 43.7053 21.4166 39.333 21.4166H27.2497ZM47.9104 40.2172C47.4223 39.729 47.4223 38.9376 47.9104 38.4494L49.1099 37.25H38.9163C38.226 37.25 37.6663 36.6903 37.6663 36C37.6663 35.3096 38.226 34.75 38.9163 34.75H49.1099L47.9104 33.5505C47.4223 33.0624 47.4223 32.2709 47.9104 31.7827C48.3986 31.2946 49.19 31.2946 49.6782 31.7827L51.833 33.9376C52.972 35.0766 52.972 36.9233 51.833 38.0624L49.6782 40.2172C49.19 40.7053 48.3986 40.7053 47.9104 40.2172Z" fill="white"/>
</svg>
