<svg width="20" height="20" viewBox="0 0 20 20" fill="none" xmlns="http://www.w3.org/2000/svg">
<path d="M12.5007 3.33317H5.00065V16.6665H15.0007V5.83317H12.5007V3.33317ZM5.00065 1.6665H13.334L16.6673 4.99984V16.6665C16.6673 17.1085 16.4917 17.5325 16.1792 17.845C15.8666 18.1576 15.4427 18.3332 15.0007 18.3332H5.00065C4.55862 18.3332 4.1347 18.1576 3.82214 17.845C3.50958 17.5325 3.33398 17.1085 3.33398 16.6665V3.33317C3.33398 2.89114 3.50958 2.46722 3.82214 2.15466C4.1347 1.8421 4.55862 1.6665 5.00065 1.6665ZM6.66732 9.1665H13.334V10.8332H6.66732V9.1665ZM6.66732 12.4998H13.334V14.1665H6.66732V12.4998Z" fill="#A6A6A6"/>
</svg>
