<svg width="16" height="16" viewBox="0 0 16 16" fill="none" xmlns="http://www.w3.org/2000/svg">
<path fill-rule="evenodd" clip-rule="evenodd" d="M10.3735 9.66667H11.0717L15.482 13.8333L14.1651 15.075L9.74598 10.9167V10.2583L9.50735 10.025C8.49979 10.8417 7.19173 11.3333 5.76878 11.3333C2.59585 11.3333 0.0239258 8.90833 0.0239258 5.91667C0.0239258 2.925 2.59585 0.5 5.76878 0.5C8.9417 0.5 11.5136 2.925 11.5136 5.91667C11.5136 7.25833 10.9922 8.49167 10.126 9.44167L10.3735 9.66667ZM1.79167 5.91663C1.79167 7.99163 3.56815 9.66663 5.76887 9.66663C7.96959 9.66663 9.74608 7.99163 9.74608 5.91663C9.74608 3.84163 7.96959 2.16663 5.76887 2.16663C3.56815 2.16663 1.79167 3.84163 1.79167 5.91663Z" fill="black"/>
</svg>
